<?xml version="1.0" encoding="utf-8"?>
<svg width="15" height="15" viewBox="0 0 15 15" fill="none" xmlns="http://www.w3.org/2000/svg">
    <g id="Group">
        <path id="Shape"
            d="M7.5 0C11.642 0 15 3.35795 15 7.5C15 11.642 11.642 15 7.5 15C3.35795 15 0 11.642 0 7.5C0 3.35795 3.35795 0 7.5 0C7.5 0 7.5 0 7.5 0ZM8.18164 10.9091C8.18164 10.7042 8.18164 7.70489 8.18164 7.50001C8.18164 7.12364 7.87652 6.81819 7.49982 6.81819C7.12312 6.81819 6.818 7.12364 6.818 7.50001C6.818 7.70489 6.818 10.7042 6.818 10.9091C6.818 11.2855 7.12312 11.5909 7.49982 11.5909C7.87652 11.5909 8.18164 11.2855 8.18164 10.9091C8.18164 10.9091 8.18164 10.9091 8.18164 10.9091ZM7.49987 5.79545C8.06476 5.79545 8.5226 5.33761 8.5226 4.77273C8.5226 4.20784 8.06476 3.75 7.49987 3.75C6.93499 3.75 6.47714 4.20784 6.47714 4.77273C6.47714 5.33761 6.93499 5.79545 7.49987 5.79545C7.49987 5.79545 7.49987 5.79545 7.49987 5.79545Z"
            fill="#000000" />
    </g>
</svg>