<?xml version="1.0" encoding="utf-8"?>
<svg width="15" height="15" viewBox="0 0 15 15" fill="none" xmlns="http://www.w3.org/2000/svg">
    <g id="Group">
        <path id="Shape"
            d="M7.5 0C7.26 0 7.02013 0.0996883 6.83716 0.29964C6.83716 0.29964 0.274686 7.45905 0.274686 7.45905C-0.0915621 7.85895 -0.0915621 8.50474 0.274686 8.90465C0.626247 9.29091 1.18984 9.30449 1.55703 8.94993C1.55703 8.94993 1.91653 8.55906 1.91653 8.55906C1.97778 8.49531 2.07622 8.49531 2.13747 8.55906C2.19841 8.62725 2.19841 8.73635 2.13747 8.80011C2.13747 8.80011 1.8207 9.14503 1.8207 9.14503C1.74133 9.23128 1.65471 9.30445 1.56252 9.36343C1.56252 9.36343 1.56252 14.6597 1.56252 14.6597C1.56252 14.6597 1.5613 14.6591 1.5613 14.6591C1.21724 14.6591 0.311307 14.7367 0.311307 14.8322C0.311307 14.9229 1.21724 15 1.5613 15C1.5613 15 1.56252 14.9993 1.56252 14.9993L1.56252 15L13.4363 15L13.4363 14.9993C13.4363 14.9993 13.4381 15 13.4381 15C13.7821 15 14.6881 14.9229 14.6881 14.8322C14.6881 14.7367 13.7821 14.6591 13.4381 14.6591C13.4381 14.6591 13.4363 14.6604 13.4363 14.6604C13.4363 14.6604 13.4356 9.36343 13.4356 9.36343C13.3441 9.30445 13.2577 9.23128 13.1793 9.14503C13.1793 9.14503 12.8625 8.79944 12.8625 8.79944C12.8016 8.73569 12.8016 8.62658 12.8625 8.5584C12.9238 8.49464 13.0222 8.49464 13.0835 8.5584C13.0835 8.5584 13.443 8.94993 13.443 8.94993C13.8105 9.30449 14.3731 9.29025 14.7253 8.90398C15.0916 8.50408 15.0916 7.85895 14.7253 7.45905C14.7253 7.45905 12.1881 4.69037 12.1881 4.69037L12.1881 2.04488L12.5012 1.70396L12.5012 1.36303L10.3131 1.36303L10.3131 1.70396L10.6256 2.04488L10.6256 2.50433C10.6256 2.50433 11.1999 3.13158 11.1999 3.13158C11.2609 3.19533 11.2609 3.30443 11.1999 3.37262C11.1387 3.43637 11.0402 3.43637 10.979 3.37262C10.979 3.37262 8.16284 0.29964 8.16284 0.29964C7.97987 0.0996883 7.74 0 7.5 0C7.5 0 7.5 0 7.5 0ZM7.49955 0.682511C7.57954 0.682511 7.65971 0.715757 7.72049 0.781726C7.72049 0.781726 14.283 7.94113 14.283 7.94113C14.4052 8.07273 14.4052 8.29062 14.283 8.42256C14.1614 8.55449 13.9632 8.55449 13.8417 8.42256C13.8417 8.42256 7.7211 1.74457 7.7211 1.74457C7.59891 1.61263 7.4014 1.61263 7.27921 1.74457C7.27921 1.74457 1.15802 8.42256 1.15802 8.42256C1.03645 8.55415 0.838296 8.55415 0.716734 8.42256C0.594547 8.29096 0.594547 8.07307 0.716734 7.94113C0.716734 7.94113 7.27921 0.781726 7.27921 0.781726C7.33999 0.715757 7.41954 0.682511 7.49955 0.682511C7.49955 0.682511 7.49955 0.682511 7.49955 0.682511ZM7.5006 5.79504C8.47153 5.79504 9.34796 6.20852 9.9542 6.8631C10.0155 6.93128 10.0158 7.03596 9.95481 7.10414C9.89388 7.17233 9.79512 7.17233 9.73387 7.10414C9.18762 6.51332 8.39091 6.13597 7.5006 6.13597C6.60935 6.13597 5.81206 6.51332 5.2655 7.10414C5.20425 7.17233 5.10549 7.17233 5.04456 7.10414C4.98362 7.03596 4.98453 6.93128 5.04578 6.8631C5.65265 6.20852 6.52904 5.79504 7.5006 5.79504C7.5006 5.79504 7.5006 5.79504 7.5006 5.79504ZM5.93515 7.49967L9.06258 7.49967L9.06258 13.6363L5.93515 13.6363L5.93515 7.49967L5.93515 7.49967ZM6.40493 9.20429C6.31869 9.20429 6.24869 9.28195 6.24869 9.37741C6.24869 9.37741 6.24869 11.7546 6.24869 11.7546C6.24869 11.8456 6.31869 11.9224 6.40493 11.9224C6.49087 11.9224 6.56118 11.8456 6.56118 11.7546C6.56118 11.7546 6.56118 9.37741 6.56118 9.37741C6.56118 9.28195 6.49087 9.20429 6.40493 9.20429C6.40493 9.20429 6.40493 9.20429 6.40493 9.20429ZM5.3124 13.9772C5.3124 13.9772 9.68739 13.9772 9.68739 13.9772C9.85926 13.9772 9.99989 14.1317 9.99989 14.3182C9.99989 14.3182 9.99989 14.6591 9.99989 14.6591L4.99991 14.6591C4.99991 14.6591 4.99991 14.3182 4.99991 14.3182C4.99991 14.1317 5.13991 13.9772 5.3124 13.9772C5.3124 13.9772 5.3124 13.9772 5.3124 13.9772Z"
            fill="#000000" />
    </g>
</svg>