<?xml version="1.0" encoding="utf-8"?>
<svg width="15" height="15" viewBox="0 0 15 15" fill="none" xmlns="http://www.w3.org/2000/svg">
    <g id="Group">
        <path id="Shape"
            d="M6.35651 0C5.72343 0 5.15516 0.309869 4.81924 0.818133C4.70296 0.991687 4.75464 1.22718 4.94844 1.32635C5.12932 1.43792 5.37475 1.38833 5.4781 1.20238C5.6719 0.904862 5.99475 0.731453 6.35651 0.731453C6.35651 0.731453 8.63062 0.731453 8.63062 0.731453C9.1991 0.731453 9.66422 1.17773 9.66422 1.72319C9.66422 1.72319 9.66422 2.09509 9.66422 2.09509C9.66422 2.09509 1.67959 2.09509 1.67959 2.09509C0.749357 2.09509 0 2.8141 0 3.70666C0 3.70666 0 6.14871 0 6.14871C0 6.28508 0.0775196 6.3966 0.193799 6.47098C2.18347 7.61147 4.39268 8.2561 6.61491 8.39247C6.61491 8.39247 6.61491 9.08687 6.61491 9.08687C6.61491 9.63233 7.08003 10.0786 7.6485 10.0786C8.21698 10.0786 8.6821 9.63233 8.6821 9.08687C8.6821 9.08687 8.6821 8.36777 8.6821 8.36777C10.8139 8.19421 12.907 7.56189 14.8062 6.47098C14.9225 6.40899 15 6.28508 15 6.14871C15 6.14871 15 3.71901 15 3.71901C14.9871 2.82645 14.2378 2.10744 13.3075 2.10744C13.3075 2.10744 10.4394 2.10744 10.4394 2.10744C10.4394 2.10744 10.4394 1.73554 10.4394 1.73554C10.4394 0.780992 9.62546 0 8.63062 0C8.63062 0 6.35651 0 6.35651 0C6.35651 0 6.35651 0 6.35651 0ZM1.67976 2.85124C1.67976 2.85124 13.3077 2.85124 13.3077 2.85124C13.8116 2.85124 14.2121 3.23554 14.2121 3.71901C14.2121 3.71901 14.2121 5.95041 14.2121 5.95041C10.0519 8.2562 4.93559 8.2562 0.775368 5.95041C0.775368 5.95041 0.775368 3.71901 0.775368 3.71901C0.775368 3.23554 1.17589 2.85124 1.67976 2.85124C1.67976 2.85124 1.67976 2.85124 1.67976 2.85124ZM0.387598 7.64866C0.167959 7.64866 0 7.80982 0 8.02057C0 8.02057 0 13.3884 0 13.3884C0 14.281 0.749357 15 1.67959 15C1.67959 15 13.3075 15 13.3075 15C14.2378 15 14.9871 14.281 14.9871 13.3884C14.9871 13.3884 14.9871 8.02057 14.9871 8.02057C14.9871 7.80982 14.8192 7.64866 14.5995 7.64866C14.3799 7.64866 14.2119 7.80982 14.2119 8.02057C14.2119 8.02057 14.2119 13.3884 14.2119 13.3884C14.2119 13.8719 13.8114 14.2562 13.3075 14.2562C13.3075 14.2562 1.67959 14.2562 1.67959 14.2562C1.17571 14.2562 0.775196 13.8719 0.775196 13.3884C0.775196 13.3884 0.775196 8.02057 0.775196 8.02057C0.775196 7.80982 0.607237 7.64866 0.387598 7.64866C0.387598 7.64866 0.387598 7.64866 0.387598 7.64866Z"
            fill="#000000" />
    </g>
</svg>