<svg width="238" height="39" viewBox="0 0 238 39" fill="none" xmlns="http://www.w3.org/2000/svg">
    <path
        d="M235.217 7.44761L235.245 5.91998H233.718H229.958H228.425L228.458 7.45248L228.858 25.9125L228.89 27.38H230.358H233.378H234.85L234.877 25.9076L235.217 7.44761ZM228.91 35.6731L228.917 35.68L228.923 35.6868C229.727 36.5114 230.754 36.92 231.898 36.92C233.046 36.92 234.083 36.517 234.892 35.6871C235.685 34.8729 236.098 33.8568 236.098 32.72C236.098 31.5908 235.681 30.5854 234.885 29.7861C234.077 28.9608 233.043 28.56 231.898 28.56C230.754 28.56 229.727 28.9686 228.923 29.7932C228.141 30.5964 227.738 31.6 227.738 32.72C227.738 33.8447 228.134 34.8564 228.91 35.6731Z"
        stroke="#DFDF24" stroke-width="3" />
    <path
        d="M198.473 34.96V36.46H199.973H203.333H204.833V34.96V20.1083C205.093 19.7746 205.403 19.4336 205.768 19.0862L205.768 19.0856C206.23 18.6449 206.752 18.2781 207.339 17.9842C207.863 17.7279 208.415 17.6 209.013 17.6C209.937 17.6 210.309 17.7879 210.425 17.8823L210.434 17.8899L210.444 17.8973C210.564 17.9926 210.775 18.2462 210.897 18.9244L210.897 18.9283C211.035 19.683 211.113 20.7427 211.113 22.14V34.96V36.46H212.613H215.973H217.473V34.96V19.66C217.473 17.4805 216.942 15.5696 215.691 14.1221C214.365 12.572 212.359 11.96 210.053 11.96C208.594 11.96 207.131 12.3134 205.677 12.9725C205.201 13.1857 204.749 13.4298 204.322 13.7046L204.206 12.4H202.833H199.973H198.473V13.9V34.96Z"
        stroke="#DFDF24" stroke-width="3" />
    <path
        d="M189.789 35.2488L189.791 35.2471C191.389 34.1237 192.58 32.5897 193.372 30.7001C194.156 28.8306 194.529 26.7273 194.529 24.42C194.529 22.0466 194.167 19.9112 193.396 18.0503C192.628 16.1637 191.442 14.6496 189.825 13.5748C188.192 12.4666 186.223 11.96 184.009 11.96C181.794 11.96 179.817 12.4868 178.161 13.6223C176.553 14.7214 175.359 16.2479 174.565 18.1399C173.781 20.0115 173.409 22.1287 173.409 24.46C173.409 26.8119 173.772 28.9397 174.541 30.8106L174.544 30.8173L174.547 30.8241C175.342 32.7053 176.54 34.2194 178.151 35.3043C179.794 36.4106 181.762 36.92 183.969 36.92C186.183 36.92 188.154 36.3933 189.789 35.2488ZM186.81 29.7938L186.81 29.7938L186.804 29.8023C186.213 30.6812 185.351 31.16 183.969 31.16C182.588 31.16 181.716 30.6821 181.11 29.798C180.453 28.8183 180.009 27.1192 180.009 24.46C180.009 21.7384 180.462 20.0306 181.122 19.0731C181.742 18.1796 182.627 17.7 184.009 17.7C185.373 17.7 186.23 18.1753 186.824 19.0577L186.824 19.0577L186.828 19.0635C187.482 20.0244 187.929 21.7248 187.929 24.42C187.929 27.1105 187.477 28.8184 186.81 29.7938Z"
        stroke="#DFDF24" stroke-width="3" />
    <path
        d="M165.805 35.2488L165.807 35.2471C167.405 34.1237 168.595 32.5897 169.388 30.7001C170.172 28.8306 170.544 26.7273 170.544 24.42C170.544 22.0466 170.183 19.9112 169.412 18.0503C168.644 16.1637 167.458 14.6496 165.841 13.5748C164.207 12.4666 162.238 11.96 160.024 11.96C157.809 11.96 155.832 12.4868 154.177 13.6223C152.569 14.7214 151.374 16.2479 150.581 18.1399C149.796 20.0115 149.424 22.1287 149.424 24.46C149.424 26.8119 149.788 28.9397 150.557 30.8106L150.56 30.8173L150.563 30.8241C151.358 32.7053 152.555 34.2194 154.167 35.3043C155.81 36.4106 157.778 36.92 159.984 36.92C162.199 36.92 164.17 36.3933 165.805 35.2488ZM162.826 29.7938L162.826 29.7938L162.82 29.8023C162.228 30.6812 161.367 31.16 159.984 31.16C158.604 31.16 157.731 30.6821 157.126 29.798C156.468 28.8183 156.024 27.1192 156.024 24.46C156.024 21.7384 156.478 20.0306 157.138 19.0731C157.758 18.1796 158.642 17.7 160.024 17.7C161.389 17.7 162.246 18.1753 162.84 19.0577L162.84 19.0577L162.844 19.0635C163.497 20.0244 163.944 21.7248 163.944 24.42C163.944 27.1105 163.492 28.8184 162.826 29.7938Z"
        stroke="#DFDF24" stroke-width="3" />
    <path
        d="M126.52 34.96V36.46H128.02H131.38H132.88V34.96V20.1083C133.14 19.7746 133.45 19.4336 133.815 19.0862L133.815 19.0856C134.277 18.6449 134.799 18.2781 135.386 17.9842C135.909 17.7279 136.462 17.6 137.06 17.6C137.984 17.6 138.356 17.7879 138.472 17.8823L138.481 17.8899L138.491 17.8973C138.611 17.9926 138.822 18.2462 138.944 18.9244L138.944 18.9283C139.081 19.683 139.16 20.7427 139.16 22.14V34.96V36.46H140.66H144.02H145.52V34.96V19.66C145.52 17.4805 144.989 15.5696 143.737 14.1221C142.412 12.572 140.406 11.96 138.1 11.96C136.641 11.96 135.178 12.3134 133.724 12.9725C133.248 13.1857 132.796 13.4298 132.369 13.7046L132.252 12.4H130.88H128.02H126.52V13.9V34.96Z"
        stroke="#DFDF24" stroke-width="3" />
    <path
        d="M102.736 36.46V34.96V32.38V30.88H104.236H106.016V17.98H104.236H102.736V16.48V13.9V12.4H104.236H110.076H111.4L111.564 13.7147L111.682 14.6625C112.006 14.3133 112.348 13.9913 112.707 13.6979M102.736 36.46L112.707 13.6979M102.736 36.46H104.236H115.156H116.656V34.96V32.38V30.88H115.156H112.376M102.736 36.46L112.376 30.88M112.707 13.6979C114.201 12.4787 116.1 11.94 118.256 11.94C118.909 11.94 119.525 11.9909 120.093 12.1057M112.707 13.6979L120.093 12.1057M120.093 12.1057C120.538 12.1827 120.985 12.2809 121.435 12.4H122.84L122.814 12.7818L123.149 12.8746L122.72 14.1878L122.252 21.1209L122.158 22.52H120.756H117.996H116.496V21.02V18.2282C115.841 18.4286 115.252 18.7915 114.71 19.3268C113.824 20.2025 113.019 21.6096 112.376 23.6833V30.88M120.093 12.1057L112.376 30.88"
        stroke="#DFDF24" stroke-width="3" />
    <path
        d="M92.0736 21.52H84.4078C84.6532 20.2874 85.074 19.4519 85.5812 18.9106C86.344 18.1108 87.2539 17.72 88.4113 17.72C89.5847 17.72 90.414 18.1191 91.0545 18.895L91.0545 18.895L91.06 18.9016C91.5249 19.4582 91.8935 20.2989 92.0736 21.52ZM84.9501 28.9053C84.6954 28.4314 84.4916 27.8421 84.3574 27.12H96.8513H98.1938L98.3421 25.7856C98.3733 25.5047 98.3954 25.1969 98.4098 24.8651L98.41 24.8624C98.4243 24.5193 98.4313 24.1583 98.4313 23.78C98.4313 21.4918 98.0604 19.4397 97.2613 17.6692C96.4773 15.8892 95.3184 14.4645 93.7697 13.4629C92.2094 12.4404 90.3877 11.96 88.3713 11.96C86.2382 11.96 84.313 12.5055 82.6599 13.645L83.5113 14.88L82.6599 13.645C81.0445 14.7585 79.8105 16.278 78.9484 18.1535C78.0838 20.0344 77.6713 22.1473 77.6713 24.46C77.6713 26.8048 78.0743 28.9355 78.9242 30.8174L78.9272 30.824L78.9303 30.8307C79.8033 32.7145 81.0884 34.2209 82.7837 35.304C84.5082 36.4058 86.5412 36.92 88.8113 36.92C90.3007 36.92 91.7546 36.6713 93.1658 36.1761C94.577 35.6856 95.8514 35.0025 96.9766 34.1206L98.1038 33.2371L97.2734 32.0702L95.6934 29.8502L94.8413 28.653L93.6268 29.4803C92.7912 30.0495 92.0018 30.4601 91.2586 30.7303L91.2586 30.7303L91.2517 30.7328C90.5769 30.982 89.7833 31.12 88.8513 31.12C88.0058 31.12 87.2477 30.9351 86.5528 30.5741C85.9241 30.2351 85.3857 29.7027 84.9501 28.9053Z"
        stroke="#DFDF24" stroke-width="3" />
    <path
        d="M73.619 35.1481L74.7828 34.3722L74.09 33.157L72.79 30.877L72.0799 29.6317L70.8037 30.2846C70.3258 30.5291 69.8 30.7339 69.2225 30.8956C68.704 31.0407 68.1151 31.12 67.4469 31.12C66.1709 31.12 65.6178 30.8407 65.4015 30.6332C65.1594 30.3875 64.9269 29.9321 64.9269 29.02V18H70.3069H71.5938L71.7895 16.7281L72.1895 14.1281L72.4554 12.4H70.7069H64.9269V8.72V7.03084L63.2496 7.23052L59.8896 7.63052L58.5669 7.78798V9.12V12.4H55.2269H53.7269V13.9V16.5V18H55.2269H58.5669V29.06C58.5669 31.291 59.3162 33.2208 60.864 34.7181C62.4524 36.2547 64.6225 36.92 67.1469 36.92C68.27 36.92 69.4034 36.7681 70.544 36.4718C71.6974 36.1723 72.7324 35.7391 73.619 35.1481Z"
        stroke="#DFDF24" stroke-width="3" />
    <path
        d="M51.5995 6.73486L52.1926 5.36189L50.8214 4.76475C49.9006 4.36376 48.9331 4.05422 47.9212 3.83424C46.8778 3.60743 45.7421 3.5 44.5225 3.5C42.8905 3.5 41.3725 3.79223 39.9955 4.40829C38.6133 5.01324 37.4736 5.90242 36.6242 7.0849L36.6242 7.08486L36.6161 7.09633C35.749 8.32762 35.3425 9.76546 35.3425 11.34V14.04H31.8225H30.3225V15.54V18.18V19.68H31.8225H35.3425V34.96V36.46H36.8425H40.2025H41.7025V34.96V19.68H46.9825H48.2918L48.4688 18.3827L48.8288 15.7427L49.0609 14.04H47.3425H41.7025V11.26C41.7025 10.4015 41.9504 10.0198 42.2214 9.80567C42.5972 9.51983 43.3193 9.26 44.6225 9.26C45.3453 9.26 46.0366 9.32512 46.6983 9.45282C47.3566 9.57987 47.9723 9.76882 48.5484 10.0173L49.925 10.6111L50.5195 9.23486L51.5995 6.73486Z"
        stroke="#DFDF24" stroke-width="3" />
    <path
        d="M15.8024 5.91998H13.8581H12.7687L12.4317 6.95591L3.47166 34.4959L2.83266 36.46H4.89807H8.31807H9.41992L9.74943 35.4086L11.6199 29.44H20.3162L22.1867 35.4086L22.5162 36.46H23.6181H27.2581H29.3235L28.6845 34.4959L19.7245 6.95591L19.3874 5.91998H18.2981H16.21L16.0075 5.26069L15.8024 5.91998ZM13.4557 23.56L15.9886 15.4193L18.4883 23.56H13.4557Z"
        stroke="#DFDF24" stroke-width="3" />
</svg>