<svg width="305" xmlns="http://www.w3.org/2000/svg" height="294" viewBox="-27 -27 305 294" fill="none"><defs><filter id="a" x="-1.272" y="-1.273" width="4.037" height="4.038" filterUnits="objectBoundingBox" color-interpolation-filters="sRGB"><feFlood flood-opacity="0" result="BackgroundImageFix"/><feColorMatrix in="SourceAlpha" values="0 0 0 0 0 0 0 0 0 0 0 0 0 0 0 0 0 0 127 0"/><feOffset dx="4" dy="4"/><feGaussianBlur stdDeviation="2"/><feColorMatrix values="0 0 0 0 0 0 0 0 0 0 0 0 0 0 0 0 0 0 0.2 0"/><feBlend in2="BackgroundImageFix" result="filter_e3f8f774-1dd2-807f-8005-a3c13c8c34fb"/><feBlend in="SourceGraphic" in2="filter_e3f8f774-1dd2-807f-8005-a3c13c8c34fb" result="shape"/></filter></defs><path d="M223.585,172.435L211.505,184.513C211.480,184.538,211.453,184.560,211.424,184.579C211.395,184.598,211.365,184.614,211.333,184.628C211.300,184.641,211.267,184.651,211.233,184.658C211.199,184.665,211.164,184.668,211.130,184.668C211.095,184.668,211.060,184.665,211.026,184.658C210.992,184.651,210.959,184.641,210.927,184.628C210.895,184.614,210.864,184.598,210.835,184.579C210.806,184.560,210.779,184.538,210.755,184.513L199.531,173.291C199.507,173.267,199.485,173.240,199.465,173.211C199.446,173.183,199.430,173.152,199.417,173.120C199.403,173.088,199.393,173.055,199.387,173.021C199.380,172.987,199.376,172.953,199.376,172.918C199.376,172.883,199.380,172.849,199.387,172.815C199.393,172.781,199.403,172.748,199.417,172.716C199.430,172.684,199.446,172.654,199.465,172.625C199.485,172.596,199.507,172.569,199.531,172.545L211.611,160.467C211.636,160.442,211.663,160.420,211.692,160.401C211.721,160.382,211.751,160.365,211.783,160.352C211.816,160.339,211.849,160.329,211.883,160.322C211.917,160.315,211.951,160.312,211.986,160.312C212.021,160.312,212.056,160.315,212.090,160.322C212.124,160.329,212.157,160.339,212.189,160.352C212.221,160.365,212.252,160.382,212.281,160.401C212.310,160.420,212.337,160.442,212.361,160.467L223.585,171.688C223.609,171.713,223.631,171.740,223.651,171.768C223.670,171.797,223.686,171.828,223.699,171.860C223.713,171.892,223.723,171.925,223.729,171.959C223.736,171.993,223.740,172.027,223.740,172.062C223.740,172.096,223.736,172.131,223.729,172.165C223.723,172.199,223.713,172.232,223.699,172.264C223.686,172.296,223.670,172.326,223.651,172.355C223.631,172.384,223.609,172.410,223.585,172.435ZZ" filter="url(#a)" style="fill: rgb(58, 97, 107); fill-opacity: 0;" fill="none" class="fills"/><g fill-rule="evenodd" class="strokes"><g class="outer-stroke-shape"><defs><mask id="c" x="195.755" y="156.69" width="31.606" height="31.599" maskUnits="userSpaceOnUse"><use href="#b" style="fill: none; stroke: white; stroke-width: 3;"/><use href="#b" style="fill: black; stroke: none;"/></mask><path d="M223.585,172.435L211.505,184.513C211.480,184.538,211.453,184.560,211.424,184.579C211.395,184.598,211.365,184.614,211.333,184.628C211.300,184.641,211.267,184.651,211.233,184.658C211.199,184.665,211.164,184.668,211.130,184.668C211.095,184.668,211.060,184.665,211.026,184.658C210.992,184.651,210.959,184.641,210.927,184.628C210.895,184.614,210.864,184.598,210.835,184.579C210.806,184.560,210.779,184.538,210.755,184.513L199.531,173.291C199.507,173.267,199.485,173.240,199.465,173.211C199.446,173.183,199.430,173.152,199.417,173.120C199.403,173.088,199.393,173.055,199.387,173.021C199.380,172.987,199.376,172.953,199.376,172.918C199.376,172.883,199.380,172.849,199.387,172.815C199.393,172.781,199.403,172.748,199.417,172.716C199.430,172.684,199.446,172.654,199.465,172.625C199.485,172.596,199.507,172.569,199.531,172.545L211.611,160.467C211.636,160.442,211.663,160.420,211.692,160.401C211.721,160.382,211.751,160.365,211.783,160.352C211.816,160.339,211.849,160.329,211.883,160.322C211.917,160.315,211.951,160.312,211.986,160.312C212.021,160.312,212.056,160.315,212.090,160.322C212.124,160.329,212.157,160.339,212.189,160.352C212.221,160.365,212.252,160.382,212.281,160.401C212.310,160.420,212.337,160.442,212.361,160.467L223.585,171.688C223.609,171.713,223.631,171.740,223.651,171.768C223.670,171.797,223.686,171.828,223.699,171.860C223.713,171.892,223.723,171.925,223.729,171.959C223.736,171.993,223.740,172.027,223.740,172.062C223.740,172.096,223.736,172.131,223.729,172.165C223.723,172.199,223.713,172.232,223.699,172.264C223.686,172.296,223.670,172.326,223.651,172.355C223.631,172.384,223.609,172.410,223.585,172.435ZZ" id="b"/></defs><use href="#b" mask="url(#c)" style="fill: none; stroke-width: 3; stroke: rgb(0, 0, 0); stroke-opacity: 1;"/><use href="#b" style="fill: none; stroke-width: 1.5; stroke: none; stroke-opacity: 1;"/></g></g><defs><filter id="d" x="-1.161" y="-1.161" width="3.77" height="3.771" filterUnits="objectBoundingBox" color-interpolation-filters="sRGB"><feFlood flood-opacity="0" result="BackgroundImageFix"/><feColorMatrix in="SourceAlpha" values="0 0 0 0 0 0 0 0 0 0 0 0 0 0 0 0 0 0 127 0"/><feOffset dx="4" dy="4"/><feGaussianBlur stdDeviation="2"/><feColorMatrix values="0 0 0 0 0 0 0 0 0 0 0 0 0 0 0 0 0 0 0.2 0"/><feBlend in2="BackgroundImageFix" result="filter_e3f8f774-1dd2-807f-8005-a3c13c8c34fb"/><feBlend in="SourceGraphic" in2="filter_e3f8f774-1dd2-807f-8005-a3c13c8c34fb" result="shape"/></filter></defs><path d="M149.994,80.292L136.699,93.584C136.675,93.608,136.648,93.630,136.619,93.650C136.590,93.669,136.560,93.685,136.528,93.699C136.495,93.712,136.462,93.722,136.428,93.729C136.394,93.735,136.359,93.739,136.325,93.739C136.290,93.739,136.255,93.735,136.221,93.729C136.187,93.722,136.154,93.712,136.122,93.699C136.089,93.685,136.059,93.669,136.030,93.650C136.001,93.630,135.974,93.608,135.950,93.584L123.593,81.229C123.568,81.205,123.547,81.178,123.527,81.149C123.508,81.120,123.492,81.090,123.478,81.058C123.465,81.026,123.455,80.993,123.448,80.959C123.442,80.925,123.438,80.891,123.438,80.856C123.438,80.821,123.442,80.787,123.448,80.753C123.455,80.719,123.465,80.686,123.478,80.654C123.492,80.622,123.508,80.592,123.527,80.563C123.547,80.534,123.568,80.507,123.593,80.483L136.887,67.191C136.912,67.166,136.939,67.144,136.968,67.125C136.997,67.106,137.027,67.089,137.059,67.076C137.091,67.063,137.125,67.053,137.159,67.046C137.193,67.039,137.227,67.036,137.262,67.036C137.297,67.036,137.332,67.039,137.366,67.046C137.400,67.053,137.433,67.063,137.465,67.076C137.497,67.089,137.528,67.106,137.557,67.125C137.586,67.144,137.613,67.166,137.637,67.191L149.994,79.545C150.018,79.570,150.040,79.596,150.059,79.625C150.079,79.654,150.095,79.685,150.108,79.717C150.122,79.749,150.132,79.782,150.138,79.816C150.145,79.850,150.148,79.884,150.148,79.919C150.148,79.953,150.145,79.988,150.138,80.022C150.132,80.056,150.122,80.089,150.108,80.121C150.095,80.153,150.079,80.183,150.059,80.212C150.040,80.241,150.018,80.267,149.994,80.292ZZ" filter="url(#d)" style="fill: rgb(99, 163, 180); fill-opacity: 0;" fill="none" class="fills"/><g fill-rule="evenodd" class="strokes"><g class="outer-stroke-shape"><defs><mask id="f" x="119.817" y="63.414" width="33.953" height="33.946" maskUnits="userSpaceOnUse"><use href="#e" style="fill: none; stroke: white; stroke-width: 3;"/><use href="#e" style="fill: black; stroke: none;"/></mask><path d="M149.994,80.292L136.699,93.584C136.675,93.608,136.648,93.630,136.619,93.650C136.590,93.669,136.560,93.685,136.528,93.699C136.495,93.712,136.462,93.722,136.428,93.729C136.394,93.735,136.359,93.739,136.325,93.739C136.290,93.739,136.255,93.735,136.221,93.729C136.187,93.722,136.154,93.712,136.122,93.699C136.089,93.685,136.059,93.669,136.030,93.650C136.001,93.630,135.974,93.608,135.950,93.584L123.593,81.229C123.568,81.205,123.547,81.178,123.527,81.149C123.508,81.120,123.492,81.090,123.478,81.058C123.465,81.026,123.455,80.993,123.448,80.959C123.442,80.925,123.438,80.891,123.438,80.856C123.438,80.821,123.442,80.787,123.448,80.753C123.455,80.719,123.465,80.686,123.478,80.654C123.492,80.622,123.508,80.592,123.527,80.563C123.547,80.534,123.568,80.507,123.593,80.483L136.887,67.191C136.912,67.166,136.939,67.144,136.968,67.125C136.997,67.106,137.027,67.089,137.059,67.076C137.091,67.063,137.125,67.053,137.159,67.046C137.193,67.039,137.227,67.036,137.262,67.036C137.297,67.036,137.332,67.039,137.366,67.046C137.400,67.053,137.433,67.063,137.465,67.076C137.497,67.089,137.528,67.106,137.557,67.125C137.586,67.144,137.613,67.166,137.637,67.191L149.994,79.545C150.018,79.570,150.040,79.596,150.059,79.625C150.079,79.654,150.095,79.685,150.108,79.717C150.122,79.749,150.132,79.782,150.138,79.816C150.145,79.850,150.148,79.884,150.148,79.919C150.148,79.953,150.145,79.988,150.138,80.022C150.132,80.056,150.122,80.089,150.108,80.121C150.095,80.153,150.079,80.183,150.059,80.212C150.040,80.241,150.018,80.267,149.994,80.292ZZ" id="e"/></defs><use href="#e" mask="url(#f)" style="fill: none; stroke-width: 3; stroke: rgb(0, 0, 0); stroke-opacity: 1;"/><use href="#e" style="fill: none; stroke-width: 1.5; stroke: none; stroke-opacity: 1;"/></g></g><defs><filter id="g" x="-2.261" y="-2.261" width="6.396" height="6.398" filterUnits="objectBoundingBox" color-interpolation-filters="sRGB"><feFlood flood-opacity="0" result="BackgroundImageFix"/><feColorMatrix in="SourceAlpha" values="0 0 0 0 0 0 0 0 0 0 0 0 0 0 0 0 0 0 127 0"/><feOffset dx="4" dy="4"/><feGaussianBlur stdDeviation="2"/><feColorMatrix values="0 0 0 0 0 0 0 0 0 0 0 0 0 0 0 0 0 0 0.2 0"/><feBlend in2="BackgroundImageFix" result="filter_e3f8f774-1dd2-807f-8005-a3c13c8c34fb"/><feBlend in="SourceGraphic" in2="filter_e3f8f774-1dd2-807f-8005-a3c13c8c34fb" result="shape"/></filter></defs><path d="M238.349,7.294L232.089,13.553C232.065,13.577,232.038,13.599,232.009,13.619C231.980,13.638,231.950,13.654,231.918,13.668C231.885,13.681,231.852,13.691,231.818,13.698C231.784,13.705,231.749,13.708,231.715,13.708C231.680,13.708,231.645,13.705,231.611,13.698C231.577,13.691,231.544,13.681,231.512,13.668C231.480,13.654,231.449,13.638,231.420,13.619C231.391,13.599,231.364,13.577,231.340,13.553L224.946,7.160C224.921,7.136,224.900,7.109,224.880,7.080C224.861,7.052,224.845,7.021,224.831,6.989C224.818,6.957,224.808,6.924,224.801,6.890C224.795,6.856,224.791,6.822,224.791,6.787C224.791,6.752,224.795,6.718,224.801,6.684C224.808,6.650,224.818,6.617,224.831,6.585C224.845,6.553,224.861,6.523,224.880,6.494C224.900,6.465,224.921,6.438,224.946,6.414L231.206,0.155C231.230,0.131,231.257,0.109,231.286,0.089C231.315,0.070,231.346,0.054,231.378,0.040C231.410,0.027,231.443,0.017,231.477,0.010C231.511,0.003,231.546,0.000,231.581,0.000C231.615,0.000,231.650,0.003,231.684,0.010C231.718,0.017,231.751,0.027,231.783,0.040C231.816,0.054,231.846,0.070,231.875,0.089C231.904,0.109,231.931,0.131,231.955,0.155L238.349,6.548C238.374,6.572,238.396,6.599,238.415,6.628C238.434,6.657,238.450,6.687,238.464,6.719C238.477,6.751,238.487,6.784,238.494,6.818C238.501,6.852,238.504,6.886,238.504,6.921C238.504,6.956,238.501,6.990,238.494,7.024C238.487,7.058,238.477,7.091,238.464,7.123C238.450,7.155,238.434,7.185,238.415,7.214C238.396,7.243,238.374,7.270,238.349,7.294ZZ" filter="url(#g)" style="fill: rgb(99, 163, 180); fill-opacity: 0;" fill="none" class="fills"/><g fill-rule="evenodd" class="strokes"><g class="outer-stroke-shape"><defs><mask id="i" x="221.17" y="-3.621" width="20.955" height="20.951" maskUnits="userSpaceOnUse"><use href="#h" style="fill: none; stroke: white; stroke-width: 3;"/><use href="#h" style="fill: black; stroke: none;"/></mask><path d="M238.349,7.294L232.089,13.553C232.065,13.577,232.038,13.599,232.009,13.619C231.980,13.638,231.950,13.654,231.918,13.668C231.885,13.681,231.852,13.691,231.818,13.698C231.784,13.705,231.749,13.708,231.715,13.708C231.680,13.708,231.645,13.705,231.611,13.698C231.577,13.691,231.544,13.681,231.512,13.668C231.480,13.654,231.449,13.638,231.420,13.619C231.391,13.599,231.364,13.577,231.340,13.553L224.946,7.160C224.921,7.136,224.900,7.109,224.880,7.080C224.861,7.052,224.845,7.021,224.831,6.989C224.818,6.957,224.808,6.924,224.801,6.890C224.795,6.856,224.791,6.822,224.791,6.787C224.791,6.752,224.795,6.718,224.801,6.684C224.808,6.650,224.818,6.617,224.831,6.585C224.845,6.553,224.861,6.523,224.880,6.494C224.900,6.465,224.921,6.438,224.946,6.414L231.206,0.155C231.230,0.131,231.257,0.109,231.286,0.089C231.315,0.070,231.346,0.054,231.378,0.040C231.410,0.027,231.443,0.017,231.477,0.010C231.511,0.003,231.546,0.000,231.581,0.000C231.615,0.000,231.650,0.003,231.684,0.010C231.718,0.017,231.751,0.027,231.783,0.040C231.816,0.054,231.846,0.070,231.875,0.089C231.904,0.109,231.931,0.131,231.955,0.155L238.349,6.548C238.374,6.572,238.396,6.599,238.415,6.628C238.434,6.657,238.450,6.687,238.464,6.719C238.477,6.751,238.487,6.784,238.494,6.818C238.501,6.852,238.504,6.886,238.504,6.921C238.504,6.956,238.501,6.990,238.494,7.024C238.487,7.058,238.477,7.091,238.464,7.123C238.450,7.155,238.434,7.185,238.415,7.214C238.396,7.243,238.374,7.270,238.349,7.294ZZ" id="h"/></defs><use href="#h" mask="url(#i)" style="fill: none; stroke-width: 3; stroke: rgb(0, 0, 0); stroke-opacity: 1;"/><use href="#h" style="fill: none; stroke-width: 1.5; stroke: none; stroke-opacity: 1;"/></g></g><defs><filter id="j" x="-.757" y="-.757" width="2.807" height="2.807" filterUnits="objectBoundingBox" color-interpolation-filters="sRGB"><feFlood flood-opacity="0" result="BackgroundImageFix"/><feColorMatrix in="SourceAlpha" values="0 0 0 0 0 0 0 0 0 0 0 0 0 0 0 0 0 0 127 0"/><feOffset dx="4" dy="4"/><feGaussianBlur stdDeviation="2"/><feColorMatrix values="0 0 0 0 0 0 0 0 0 0 0 0 0 0 0 0 0 0 0.2 0"/><feBlend in2="BackgroundImageFix" result="filter_e3f8f774-1dd2-807f-8005-a3c13c8c34fb"/><feBlend in="SourceGraphic" in2="filter_e3f8f774-1dd2-807f-8005-a3c13c8c34fb" result="shape"/></filter></defs><path d="M57.583,199.890L38.258,219.211C38.233,219.237,38.205,219.262,38.177,219.285C38.149,219.308,38.119,219.330,38.089,219.350C38.058,219.371,38.027,219.389,37.995,219.407C37.962,219.424,37.929,219.440,37.895,219.454C37.861,219.468,37.827,219.480,37.792,219.491C37.757,219.501,37.721,219.510,37.685,219.517C37.649,219.524,37.613,219.530,37.577,219.533C37.540,219.537,37.503,219.539,37.467,219.539C37.430,219.539,37.394,219.537,37.357,219.533C37.321,219.530,37.284,219.524,37.248,219.517C37.212,219.510,37.177,219.501,37.142,219.491C37.107,219.480,37.072,219.468,37.038,219.454C37.004,219.440,36.971,219.424,36.939,219.407C36.907,219.389,36.875,219.371,36.845,219.350C36.814,219.330,36.785,219.308,36.757,219.285C36.728,219.262,36.701,219.237,36.675,219.211L17.276,199.815C17.250,199.789,17.225,199.762,17.202,199.734C17.179,199.706,17.157,199.677,17.137,199.646C17.116,199.616,17.098,199.585,17.080,199.552C17.063,199.520,17.048,199.487,17.034,199.454C17.020,199.420,17.007,199.385,16.997,199.351C16.986,199.316,16.977,199.280,16.970,199.244C16.963,199.209,16.958,199.173,16.954,199.136C16.951,199.100,16.949,199.063,16.949,199.027C16.949,198.990,16.951,198.954,16.954,198.918C16.958,198.881,16.963,198.845,16.970,198.809C16.977,198.774,16.986,198.738,16.997,198.703C17.007,198.668,17.020,198.634,17.034,198.600C17.048,198.567,17.063,198.534,17.080,198.502C17.098,198.469,17.116,198.438,17.137,198.408C17.157,198.377,17.179,198.348,17.202,198.320C17.225,198.292,17.250,198.265,17.276,198.239L36.600,178.918C36.626,178.892,36.653,178.867,36.682,178.844C36.710,178.821,36.739,178.799,36.770,178.778C36.800,178.758,36.832,178.739,36.864,178.722C36.896,178.705,36.930,178.689,36.963,178.675C36.997,178.661,37.032,178.649,37.067,178.638C37.102,178.627,37.138,178.619,37.173,178.611C37.209,178.604,37.246,178.599,37.282,178.595C37.319,178.592,37.355,178.590,37.392,178.590C37.429,178.590,37.465,178.592,37.502,178.595C37.538,178.599,37.574,178.604,37.610,178.611C37.646,178.619,37.682,178.627,37.717,178.638C37.752,178.649,37.787,178.661,37.820,178.675C37.854,178.689,37.887,178.705,37.920,178.722C37.952,178.739,37.984,178.758,38.014,178.778C38.044,178.799,38.074,178.821,38.102,178.844C38.131,178.867,38.158,178.892,38.184,178.918L57.583,198.314C57.609,198.339,57.633,198.366,57.657,198.395C57.680,198.423,57.702,198.452,57.722,198.483C57.742,198.513,57.761,198.544,57.778,198.576C57.795,198.609,57.811,198.642,57.825,198.675C57.839,198.709,57.851,198.743,57.862,198.778C57.873,198.813,57.881,198.849,57.889,198.884C57.896,198.920,57.901,198.956,57.905,198.993C57.908,199.029,57.910,199.065,57.910,199.102C57.910,199.138,57.908,199.175,57.905,199.211C57.901,199.247,57.896,199.283,57.889,199.319C57.881,199.355,57.873,199.390,57.862,199.425C57.851,199.460,57.839,199.495,57.825,199.528C57.811,199.562,57.795,199.595,57.778,199.627C57.761,199.659,57.742,199.691,57.722,199.721C57.702,199.752,57.680,199.781,57.657,199.809C57.633,199.837,57.609,199.864,57.583,199.890ZZ" filter="url(#j)" style="fill: rgb(99, 163, 180); fill-opacity: 0;" fill="none" class="fills"/><g fill-rule="evenodd" class="strokes"><g class="outer-stroke-shape"><defs><mask id="l" x="13.327" y="174.969" width="48.204" height="48.192" maskUnits="userSpaceOnUse"><use href="#k" style="fill: none; stroke: white; stroke-width: 3;"/><use href="#k" style="fill: black; stroke: none;"/></mask><path d="M57.583,199.890L38.258,219.211C38.233,219.237,38.205,219.262,38.177,219.285C38.149,219.308,38.119,219.330,38.089,219.350C38.058,219.371,38.027,219.389,37.995,219.407C37.962,219.424,37.929,219.440,37.895,219.454C37.861,219.468,37.827,219.480,37.792,219.491C37.757,219.501,37.721,219.510,37.685,219.517C37.649,219.524,37.613,219.530,37.577,219.533C37.540,219.537,37.503,219.539,37.467,219.539C37.430,219.539,37.394,219.537,37.357,219.533C37.321,219.530,37.284,219.524,37.248,219.517C37.212,219.510,37.177,219.501,37.142,219.491C37.107,219.480,37.072,219.468,37.038,219.454C37.004,219.440,36.971,219.424,36.939,219.407C36.907,219.389,36.875,219.371,36.845,219.350C36.814,219.330,36.785,219.308,36.757,219.285C36.728,219.262,36.701,219.237,36.675,219.211L17.276,199.815C17.250,199.789,17.225,199.762,17.202,199.734C17.179,199.706,17.157,199.677,17.137,199.646C17.116,199.616,17.098,199.585,17.080,199.552C17.063,199.520,17.048,199.487,17.034,199.454C17.020,199.420,17.007,199.385,16.997,199.351C16.986,199.316,16.977,199.280,16.970,199.244C16.963,199.209,16.958,199.173,16.954,199.136C16.951,199.100,16.949,199.063,16.949,199.027C16.949,198.990,16.951,198.954,16.954,198.918C16.958,198.881,16.963,198.845,16.970,198.809C16.977,198.774,16.986,198.738,16.997,198.703C17.007,198.668,17.020,198.634,17.034,198.600C17.048,198.567,17.063,198.534,17.080,198.502C17.098,198.469,17.116,198.438,17.137,198.408C17.157,198.377,17.179,198.348,17.202,198.320C17.225,198.292,17.250,198.265,17.276,198.239L36.600,178.918C36.626,178.892,36.653,178.867,36.682,178.844C36.710,178.821,36.739,178.799,36.770,178.778C36.800,178.758,36.832,178.739,36.864,178.722C36.896,178.705,36.930,178.689,36.963,178.675C36.997,178.661,37.032,178.649,37.067,178.638C37.102,178.627,37.138,178.619,37.173,178.611C37.209,178.604,37.246,178.599,37.282,178.595C37.319,178.592,37.355,178.590,37.392,178.590C37.429,178.590,37.465,178.592,37.502,178.595C37.538,178.599,37.574,178.604,37.610,178.611C37.646,178.619,37.682,178.627,37.717,178.638C37.752,178.649,37.787,178.661,37.820,178.675C37.854,178.689,37.887,178.705,37.920,178.722C37.952,178.739,37.984,178.758,38.014,178.778C38.044,178.799,38.074,178.821,38.102,178.844C38.131,178.867,38.158,178.892,38.184,178.918L57.583,198.314C57.609,198.339,57.633,198.366,57.657,198.395C57.680,198.423,57.702,198.452,57.722,198.483C57.742,198.513,57.761,198.544,57.778,198.576C57.795,198.609,57.811,198.642,57.825,198.675C57.839,198.709,57.851,198.743,57.862,198.778C57.873,198.813,57.881,198.849,57.889,198.884C57.896,198.920,57.901,198.956,57.905,198.993C57.908,199.029,57.910,199.065,57.910,199.102C57.910,199.138,57.908,199.175,57.905,199.211C57.901,199.247,57.896,199.283,57.889,199.319C57.881,199.355,57.873,199.390,57.862,199.425C57.851,199.460,57.839,199.495,57.825,199.528C57.811,199.562,57.795,199.595,57.778,199.627C57.761,199.659,57.742,199.691,57.722,199.721C57.702,199.752,57.680,199.781,57.657,199.809C57.633,199.837,57.609,199.864,57.583,199.890ZZ" id="k"/></defs><use href="#k" mask="url(#l)" style="fill: none; stroke-width: 3; stroke: rgb(0, 0, 0); stroke-opacity: 1;"/><use href="#k" style="fill: none; stroke-width: 1.5; stroke: none; stroke-opacity: 1;"/></g></g><g filter="url(#m)" style="fill: rgb(0, 0, 0);"><defs><filter id="m" x="-.967" y="-.968" width="3.365" height="3.365" filterUnits="objectBoundingBox" color-interpolation-filters="sRGB"><feFlood flood-opacity="0" result="BackgroundImageFix"/><feColorMatrix in="SourceAlpha" values="0 0 0 0 0 0 0 0 0 0 0 0 0 0 0 0 0 0 127 0"/><feOffset dx="4" dy="4"/><feGaussianBlur stdDeviation="2"/><feColorMatrix values="0 0 0 0 0 0 0 0 0 0 0 0 0 0 0 0 0 0 0.2 0"/><feBlend in2="BackgroundImageFix" result="filter_e3f8f774-1dd2-807f-8005-a3c13c8c34fb"/><feBlend in="SourceGraphic" in2="filter_e3f8f774-1dd2-807f-8005-a3c13c8c34fb" result="shape"/></filter></defs><path d="M235.075,31.645L221.675,45.043C221.650,45.068,221.623,45.090,221.594,45.109C221.565,45.129,221.535,45.145,221.503,45.158C221.470,45.172,221.437,45.182,221.403,45.188C221.369,45.195,221.335,45.199,221.300,45.199C221.265,45.199,221.230,45.195,221.196,45.188C221.162,45.182,221.129,45.172,221.097,45.158C221.065,45.145,221.034,45.129,221.005,45.109C220.976,45.090,220.949,45.068,220.925,45.043L207.474,31.595C207.449,31.570,207.427,31.543,207.408,31.515C207.389,31.486,207.372,31.455,207.359,31.423C207.346,31.391,207.336,31.358,207.329,31.324C207.322,31.290,207.319,31.256,207.319,31.221C207.319,31.187,207.322,31.152,207.329,31.118C207.336,31.084,207.346,31.051,207.359,31.019C207.372,30.987,207.389,30.957,207.408,30.928C207.427,30.899,207.449,30.873,207.474,30.848L220.874,17.450C220.899,17.425,220.926,17.404,220.955,17.384C220.983,17.365,221.014,17.349,221.046,17.335C221.078,17.322,221.112,17.312,221.146,17.305C221.180,17.298,221.214,17.295,221.249,17.295C221.284,17.295,221.318,17.298,221.353,17.305C221.387,17.312,221.420,17.322,221.452,17.335C221.484,17.349,221.515,17.365,221.544,17.384C221.573,17.404,221.599,17.425,221.624,17.450L235.075,30.899C235.100,30.923,235.122,30.950,235.141,30.979C235.160,31.008,235.176,31.038,235.190,31.070C235.203,31.102,235.213,31.135,235.220,31.169C235.227,31.203,235.230,31.237,235.230,31.272C235.230,31.307,235.227,31.341,235.220,31.375C235.213,31.409,235.203,31.442,235.190,31.474C235.176,31.506,235.160,31.536,235.141,31.565C235.122,31.594,235.100,31.621,235.075,31.645ZZ" fill-rule="evenodd" fill="none" fill-opacity="0" style="fill: rgb(99, 163, 180); fill-opacity: 1;" class="fills"/><path d="M221.675,45.043L235.075,31.645C235.100,31.621,235.122,31.594,235.141,31.565C235.160,31.536,235.176,31.506,235.190,31.474C235.203,31.442,235.213,31.409,235.220,31.375C235.227,31.341,235.230,31.307,235.230,31.272C235.230,31.237,235.227,31.203,235.220,31.169C235.213,31.135,235.203,31.102,235.190,31.070C235.176,31.038,235.160,31.008,235.141,30.979C235.122,30.950,235.100,30.923,235.075,30.899L221.624,17.450C221.574,17.400,221.517,17.362,221.452,17.335C221.387,17.308,221.319,17.295,221.249,17.295C221.179,17.295,221.111,17.308,221.046,17.335C220.981,17.362,220.924,17.400,220.874,17.450L207.474,30.848C207.449,30.873,207.427,30.899,207.408,30.928C207.389,30.957,207.372,30.987,207.359,31.019C207.346,31.051,207.336,31.084,207.329,31.118C207.322,31.152,207.319,31.187,207.319,31.221C207.319,31.256,207.322,31.290,207.329,31.324C207.336,31.358,207.346,31.391,207.359,31.423C207.372,31.455,207.389,31.486,207.408,31.515C207.427,31.543,207.449,31.570,207.474,31.595L220.925,45.043C220.975,45.093,221.032,45.131,221.097,45.158C221.162,45.185,221.230,45.199,221.300,45.199C221.370,45.199,221.438,45.185,221.503,45.158C221.568,45.131,221.625,45.093,221.675,45.043ZZM234.201,31.272L221.249,18.322L208.348,31.221L221.300,44.171L234.201,31.272ZZ" fill-rule="evenodd" fill="none" fill-opacity="0" style="fill: rgb(99, 163, 180); fill-opacity: 1;" class="fills"/></g><g filter="url(#n)" style="fill: rgb(0, 0, 0);"><defs><filter id="n" x="-.651" y="-.651" width="2.591" height="2.592" filterUnits="objectBoundingBox" color-interpolation-filters="sRGB"><feFlood flood-opacity="0" result="BackgroundImageFix"/><feColorMatrix in="SourceAlpha" values="0 0 0 0 0 0 0 0 0 0 0 0 0 0 0 0 0 0 127 0"/><feOffset dx="4" dy="4"/><feGaussianBlur stdDeviation="2"/><feColorMatrix values="0 0 0 0 0 0 0 0 0 0 0 0 0 0 0 0 0 0 0.2 0"/><feBlend in2="BackgroundImageFix" result="filter_e3f8f774-1dd2-807f-8005-a3c13c8c34fb"/><feBlend in="SourceGraphic" in2="filter_e3f8f774-1dd2-807f-8005-a3c13c8c34fb" result="shape"/></filter></defs><path d="M118.391,89.102L99.398,108.091C99.358,108.130,99.317,108.168,99.274,108.203C99.230,108.239,99.186,108.272,99.139,108.303C99.093,108.334,99.045,108.363,98.995,108.389C98.946,108.416,98.895,108.440,98.844,108.461C98.792,108.482,98.739,108.501,98.686,108.517C98.632,108.534,98.578,108.547,98.523,108.558C98.468,108.569,98.413,108.577,98.357,108.583C98.302,108.588,98.246,108.591,98.190,108.591C98.134,108.591,98.078,108.588,98.022,108.583C97.967,108.577,97.911,108.569,97.856,108.558C97.801,108.547,97.747,108.534,97.694,108.517C97.640,108.501,97.587,108.482,97.536,108.461C97.484,108.440,97.434,108.416,97.384,108.389C97.335,108.363,97.287,108.334,97.240,108.303C97.194,108.272,97.149,108.239,97.106,108.203C97.063,108.168,97.021,108.130,96.982,108.091L77.912,89.025C77.873,88.986,77.835,88.944,77.800,88.901C77.764,88.858,77.731,88.813,77.700,88.767C77.669,88.721,77.641,88.673,77.614,88.624C77.588,88.575,77.564,88.524,77.543,88.473C77.522,88.421,77.503,88.369,77.487,88.316C77.470,88.262,77.457,88.208,77.446,88.154C77.435,88.099,77.427,88.044,77.422,87.989C77.416,87.933,77.413,87.878,77.413,87.822C77.413,87.766,77.416,87.711,77.422,87.655C77.427,87.600,77.435,87.545,77.446,87.490C77.457,87.435,77.470,87.381,77.487,87.328C77.503,87.275,77.522,87.222,77.543,87.171C77.564,87.119,77.588,87.069,77.614,87.020C77.641,86.971,77.669,86.923,77.700,86.877C77.731,86.830,77.764,86.786,77.800,86.742C77.835,86.699,77.873,86.658,77.912,86.619L96.905,67.629C96.944,67.590,96.986,67.552,97.029,67.517C97.072,67.482,97.117,67.448,97.164,67.417C97.210,67.386,97.258,67.357,97.307,67.331C97.357,67.305,97.407,67.281,97.459,67.259C97.511,67.238,97.563,67.219,97.617,67.203C97.671,67.187,97.725,67.173,97.780,67.162C97.835,67.151,97.890,67.143,97.946,67.138C98.001,67.132,98.057,67.129,98.113,67.129C98.169,67.129,98.225,67.132,98.281,67.138C98.336,67.143,98.392,67.151,98.447,67.162C98.501,67.173,98.556,67.187,98.609,67.203C98.663,67.219,98.715,67.238,98.767,67.259C98.819,67.281,98.869,67.305,98.919,67.331C98.968,67.357,99.016,67.386,99.063,67.417C99.109,67.448,99.154,67.482,99.197,67.517C99.240,67.552,99.282,67.590,99.321,67.629L118.391,86.695C118.430,86.735,118.468,86.776,118.503,86.819C118.538,86.862,118.572,86.907,118.603,86.953C118.634,87.000,118.662,87.047,118.688,87.096C118.715,87.146,118.739,87.196,118.760,87.247C118.781,87.299,118.800,87.351,118.816,87.405C118.832,87.458,118.846,87.512,118.857,87.567C118.868,87.621,118.876,87.676,118.881,87.732C118.887,87.787,118.890,87.843,118.890,87.898C118.890,87.954,118.887,88.010,118.881,88.065C118.876,88.121,118.868,88.176,118.857,88.230C118.846,88.285,118.832,88.339,118.816,88.392C118.800,88.446,118.781,88.498,118.760,88.550C118.739,88.601,118.715,88.651,118.688,88.700C118.662,88.750,118.634,88.797,118.603,88.844C118.572,88.890,118.538,88.935,118.503,88.978C118.468,89.021,118.430,89.062,118.391,89.102ZZ" fill-rule="evenodd" fill="none" fill-opacity="0" style="fill: rgb(99, 163, 180); fill-opacity: 1;" class="fills"/><path d="M99.398,108.091L118.391,89.102C118.430,89.062,118.468,89.021,118.503,88.978C118.538,88.935,118.572,88.890,118.603,88.844C118.634,88.797,118.662,88.750,118.688,88.700C118.715,88.651,118.739,88.601,118.760,88.550C118.781,88.498,118.800,88.446,118.816,88.392C118.832,88.339,118.846,88.285,118.857,88.230C118.868,88.176,118.876,88.121,118.881,88.065C118.887,88.010,118.890,87.954,118.890,87.898C118.890,87.843,118.887,87.787,118.881,87.732C118.876,87.676,118.868,87.621,118.857,87.567C118.846,87.512,118.832,87.458,118.816,87.405C118.800,87.351,118.781,87.299,118.760,87.247C118.739,87.196,118.715,87.146,118.688,87.096C118.662,87.047,118.634,87.000,118.603,86.953C118.572,86.907,118.538,86.862,118.503,86.819C118.468,86.776,118.430,86.735,118.391,86.695L99.321,67.629C99.242,67.550,99.156,67.479,99.062,67.417C98.969,67.355,98.871,67.302,98.767,67.259C98.663,67.216,98.556,67.184,98.446,67.162C98.336,67.140,98.225,67.129,98.113,67.129C98.001,67.129,97.890,67.140,97.780,67.162C97.670,67.184,97.563,67.216,97.459,67.259C97.355,67.302,97.257,67.355,97.164,67.417C97.070,67.479,96.984,67.550,96.905,67.629L77.912,86.619C77.873,86.658,77.835,86.699,77.800,86.742C77.764,86.786,77.731,86.830,77.700,86.877C77.669,86.923,77.641,86.971,77.614,87.020C77.588,87.069,77.564,87.119,77.543,87.171C77.522,87.222,77.503,87.275,77.487,87.328C77.470,87.381,77.457,87.435,77.446,87.490C77.435,87.545,77.427,87.600,77.422,87.655C77.416,87.711,77.413,87.766,77.413,87.822C77.413,87.878,77.416,87.933,77.422,87.989C77.427,88.044,77.435,88.099,77.446,88.154C77.457,88.208,77.470,88.262,77.487,88.316C77.503,88.369,77.522,88.421,77.543,88.473C77.564,88.524,77.588,88.575,77.614,88.624C77.641,88.673,77.669,88.721,77.700,88.767C77.731,88.813,77.764,88.858,77.800,88.901C77.835,88.944,77.873,88.986,77.912,89.025L96.982,108.091C97.061,108.170,97.147,108.241,97.240,108.303C97.334,108.365,97.432,108.418,97.536,108.461C97.639,108.504,97.746,108.536,97.856,108.558C97.966,108.580,98.077,108.591,98.190,108.591C98.302,108.591,98.413,108.580,98.523,108.558C98.633,108.536,98.740,108.504,98.844,108.461C98.947,108.418,99.046,108.365,99.139,108.303C99.232,108.241,99.319,108.170,99.398,108.091ZZM117.766,87.317C118.153,87.705,118.153,88.092,117.766,88.479L98.773,107.469C98.612,107.630,98.418,107.710,98.190,107.710C97.962,107.710,97.768,107.630,97.606,107.469L78.537,88.403C78.150,88.016,78.150,87.628,78.537,87.241L97.530,68.252C97.691,68.091,97.885,68.010,98.113,68.010C98.341,68.010,98.535,68.091,98.696,68.252L117.766,87.317ZZ" fill-rule="evenodd" fill="none" fill-opacity="0" style="fill: rgb(99, 163, 180); fill-opacity: 1;" class="fills"/></g><g filter="url(#o)" style="fill: rgb(0, 0, 0);"><defs><filter id="o" x="-1.311" y="-1.314" width="4.204" height="4.211" filterUnits="objectBoundingBox" color-interpolation-filters="sRGB"><feFlood flood-opacity="0" result="BackgroundImageFix"/><feColorMatrix in="SourceAlpha" values="0 0 0 0 0 0 0 0 0 0 0 0 0 0 0 0 0 0 127 0"/><feOffset dx="4" dy="4"/><feGaussianBlur stdDeviation="2"/><feColorMatrix values="0 0 0 0 0 0 0 0 0 0 0 0 0 0 0 0 0 0 0.2 0"/><feBlend in2="BackgroundImageFix" result="filter_e3f8f774-1dd2-807f-8005-a3c13c8c34fb"/><feBlend in="SourceGraphic" in2="filter_e3f8f774-1dd2-807f-8005-a3c13c8c34fb" result="shape"/></filter></defs><path d="M229.463,117.005L220.030,126.419C220.010,126.438,219.990,126.457,219.968,126.475C219.947,126.492,219.925,126.509,219.902,126.524C219.878,126.539,219.855,126.554,219.830,126.567C219.806,126.580,219.781,126.592,219.755,126.602C219.729,126.613,219.703,126.622,219.676,126.630C219.650,126.638,219.623,126.645,219.596,126.650C219.568,126.656,219.541,126.660,219.513,126.663C219.486,126.665,219.458,126.667,219.430,126.667C219.402,126.667,219.375,126.665,219.347,126.663C219.319,126.660,219.292,126.656,219.264,126.650C219.237,126.645,219.210,126.638,219.184,126.630C219.157,126.622,219.131,126.613,219.105,126.602C219.080,126.592,219.054,126.580,219.030,126.567C219.005,126.554,218.982,126.539,218.959,126.524C218.935,126.509,218.913,126.492,218.892,126.475C218.870,126.457,218.850,126.438,218.830,126.419L209.360,116.967C209.340,116.948,209.321,116.927,209.304,116.906C209.286,116.885,209.270,116.862,209.254,116.839C209.239,116.816,209.225,116.793,209.212,116.768C209.199,116.744,209.187,116.719,209.176,116.694C209.166,116.668,209.156,116.642,209.148,116.616C209.140,116.589,209.133,116.562,209.128,116.535C209.123,116.508,209.119,116.481,209.116,116.453C209.113,116.426,209.112,116.398,209.112,116.371C209.112,116.343,209.113,116.316,209.116,116.288C209.119,116.261,209.123,116.233,209.128,116.206C209.133,116.179,209.140,116.152,209.148,116.126C209.156,116.100,209.166,116.074,209.176,116.048C209.187,116.023,209.199,115.998,209.212,115.973C209.225,115.949,209.239,115.925,209.254,115.902C209.270,115.879,209.286,115.857,209.304,115.836C209.321,115.814,209.340,115.794,209.360,115.774L218.792,106.361C218.812,106.341,218.832,106.323,218.854,106.305C218.875,106.288,218.897,106.271,218.920,106.256C218.944,106.240,218.967,106.226,218.992,106.213C219.016,106.200,219.042,106.188,219.067,106.177C219.093,106.167,219.119,106.158,219.146,106.149C219.172,106.141,219.199,106.135,219.226,106.129C219.254,106.124,219.281,106.120,219.309,106.117C219.336,106.114,219.364,106.113,219.392,106.113C219.420,106.113,219.448,106.114,219.475,106.117C219.503,106.120,219.530,106.124,219.558,106.129C219.585,106.135,219.612,106.141,219.638,106.149C219.665,106.158,219.691,106.167,219.717,106.177C219.742,106.188,219.768,106.200,219.792,106.213C219.817,106.226,219.840,106.240,219.864,106.256C219.887,106.271,219.909,106.288,219.930,106.305C219.952,106.323,219.972,106.341,219.992,106.361L229.463,115.812C229.482,115.832,229.501,115.852,229.518,115.874C229.536,115.895,229.552,115.917,229.568,115.940C229.583,115.963,229.597,115.987,229.610,116.011C229.623,116.036,229.635,116.061,229.646,116.086C229.656,116.112,229.666,116.138,229.674,116.164C229.682,116.190,229.689,116.217,229.694,116.244C229.699,116.271,229.703,116.299,229.706,116.326C229.709,116.354,229.710,116.381,229.710,116.409C229.710,116.436,229.709,116.464,229.706,116.492C229.703,116.519,229.699,116.546,229.694,116.573C229.689,116.600,229.682,116.627,229.674,116.654C229.666,116.680,229.656,116.706,229.646,116.732C229.635,116.757,229.623,116.782,229.610,116.806C229.597,116.831,229.583,116.854,229.568,116.877C229.552,116.900,229.536,116.923,229.463,117.005ZC229.501,116.965,229.482,116.986,229.463,117.005ZZ" fill-rule="evenodd" fill="none" fill-opacity="0" style="fill: rgb(99, 163, 180); fill-opacity: 1;" class="fills"/><path d="M220.030,126.419L229.463,117.005C229.482,116.986,229.501,116.965,229.518,116.944C229.536,116.923,229.552,116.900,229.568,116.877C229.583,116.854,229.597,116.831,229.610,116.806C229.623,116.782,229.635,116.757,229.646,116.732C229.656,116.706,229.666,116.680,229.674,116.654C229.682,116.627,229.689,116.600,229.694,116.573C229.699,116.546,229.703,116.519,229.706,116.492C229.709,116.464,229.710,116.436,229.710,116.409C229.710,116.381,229.709,116.354,229.706,116.326C229.703,116.299,229.699,116.271,229.694,116.244C229.689,116.217,229.682,116.190,229.674,116.164C229.666,116.138,229.656,116.112,229.646,116.086C229.635,116.061,229.623,116.036,229.610,116.011C229.597,115.987,229.583,115.963,229.568,115.940C229.552,115.917,229.536,115.895,229.518,115.874C229.501,115.852,229.482,115.832,229.463,115.812L219.992,106.361C219.953,106.322,219.910,106.287,219.863,106.256C219.817,106.225,219.768,106.199,219.717,106.177C219.665,106.156,219.612,106.140,219.558,106.129C219.503,106.118,219.448,106.113,219.392,106.113C219.336,106.113,219.281,106.118,219.226,106.129C219.172,106.140,219.119,106.156,219.067,106.177C219.016,106.199,218.967,106.225,218.920,106.256C218.874,106.287,218.831,106.322,218.792,106.361L209.360,115.774C209.340,115.794,209.321,115.814,209.304,115.836C209.286,115.857,209.270,115.879,209.254,115.902C209.239,115.925,209.225,115.949,209.212,115.973C209.199,115.998,209.187,116.023,209.176,116.048C209.166,116.074,209.156,116.100,209.148,116.126C209.140,116.152,209.133,116.179,209.128,116.206C209.123,116.233,209.119,116.261,209.116,116.288C209.113,116.316,209.112,116.343,209.112,116.371C209.112,116.398,209.113,116.426,209.116,116.453C209.119,116.481,209.123,116.508,209.128,116.535C209.133,116.562,209.140,116.589,209.148,116.616C209.156,116.642,209.166,116.668,209.176,116.694C209.187,116.719,209.199,116.744,209.212,116.768C209.225,116.793,209.239,116.816,209.254,116.839C209.270,116.862,209.286,116.885,209.304,116.906C209.321,116.927,209.340,116.948,209.360,116.967L218.830,126.419C218.869,126.458,218.912,126.493,218.959,126.524C219.005,126.555,219.054,126.581,219.105,126.602C219.157,126.623,219.210,126.640,219.264,126.650C219.319,126.661,219.374,126.667,219.430,126.667C219.486,126.667,219.541,126.661,219.596,126.650C219.650,126.640,219.703,126.623,219.755,126.602C219.806,126.581,219.855,126.555,219.902,126.524C219.948,126.493,219.991,126.458,220.030,126.419ZZM229.152,116.121C229.345,116.313,229.345,116.505,229.152,116.697L219.720,126.110C219.640,126.190,219.543,126.230,219.430,126.230C219.317,126.230,219.220,126.190,219.140,126.110L209.670,116.659C209.478,116.467,209.478,116.275,209.670,116.083L219.102,106.669C219.182,106.590,219.279,106.550,219.392,106.550C219.505,106.550,219.602,106.590,219.682,106.669L229.152,116.121ZZ" fill-rule="evenodd" fill="none" fill-opacity="0" style="fill: rgb(99, 163, 180); fill-opacity: 1;" class="fills"/></g><g filter="url(#p)" style="fill: rgb(0, 0, 0);"><defs><filter id="p" x="-1.37" y="-1.371" width="4.35" height="4.351" filterUnits="objectBoundingBox" color-interpolation-filters="sRGB"><feFlood flood-opacity="0" result="BackgroundImageFix"/><feColorMatrix in="SourceAlpha" values="0 0 0 0 0 0 0 0 0 0 0 0 0 0 0 0 0 0 127 0"/><feOffset dx="4" dy="4"/><feGaussianBlur stdDeviation="2"/><feColorMatrix values="0 0 0 0 0 0 0 0 0 0 0 0 0 0 0 0 0 0 0.2 0"/><feBlend in2="BackgroundImageFix" result="filter_e3f8f774-1dd2-807f-8005-a3c13c8c34fb"/><feBlend in="SourceGraphic" in2="filter_e3f8f774-1dd2-807f-8005-a3c13c8c34fb" result="shape"/></filter></defs><path d="M19.549,217.431L10.245,226.734C10.220,226.759,10.194,226.781,10.165,226.800C10.136,226.819,10.105,226.836,10.073,226.849C10.041,226.862,10.008,226.872,9.974,226.879C9.939,226.886,9.905,226.889,9.870,226.889C9.835,226.889,9.801,226.886,9.767,226.879C9.733,226.872,9.699,226.862,9.667,226.849C9.635,226.836,9.605,226.819,9.576,226.800C9.547,226.781,9.520,226.759,9.495,226.734L0.155,217.395C0.130,217.371,0.108,217.344,0.089,217.315C0.070,217.287,0.053,217.256,0.040,217.224C0.027,217.192,0.017,217.159,0.010,217.125C0.003,217.091,0.000,217.057,0.000,217.022C0.000,216.988,0.003,216.953,0.010,216.919C0.017,216.885,0.027,216.852,0.040,216.820C0.053,216.788,0.070,216.758,0.089,216.729C0.108,216.700,0.130,216.673,0.155,216.649L9.459,207.346C9.484,207.322,9.511,207.300,9.539,207.280C9.568,207.261,9.599,207.245,9.631,207.231C9.663,207.218,9.696,207.208,9.731,207.201C9.765,207.194,9.799,207.191,9.834,207.191C9.869,207.191,9.903,207.194,9.937,207.201C9.972,207.208,10.005,207.218,10.037,207.231C10.069,207.245,10.100,207.261,10.129,207.280C10.158,207.300,10.184,207.322,10.209,207.346L19.549,216.685C19.574,216.709,19.596,216.736,19.615,216.765C19.634,216.794,19.651,216.824,19.664,216.856C19.677,216.888,19.687,216.921,19.694,216.955C19.701,216.989,19.704,217.024,19.704,217.058C19.704,217.093,19.701,217.127,19.694,217.161C19.687,217.195,19.677,217.228,19.664,217.260C19.651,217.292,19.634,217.323,19.615,217.351C19.596,217.380,19.574,217.407,19.549,217.431ZZ" fill-rule="evenodd" fill="none" fill-opacity="0" style="fill: rgb(99, 163, 180); fill-opacity: 1;" class="fills"/><path d="M10.245,226.734L19.549,217.431C19.574,217.407,19.596,217.380,19.615,217.351C19.634,217.323,19.651,217.292,19.664,217.260C19.677,217.228,19.687,217.195,19.694,217.161C19.701,217.127,19.704,217.093,19.704,217.058C19.704,217.024,19.701,216.989,19.694,216.955C19.687,216.921,19.677,216.888,19.664,216.856C19.651,216.824,19.634,216.794,19.615,216.765C19.596,216.736,19.574,216.709,19.549,216.685L10.209,207.346C10.159,207.296,10.102,207.258,10.037,207.231C9.972,207.204,9.904,207.191,9.834,207.191C9.764,207.191,9.696,207.204,9.631,207.231C9.566,207.258,9.509,207.296,9.459,207.346L0.155,216.649C0.130,216.673,0.108,216.700,0.089,216.729C0.070,216.758,0.053,216.788,0.040,216.820C0.027,216.852,0.017,216.885,0.010,216.919C0.003,216.953,0.000,216.988,0.000,217.022C0.000,217.057,0.003,217.091,0.010,217.125C0.017,217.159,0.027,217.192,0.040,217.224C0.053,217.256,0.070,217.287,0.089,217.315C0.108,217.344,0.130,217.371,0.155,217.395L9.495,226.734C9.545,226.784,9.602,226.822,9.667,226.849C9.732,226.876,9.800,226.889,9.870,226.889C9.940,226.889,10.008,226.876,10.073,226.849C10.138,226.822,10.195,226.784,10.245,226.734ZZM18.675,217.058L9.834,208.218L1.029,217.022L9.870,225.862L18.675,217.058ZZ" fill-rule="evenodd" fill="none" fill-opacity="0" style="fill: rgb(99, 163, 180); fill-opacity: 1;" class="fills"/></g><g filter="url(#q)" style="fill: rgb(0, 0, 0);"><defs><filter id="q" x="-.58" y="-.581" width="2.419" height="2.42" filterUnits="objectBoundingBox" color-interpolation-filters="sRGB"><feFlood flood-opacity="0" result="BackgroundImageFix"/><feColorMatrix in="SourceAlpha" values="0 0 0 0 0 0 0 0 0 0 0 0 0 0 0 0 0 0 127 0"/><feOffset dx="4" dy="4"/><feGaussianBlur stdDeviation="2"/><feColorMatrix values="0 0 0 0 0 0 0 0 0 0 0 0 0 0 0 0 0 0 0.2 0"/><feBlend in2="BackgroundImageFix" result="filter_e3f8f774-1dd2-807f-8005-a3c13c8c34fb"/><feBlend in="SourceGraphic" in2="filter_e3f8f774-1dd2-807f-8005-a3c13c8c34fb" result="shape"/></filter></defs><path d="M214.493,206.829L194.163,227.155C194.130,227.189,194.095,227.221,194.060,227.253C194.025,227.285,193.990,227.316,193.953,227.345C193.917,227.375,193.880,227.404,193.842,227.433C193.804,227.461,193.765,227.488,193.726,227.514C193.687,227.540,193.647,227.565,193.606,227.590C193.566,227.614,193.525,227.637,193.483,227.659C193.441,227.682,193.399,227.703,193.357,227.723C193.314,227.743,193.271,227.762,193.227,227.780C193.183,227.799,193.139,227.816,193.095,227.831C193.050,227.847,193.006,227.862,192.960,227.876C192.915,227.890,192.870,227.902,192.824,227.914C192.778,227.925,192.732,227.935,192.686,227.945C192.639,227.954,192.593,227.962,192.546,227.969C192.499,227.976,192.452,227.981,192.405,227.986C192.358,227.991,192.311,227.994,192.264,227.997C192.217,227.999,192.170,228.000,192.123,228.000C192.075,228.000,192.028,227.999,191.981,227.997C191.934,227.994,191.887,227.991,191.840,227.986C191.793,227.981,191.746,227.976,191.699,227.969C191.652,227.962,191.606,227.954,191.559,227.945C191.513,227.935,191.467,227.925,191.421,227.914C191.375,227.902,191.330,227.890,191.285,227.876C191.239,227.862,191.195,227.847,191.150,227.831C191.106,227.816,191.062,227.799,191.018,227.780C190.974,227.762,190.931,227.743,190.889,227.723C190.846,227.703,190.804,227.682,190.762,227.659C190.720,227.637,190.679,227.614,190.639,227.590C190.598,227.565,190.558,227.540,190.519,227.514C190.480,227.488,190.441,227.461,190.403,227.433C190.365,227.404,190.328,227.375,190.292,227.345C190.255,227.316,190.220,227.285,190.185,227.253C190.150,227.221,190.115,227.189,190.082,227.155L169.665,206.742C169.631,206.709,169.599,206.675,169.567,206.640C169.536,206.605,169.505,206.569,169.475,206.533C169.445,206.496,169.416,206.459,169.388,206.422C169.360,206.384,169.333,206.345,169.307,206.306C169.281,206.267,169.256,206.227,169.231,206.187C169.207,206.147,169.184,206.106,169.162,206.064C169.140,206.023,169.118,205.981,169.098,205.938C169.078,205.896,169.059,205.853,169.041,205.809C169.023,205.766,169.006,205.722,168.990,205.678C168.974,205.633,168.960,205.589,168.946,205.544C168.932,205.499,168.920,205.454,168.908,205.408C168.897,205.362,168.887,205.316,168.878,205.270C168.868,205.224,168.860,205.178,168.853,205.131C168.846,205.085,168.841,205.038,168.836,204.991C168.831,204.945,168.828,204.898,168.826,204.851C168.823,204.804,168.822,204.757,168.822,204.710C168.822,204.663,168.823,204.616,168.826,204.569C168.828,204.522,168.831,204.475,168.836,204.428C168.841,204.381,168.846,204.335,168.853,204.288C168.860,204.242,168.868,204.195,168.878,204.149C168.887,204.103,168.897,204.057,168.908,204.012C168.920,203.966,168.932,203.921,168.946,203.876C168.960,203.831,168.974,203.786,168.990,203.742C169.006,203.698,169.023,203.654,169.041,203.610C169.059,203.567,169.078,203.524,169.098,203.481C169.118,203.439,169.140,203.397,169.162,203.355C169.184,203.314,169.207,203.273,169.231,203.233C169.256,203.192,169.281,203.153,169.307,203.113C169.333,203.074,169.360,203.036,169.388,202.998C169.416,202.960,169.445,202.923,169.475,202.887C169.505,202.850,169.536,202.815,169.567,202.780C169.599,202.745,169.631,202.711,169.665,202.678L189.995,182.352C190.028,182.318,190.062,182.286,190.097,182.254C190.132,182.222,190.168,182.192,190.204,182.162C190.241,182.132,190.278,182.103,190.316,182.075C190.354,182.046,190.392,182.019,190.432,181.993C190.471,181.967,190.511,181.942,190.551,181.917C190.592,181.893,190.633,181.870,190.675,181.848C190.716,181.825,190.758,181.804,190.801,181.784C190.844,181.764,190.887,181.745,190.931,181.727C190.974,181.709,191.018,181.692,191.063,181.676C191.107,181.660,191.152,181.645,191.197,181.631C191.242,181.618,191.288,181.605,191.334,181.594C191.380,181.582,191.426,181.572,191.472,181.563C191.518,181.553,191.565,181.545,191.612,181.538C191.658,181.531,191.705,181.526,191.752,181.521C191.799,181.516,191.846,181.513,191.893,181.511C191.941,181.508,191.988,181.507,192.035,181.507C192.082,181.507,192.130,181.508,192.177,181.511C192.224,181.513,192.271,181.516,192.318,181.521C192.365,181.526,192.412,181.531,192.459,181.538C192.505,181.545,192.552,181.553,192.598,181.563C192.645,181.572,192.691,181.582,192.736,181.594C192.782,181.605,192.828,181.618,192.873,181.631C192.918,181.645,192.963,181.660,193.007,181.676C193.052,181.692,193.096,181.709,193.140,181.727C193.183,181.745,193.226,181.764,193.269,181.784C193.312,181.804,193.354,181.825,193.396,181.848C193.437,181.870,193.478,181.893,193.519,181.917C193.559,181.942,193.599,181.967,193.639,181.993C193.678,182.019,193.716,182.046,193.754,182.075C193.792,182.103,193.829,182.132,193.866,182.162C193.902,182.192,193.938,182.222,193.973,182.254C194.008,182.286,194.042,182.318,194.076,182.352L214.493,202.765C214.526,202.798,214.559,202.832,214.590,202.867C214.622,202.902,214.653,202.938,214.683,202.974C214.713,203.011,214.741,203.048,214.770,203.085C214.798,203.123,214.825,203.162,214.851,203.201C214.877,203.240,214.902,203.280,214.926,203.320C214.951,203.360,214.974,203.401,214.996,203.443C215.018,203.484,215.039,203.526,215.059,203.569C215.079,203.611,215.099,203.654,215.117,203.698C215.135,203.741,215.152,203.785,215.167,203.829C215.183,203.874,215.198,203.918,215.212,203.963C215.225,204.008,215.238,204.054,215.249,204.099C215.261,204.145,215.271,204.191,215.280,204.237C215.289,204.283,215.297,204.329,215.304,204.376C215.311,204.422,215.317,204.469,215.322,204.516C215.326,204.562,215.330,204.609,215.332,204.656C215.334,204.703,215.335,204.750,215.335,204.797C215.335,204.844,215.334,204.891,215.332,204.938C215.330,204.985,215.326,205.032,215.322,205.079C215.317,205.126,215.311,205.172,215.304,205.219C215.297,205.265,215.289,205.312,215.280,205.358C215.271,205.404,215.261,205.450,215.249,205.495C215.238,205.541,215.225,205.586,215.212,205.631C215.198,205.676,215.183,205.721,215.167,205.765C215.152,205.809,215.135,205.853,215.117,205.897C215.099,205.940,215.079,205.983,215.059,206.026C215.039,206.068,215.018,206.110,214.996,206.152C214.974,206.193,214.951,206.234,214.926,206.274C214.902,206.315,214.877,206.355,214.851,206.394C214.825,206.433,214.798,206.471,214.770,206.509C214.741,206.547,214.713,206.584,214.683,206.620C214.653,206.657,214.622,206.692,214.590,206.727C214.559,206.762,214.526,206.796,214.493,206.829ZZ" fill-rule="evenodd" fill="none" fill-opacity="0" style="fill: rgb(99, 163, 180); fill-opacity: 1;" class="fills"/><path d="M194.163,227.155L214.493,206.829C214.526,206.796,214.559,206.762,214.590,206.727C214.622,206.692,214.653,206.657,214.683,206.620C214.713,206.584,214.741,206.547,214.770,206.509C214.798,206.471,214.825,206.433,214.851,206.394C214.877,206.355,214.902,206.315,214.926,206.274C214.951,206.234,214.974,206.193,214.996,206.152C215.018,206.110,215.039,206.068,215.059,206.026C215.079,205.983,215.099,205.940,215.117,205.897C215.135,205.853,215.152,205.809,215.167,205.765C215.183,205.721,215.198,205.676,215.212,205.631C215.225,205.586,215.238,205.541,215.249,205.495C215.261,205.450,215.271,205.404,215.280,205.358C215.289,205.312,215.297,205.265,215.304,205.219C215.311,205.172,215.317,205.126,215.322,205.079C215.326,205.032,215.330,204.985,215.332,204.938C215.334,204.891,215.335,204.844,215.335,204.797C215.335,204.750,215.334,204.703,215.332,204.656C215.330,204.609,215.326,204.562,215.322,204.516C215.317,204.469,215.311,204.422,215.304,204.376C215.297,204.329,215.289,204.283,215.280,204.237C215.271,204.191,215.261,204.145,215.249,204.099C215.238,204.054,215.225,204.008,215.212,203.963C215.198,203.918,215.183,203.874,215.167,203.829C215.152,203.785,215.135,203.741,215.117,203.698C215.099,203.654,215.079,203.611,215.059,203.569C215.039,203.526,215.018,203.484,214.996,203.443C214.974,203.401,214.951,203.360,214.926,203.320C214.902,203.280,214.877,203.240,214.851,203.201C214.825,203.162,214.798,203.123,214.770,203.085C214.741,203.048,214.713,203.011,214.683,202.974C214.653,202.938,214.622,202.902,214.590,202.867C214.559,202.832,214.526,202.798,214.493,202.765L194.076,182.352C193.942,182.218,193.796,182.098,193.639,181.993C193.481,181.888,193.315,181.799,193.140,181.727C192.965,181.654,192.784,181.599,192.598,181.563C192.412,181.526,192.225,181.507,192.035,181.507C191.846,181.507,191.658,181.526,191.472,181.563C191.286,181.599,191.106,181.654,190.931,181.727C190.756,181.799,190.589,181.888,190.432,181.993C190.274,182.098,190.128,182.218,189.995,182.352L169.665,202.678C169.631,202.711,169.599,202.745,169.567,202.780C169.536,202.815,169.505,202.850,169.475,202.887C169.445,202.923,169.416,202.960,169.388,202.998C169.360,203.036,169.333,203.074,169.307,203.113C169.281,203.153,169.256,203.192,169.231,203.233C169.207,203.273,169.184,203.314,169.162,203.355C169.140,203.397,169.118,203.439,169.098,203.481C169.078,203.524,169.059,203.567,169.041,203.610C169.023,203.654,169.006,203.698,168.990,203.742C168.974,203.786,168.960,203.831,168.946,203.876C168.932,203.921,168.920,203.966,168.908,204.012C168.897,204.057,168.887,204.103,168.878,204.149C168.868,204.195,168.860,204.242,168.853,204.288C168.846,204.335,168.841,204.381,168.836,204.428C168.831,204.475,168.828,204.522,168.826,204.569C168.823,204.616,168.822,204.663,168.822,204.710C168.822,204.757,168.823,204.804,168.826,204.851C168.828,204.898,168.831,204.945,168.836,204.991C168.841,205.038,168.846,205.085,168.853,205.131C168.860,205.178,168.868,205.224,168.878,205.270C168.887,205.316,168.897,205.362,168.908,205.408C168.920,205.454,168.932,205.499,168.946,205.544C168.960,205.589,168.974,205.633,168.990,205.678C169.006,205.722,169.023,205.766,169.041,205.809C169.059,205.853,169.078,205.896,169.098,205.938C169.118,205.981,169.140,206.023,169.162,206.064C169.184,206.106,169.207,206.147,169.231,206.187C169.256,206.227,169.281,206.267,169.307,206.306C169.333,206.345,169.360,206.384,169.388,206.422C169.416,206.459,169.445,206.496,169.475,206.533C169.505,206.569,169.536,206.605,169.567,206.640C169.599,206.675,169.631,206.709,169.665,206.742L190.082,227.155C190.216,227.289,190.362,227.409,190.519,227.514C190.677,227.619,190.843,227.708,191.018,227.780C191.193,227.853,191.374,227.908,191.559,227.945C191.745,227.981,191.933,228.000,192.122,228.000C192.312,228.000,192.500,227.981,192.686,227.945C192.871,227.908,193.052,227.853,193.227,227.780C193.402,227.708,193.568,227.619,193.726,227.514C193.883,227.409,194.029,227.289,194.163,227.155ZZM213.868,203.387C214.808,204.327,214.808,205.267,213.868,206.207L193.538,226.533C193.147,226.924,192.676,227.119,192.122,227.119C191.569,227.119,191.098,226.924,190.707,226.533L170.289,206.120C169.349,205.180,169.349,204.240,170.289,203.300L190.619,182.974C191.010,182.583,191.482,182.388,192.035,182.388C192.588,182.388,193.060,182.583,193.451,182.974L213.868,203.387ZZ" fill-rule="evenodd" fill="none" fill-opacity="0" style="fill: rgb(99, 163, 180); fill-opacity: 1;" class="fills"/></g><defs><filter id="r" x="-.653" y="-.653" width="2.558" height="2.559" filterUnits="objectBoundingBox" color-interpolation-filters="sRGB"><feFlood flood-opacity="0" result="BackgroundImageFix"/><feColorMatrix in="SourceAlpha" values="0 0 0 0 0 0 0 0 0 0 0 0 0 0 0 0 0 0 127 0"/><feOffset dx="4" dy="4"/><feGaussianBlur stdDeviation="2"/><feColorMatrix values="0 0 0 0 0 0 0 0 0 0 0 0 0 0 0 0 0 0 0.2 0"/><feBlend in2="BackgroundImageFix" result="filter_e3f8f774-1dd2-807f-8005-a3c13c8c34fb"/><feBlend in="SourceGraphic" in2="filter_e3f8f774-1dd2-807f-8005-a3c13c8c34fb" result="shape"/></filter></defs><path d="M139.731,196.513L117.739,218.500C117.700,218.540,117.658,218.577,117.615,218.613C117.572,218.648,117.527,218.682,117.481,218.713C117.434,218.744,117.386,218.772,117.337,218.799C117.287,218.825,117.237,218.849,117.185,218.870C117.133,218.892,117.081,218.911,117.027,218.927C116.974,218.943,116.919,218.957,116.865,218.967C116.810,218.978,116.754,218.987,116.699,218.992C116.643,218.998,116.587,219.000,116.531,219.000C116.475,219.000,116.419,218.998,116.364,218.992C116.308,218.987,116.253,218.978,116.198,218.967C116.143,218.957,116.089,218.943,116.035,218.927C115.981,218.911,115.929,218.892,115.877,218.870C115.825,218.849,115.775,218.825,115.725,218.799C115.676,218.772,115.628,218.744,115.582,218.713C115.535,218.682,115.490,218.648,115.447,218.613C115.404,218.577,115.362,218.540,115.323,218.500L93.244,196.426C93.205,196.386,93.167,196.345,93.132,196.302C93.096,196.259,93.063,196.214,93.032,196.168C93.001,196.121,92.973,196.074,92.946,196.024C92.920,195.975,92.896,195.925,92.875,195.873C92.854,195.822,92.835,195.770,92.819,195.716C92.803,195.663,92.789,195.609,92.778,195.554C92.767,195.500,92.759,195.445,92.754,195.389C92.748,195.334,92.745,195.278,92.745,195.222C92.745,195.167,92.748,195.111,92.754,195.056C92.759,195.000,92.767,194.945,92.778,194.891C92.789,194.836,92.802,194.782,92.819,194.729C92.835,194.675,92.854,194.623,92.875,194.571C92.896,194.520,92.920,194.470,92.946,194.420C92.973,194.371,93.001,194.324,93.032,194.277C93.063,194.231,93.096,194.186,93.132,194.143C93.167,194.100,93.205,194.059,93.244,194.019L115.235,172.032C115.275,171.993,115.316,171.955,115.360,171.920C115.403,171.884,115.448,171.851,115.494,171.820C115.541,171.789,115.589,171.760,115.638,171.734C115.688,171.707,115.738,171.683,115.790,171.662C115.841,171.641,115.894,171.622,115.948,171.606C116.001,171.589,116.055,171.576,116.110,171.565C116.165,171.554,116.221,171.546,116.276,171.540C116.332,171.535,116.388,171.532,116.444,171.532C116.500,171.532,116.556,171.535,116.611,171.540C116.667,171.546,116.722,171.554,116.777,171.565C116.832,171.576,116.886,171.589,116.940,171.606C116.993,171.622,117.046,171.641,117.098,171.662C117.149,171.683,117.200,171.707,117.249,171.734C117.299,171.760,117.347,171.789,117.393,171.820C117.440,171.851,117.485,171.884,117.528,171.920C117.571,171.955,117.612,171.993,117.652,172.032L139.731,194.107C139.770,194.146,139.808,194.187,139.843,194.230C139.878,194.274,139.912,194.318,139.943,194.365C139.974,194.411,140.002,194.459,140.028,194.508C140.055,194.557,140.079,194.607,140.100,194.659C140.121,194.710,140.140,194.763,140.156,194.816C140.172,194.869,140.186,194.923,140.197,194.978C140.208,195.033,140.216,195.088,140.221,195.143C140.227,195.199,140.229,195.254,140.229,195.310C140.229,195.366,140.227,195.421,140.221,195.477C140.216,195.532,140.208,195.587,140.197,195.642C140.186,195.696,140.172,195.750,140.156,195.804C140.140,195.857,140.121,195.909,140.100,195.961C140.079,196.012,140.055,196.063,140.028,196.112C140.002,196.161,139.974,196.209,139.943,196.255C139.912,196.301,139.878,196.346,139.843,196.389C139.808,196.432,139.770,196.474,139.731,196.513ZZ" filter="url(#r)" style="fill: rgb(99, 163, 180); fill-opacity: 0;" fill="none" class="fills"/><g fill-rule="evenodd" class="strokes"><g class="outer-stroke-shape"><defs><mask id="t" x="89.124" y="167.911" width="54.727" height="54.711" maskUnits="userSpaceOnUse"><use href="#s" style="fill: none; stroke: white; stroke-width: 3;"/><use href="#s" style="fill: black; stroke: none;"/></mask><path d="M139.731,196.513L117.739,218.500C117.700,218.540,117.658,218.577,117.615,218.613C117.572,218.648,117.527,218.682,117.481,218.713C117.434,218.744,117.386,218.772,117.337,218.799C117.287,218.825,117.237,218.849,117.185,218.870C117.133,218.892,117.081,218.911,117.027,218.927C116.974,218.943,116.919,218.957,116.865,218.967C116.810,218.978,116.754,218.987,116.699,218.992C116.643,218.998,116.587,219.000,116.531,219.000C116.475,219.000,116.419,218.998,116.364,218.992C116.308,218.987,116.253,218.978,116.198,218.967C116.143,218.957,116.089,218.943,116.035,218.927C115.981,218.911,115.929,218.892,115.877,218.870C115.825,218.849,115.775,218.825,115.725,218.799C115.676,218.772,115.628,218.744,115.582,218.713C115.535,218.682,115.490,218.648,115.447,218.613C115.404,218.577,115.362,218.540,115.323,218.500L93.244,196.426C93.205,196.386,93.167,196.345,93.132,196.302C93.096,196.259,93.063,196.214,93.032,196.168C93.001,196.121,92.973,196.074,92.946,196.024C92.920,195.975,92.896,195.925,92.875,195.873C92.854,195.822,92.835,195.770,92.819,195.716C92.803,195.663,92.789,195.609,92.778,195.554C92.767,195.500,92.759,195.445,92.754,195.389C92.748,195.334,92.745,195.278,92.745,195.222C92.745,195.167,92.748,195.111,92.754,195.056C92.759,195.000,92.767,194.945,92.778,194.891C92.789,194.836,92.802,194.782,92.819,194.729C92.835,194.675,92.854,194.623,92.875,194.571C92.896,194.520,92.920,194.470,92.946,194.420C92.973,194.371,93.001,194.324,93.032,194.277C93.063,194.231,93.096,194.186,93.132,194.143C93.167,194.100,93.205,194.059,93.244,194.019L115.235,172.032C115.275,171.993,115.316,171.955,115.360,171.920C115.403,171.884,115.448,171.851,115.494,171.820C115.541,171.789,115.589,171.760,115.638,171.734C115.688,171.707,115.738,171.683,115.790,171.662C115.841,171.641,115.894,171.622,115.948,171.606C116.001,171.589,116.055,171.576,116.110,171.565C116.165,171.554,116.221,171.546,116.276,171.540C116.332,171.535,116.388,171.532,116.444,171.532C116.500,171.532,116.556,171.535,116.611,171.540C116.667,171.546,116.722,171.554,116.777,171.565C116.832,171.576,116.886,171.589,116.940,171.606C116.993,171.622,117.046,171.641,117.098,171.662C117.149,171.683,117.200,171.707,117.249,171.734C117.299,171.760,117.347,171.789,117.393,171.820C117.440,171.851,117.485,171.884,117.528,171.920C117.571,171.955,117.612,171.993,117.652,172.032L139.731,194.107C139.770,194.146,139.808,194.187,139.843,194.230C139.878,194.274,139.912,194.318,139.943,194.365C139.974,194.411,140.002,194.459,140.028,194.508C140.055,194.557,140.079,194.607,140.100,194.659C140.121,194.710,140.140,194.763,140.156,194.816C140.172,194.869,140.186,194.923,140.197,194.978C140.208,195.033,140.216,195.088,140.221,195.143C140.227,195.199,140.229,195.254,140.229,195.310C140.229,195.366,140.227,195.421,140.221,195.477C140.216,195.532,140.208,195.587,140.197,195.642C140.186,195.696,140.172,195.750,140.156,195.804C140.140,195.857,140.121,195.909,140.100,195.961C140.079,196.012,140.055,196.063,140.028,196.112C140.002,196.161,139.974,196.209,139.943,196.255C139.912,196.301,139.878,196.346,139.843,196.389C139.808,196.432,139.770,196.474,139.731,196.513ZZ" id="s"/></defs><use href="#s" mask="url(#t)" style="fill: none; stroke-width: 3; stroke: rgb(0, 0, 0); stroke-opacity: 1;"/><use href="#s" style="fill: none; stroke-width: 1.5; stroke: none; stroke-opacity: 1;"/></g></g><defs><filter id="u" x="-.426" y="-.426" width="2.042" height="2.042" filterUnits="objectBoundingBox" color-interpolation-filters="sRGB"><feFlood flood-opacity="0" result="BackgroundImageFix"/><feColorMatrix in="SourceAlpha" values="0 0 0 0 0 0 0 0 0 0 0 0 0 0 0 0 0 0 127 0"/><feOffset dx="4" dy="4"/><feGaussianBlur stdDeviation="2"/><feColorMatrix values="0 0 0 0 0 0 0 0 0 0 0 0 0 0 0 0 0 0 0.2 0"/><feBlend in2="BackgroundImageFix" result="filter_e3f8f774-1dd2-807f-8005-a3c13c8c34fb"/><feBlend in="SourceGraphic" in2="filter_e3f8f774-1dd2-807f-8005-a3c13c8c34fb" result="shape"/></filter></defs><path d="M110.812,165.064L81.477,194.400C81.425,194.452,81.369,194.502,81.312,194.550C81.254,194.597,81.194,194.641,81.132,194.683C81.070,194.724,81.006,194.763,80.940,194.798C80.874,194.833,80.807,194.865,80.738,194.893C80.669,194.922,80.599,194.947,80.527,194.969C80.456,194.990,80.384,195.008,80.310,195.023C80.237,195.037,80.163,195.048,80.089,195.056C80.015,195.063,79.940,195.067,79.866,195.067C79.791,195.067,79.717,195.063,79.642,195.056C79.568,195.048,79.494,195.037,79.421,195.023C79.348,195.008,79.275,194.990,79.204,194.969C79.132,194.947,79.062,194.922,78.993,194.893C78.924,194.865,78.857,194.833,78.791,194.798C78.725,194.763,78.661,194.724,78.599,194.683C78.537,194.641,78.477,194.597,78.420,194.550C78.362,194.502,78.307,194.452,78.254,194.400L48.803,164.947C48.750,164.894,48.701,164.839,48.653,164.782C48.606,164.724,48.562,164.665,48.521,164.603C48.479,164.541,48.441,164.477,48.406,164.412C48.371,164.346,48.339,164.279,48.311,164.210C48.282,164.141,48.257,164.072,48.236,164.000C48.214,163.929,48.196,163.857,48.181,163.784C48.167,163.711,48.156,163.638,48.149,163.564C48.141,163.490,48.138,163.416,48.138,163.342C48.138,163.267,48.141,163.193,48.149,163.119C48.156,163.045,48.167,162.972,48.181,162.899C48.196,162.826,48.214,162.754,48.236,162.683C48.257,162.612,48.282,162.542,48.311,162.473C48.339,162.404,48.371,162.337,48.406,162.272C48.441,162.206,48.479,162.142,48.521,162.080C48.562,162.019,48.606,161.959,48.653,161.901C48.701,161.844,48.750,161.789,48.803,161.736L78.137,132.401C78.190,132.348,78.245,132.298,78.303,132.250C78.361,132.203,78.421,132.159,78.483,132.117C78.545,132.076,78.609,132.038,78.675,132.002C78.740,131.967,78.808,131.935,78.877,131.907C78.946,131.878,79.016,131.853,79.087,131.831C79.159,131.810,79.231,131.792,79.304,131.777C79.378,131.763,79.451,131.752,79.526,131.744C79.600,131.737,79.674,131.733,79.749,131.733C79.824,131.733,79.898,131.737,79.973,131.744C80.047,131.752,80.121,131.763,80.194,131.777C80.267,131.792,80.339,131.810,80.411,131.831C80.482,131.853,80.553,131.878,80.622,131.907C80.691,131.935,80.758,131.967,80.824,132.002C80.890,132.037,80.954,132.076,81.016,132.117C81.078,132.159,81.137,132.203,81.195,132.250C81.253,132.298,81.308,132.348,81.361,132.401L110.812,161.853C110.864,161.906,110.914,161.961,110.961,162.018C111.009,162.076,111.053,162.135,111.094,162.197C111.136,162.259,111.174,162.323,111.209,162.388C111.244,162.454,111.276,162.521,111.304,162.590C111.333,162.658,111.358,162.728,111.379,162.799C111.401,162.871,111.419,162.943,111.433,163.015C111.448,163.088,111.459,163.162,111.466,163.236C111.473,163.310,111.477,163.384,111.477,163.458C111.477,163.533,111.473,163.607,111.466,163.681C111.459,163.755,111.448,163.828,111.433,163.901C111.419,163.974,111.401,164.046,111.379,164.117C111.358,164.188,111.333,164.258,111.304,164.327C111.276,164.396,111.244,164.463,111.209,164.528C111.174,164.594,111.136,164.658,111.094,164.719C111.053,164.781,111.009,164.841,110.961,164.898C110.914,164.956,110.864,165.011,110.812,165.064ZZ" filter="url(#u)" fill-rule="evenodd" style="fill: rgb(99, 163, 180); fill-opacity: 1;" class="fills"/><defs><filter id="v" x="-.439" y="-.439" width="2.048" height="2.049" filterUnits="objectBoundingBox" color-interpolation-filters="sRGB"><feFlood flood-opacity="0" result="BackgroundImageFix"/><feColorMatrix in="SourceAlpha" values="0 0 0 0 0 0 0 0 0 0 0 0 0 0 0 0 0 0 127 0"/><feOffset dx="4" dy="4"/><feGaussianBlur stdDeviation="2"/><feColorMatrix values="0 0 0 0 0 0 0 0 0 0 0 0 0 0 0 0 0 0 0.2 0"/><feBlend in2="BackgroundImageFix" result="filter_e3f8f774-1dd2-807f-8005-a3c13c8c34fb"/><feBlend in="SourceGraphic" in2="filter_e3f8f774-1dd2-807f-8005-a3c13c8c34fb" result="shape"/></filter></defs><path d="M237.642,79.419L207.346,109.709C207.293,109.763,207.237,109.815,207.181,109.866C207.125,109.917,207.067,109.967,207.008,110.015C206.949,110.064,206.889,110.110,206.828,110.156C206.767,110.201,206.705,110.245,206.642,110.287C206.578,110.329,206.514,110.370,206.449,110.409C206.383,110.448,206.317,110.486,206.250,110.522C206.183,110.558,206.115,110.592,206.046,110.624C205.977,110.657,205.908,110.688,205.837,110.717C205.767,110.746,205.696,110.773,205.624,110.799C205.552,110.825,205.480,110.848,205.407,110.871C205.334,110.893,205.261,110.913,205.187,110.931C205.113,110.950,205.039,110.967,204.964,110.981C204.889,110.996,204.814,111.009,204.739,111.020C204.664,111.032,204.588,111.041,204.512,111.048C204.437,111.056,204.361,111.061,204.285,111.065C204.208,111.069,204.132,111.071,204.056,111.071C203.980,111.071,203.904,111.069,203.828,111.065C203.752,111.061,203.676,111.056,203.600,111.048C203.524,111.041,203.449,111.032,203.373,111.020C203.298,111.009,203.223,110.996,203.148,110.981C203.073,110.967,202.999,110.950,202.925,110.931C202.851,110.913,202.778,110.893,202.705,110.871C202.632,110.848,202.560,110.825,202.488,110.799C202.417,110.773,202.346,110.746,202.275,110.717C202.205,110.688,202.135,110.657,202.066,110.624C201.998,110.592,201.929,110.558,201.862,110.522C201.795,110.486,201.729,110.448,201.664,110.409C201.598,110.370,201.534,110.329,201.471,110.287C201.407,110.245,201.345,110.201,201.284,110.156C201.223,110.110,201.163,110.064,201.104,110.015C201.045,109.967,200.988,109.917,200.931,109.866C200.875,109.815,200.820,109.763,200.766,109.709L169.766,78.715C169.712,78.661,169.660,78.606,169.609,78.550C169.558,78.494,169.508,78.436,169.460,78.377C169.412,78.319,169.365,78.259,169.320,78.198C169.275,78.137,169.231,78.075,169.189,78.012C169.147,77.949,169.106,77.885,169.067,77.820C169.028,77.755,168.991,77.689,168.955,77.622C168.919,77.555,168.885,77.487,168.852,77.419C168.820,77.350,168.790,77.281,168.761,77.211C168.731,77.141,168.704,77.070,168.678,76.999C168.653,76.927,168.629,76.855,168.607,76.783C168.585,76.710,168.565,76.637,168.546,76.564C168.528,76.490,168.511,76.416,168.496,76.342C168.481,76.267,168.469,76.193,168.458,76.118C168.447,76.043,168.437,75.968,168.430,75.892C168.422,75.817,168.417,75.741,168.413,75.665C168.409,75.590,168.408,75.514,168.408,75.438C168.408,75.362,168.409,75.286,168.413,75.211C168.417,75.135,168.422,75.059,168.430,74.984C168.437,74.909,168.447,74.833,168.458,74.758C168.469,74.683,168.481,74.609,168.496,74.534C168.511,74.460,168.528,74.386,168.546,74.312C168.565,74.239,168.585,74.166,168.607,74.093C168.629,74.021,168.653,73.949,168.678,73.877C168.704,73.806,168.731,73.735,168.761,73.665C168.790,73.595,168.820,73.526,168.852,73.457C168.885,73.389,168.919,73.321,168.955,73.254C168.991,73.187,169.028,73.121,169.067,73.056C169.106,72.991,169.147,72.927,169.189,72.864C169.231,72.801,169.275,72.739,169.320,72.678C169.365,72.617,169.412,72.557,169.460,72.499C169.508,72.440,169.558,72.383,169.609,72.326C169.660,72.270,169.712,72.215,169.766,72.161L200.061,41.872C200.115,41.818,200.170,41.766,200.226,41.715C200.283,41.664,200.340,41.614,200.399,41.565C200.458,41.517,200.518,41.470,200.579,41.425C200.640,41.380,200.703,41.336,200.766,41.294C200.829,41.252,200.893,41.211,200.959,41.172C201.024,41.133,201.090,41.095,201.157,41.059C201.225,41.023,201.293,40.989,201.361,40.956C201.430,40.924,201.500,40.893,201.570,40.864C201.641,40.835,201.712,40.808,201.783,40.782C201.855,40.757,201.927,40.733,202.000,40.710C202.073,40.688,202.147,40.668,202.220,40.649C202.294,40.631,202.369,40.614,202.443,40.599C202.518,40.584,202.593,40.572,202.668,40.561C202.744,40.549,202.819,40.540,202.895,40.532C202.971,40.525,203.047,40.519,203.123,40.516C203.199,40.512,203.275,40.510,203.351,40.510C203.427,40.510,203.504,40.512,203.580,40.516C203.656,40.519,203.732,40.525,203.807,40.532C203.883,40.540,203.959,40.549,204.034,40.561C204.109,40.572,204.185,40.584,204.259,40.599C204.334,40.614,204.408,40.631,204.482,40.649C204.556,40.668,204.629,40.688,204.702,40.710C204.775,40.733,204.847,40.757,204.919,40.782C204.991,40.808,205.062,40.835,205.132,40.864C205.203,40.893,205.272,40.924,205.341,40.956C205.410,40.989,205.478,41.023,205.545,41.059C205.612,41.095,205.678,41.133,205.744,41.172C205.809,41.211,205.873,41.252,205.937,41.294C206.000,41.336,206.062,41.380,206.123,41.425C206.184,41.470,206.244,41.517,206.303,41.565C206.362,41.614,206.420,41.664,206.476,41.715C206.533,41.766,206.588,41.818,206.641,41.872L237.642,72.866C237.695,72.920,237.748,72.975,237.799,73.031C237.850,73.087,237.899,73.145,237.947,73.203C237.996,73.262,238.042,73.322,238.087,73.383C238.133,73.444,238.176,73.506,238.219,73.569C238.261,73.632,238.301,73.696,238.340,73.761C238.379,73.826,238.417,73.892,238.452,73.959C238.488,74.026,238.522,74.093,238.555,74.162C238.587,74.231,238.618,74.300,238.647,74.370C238.676,74.440,238.703,74.511,238.729,74.582C238.755,74.654,238.778,74.726,238.800,74.798C238.822,74.871,238.843,74.944,238.861,75.017C238.879,75.091,238.896,75.165,238.911,75.239C238.926,75.313,238.939,75.388,238.950,75.463C238.961,75.538,238.970,75.613,238.978,75.689C238.985,75.764,238.991,75.840,238.994,75.916C238.998,75.991,239.000,76.067,239.000,76.143C239.000,76.219,238.998,76.294,238.994,76.370C238.991,76.446,238.985,76.521,238.978,76.597C238.970,76.672,238.961,76.748,238.950,76.823C238.939,76.898,238.926,76.972,238.911,77.047C238.896,77.121,238.879,77.195,238.861,77.268C238.843,77.342,238.822,77.415,238.800,77.488C238.778,77.560,238.755,77.632,238.729,77.704C238.703,77.775,238.676,77.846,238.647,77.916C238.618,77.986,238.587,78.055,238.555,78.124C238.522,78.192,238.488,78.260,238.452,78.327C238.417,78.394,238.379,78.460,238.340,78.525C238.301,78.590,238.261,78.654,238.219,78.717C238.176,78.780,238.133,78.842,238.087,78.903C238.042,78.964,237.996,79.024,237.947,79.082C237.899,79.141,237.850,79.198,237.799,79.255C237.748,79.311,237.695,79.366,237.642,79.419ZZ" filter="url(#v)" style="fill: rgb(99, 163, 180); fill-opacity: 0;" fill="none" class="fills"/><g fill-rule="evenodd" class="strokes"><g class="outer-stroke-shape"><defs><mask id="x" x="164.786" y="36.889" width="77.835" height="77.803" maskUnits="userSpaceOnUse"><use href="#w" style="fill: none; stroke: white; stroke-width: 3;"/><use href="#w" style="fill: black; stroke: none;"/></mask><path d="M237.642,79.419L207.346,109.709C207.293,109.763,207.237,109.815,207.181,109.866C207.125,109.917,207.067,109.967,207.008,110.015C206.949,110.064,206.889,110.110,206.828,110.156C206.767,110.201,206.705,110.245,206.642,110.287C206.578,110.329,206.514,110.370,206.449,110.409C206.383,110.448,206.317,110.486,206.250,110.522C206.183,110.558,206.115,110.592,206.046,110.624C205.977,110.657,205.908,110.688,205.837,110.717C205.767,110.746,205.696,110.773,205.624,110.799C205.552,110.825,205.480,110.848,205.407,110.871C205.334,110.893,205.261,110.913,205.187,110.931C205.113,110.950,205.039,110.967,204.964,110.981C204.889,110.996,204.814,111.009,204.739,111.020C204.664,111.032,204.588,111.041,204.512,111.048C204.437,111.056,204.361,111.061,204.285,111.065C204.208,111.069,204.132,111.071,204.056,111.071C203.980,111.071,203.904,111.069,203.828,111.065C203.752,111.061,203.676,111.056,203.600,111.048C203.524,111.041,203.449,111.032,203.373,111.020C203.298,111.009,203.223,110.996,203.148,110.981C203.073,110.967,202.999,110.950,202.925,110.931C202.851,110.913,202.778,110.893,202.705,110.871C202.632,110.848,202.560,110.825,202.488,110.799C202.417,110.773,202.346,110.746,202.275,110.717C202.205,110.688,202.135,110.657,202.066,110.624C201.998,110.592,201.929,110.558,201.862,110.522C201.795,110.486,201.729,110.448,201.664,110.409C201.598,110.370,201.534,110.329,201.471,110.287C201.407,110.245,201.345,110.201,201.284,110.156C201.223,110.110,201.163,110.064,201.104,110.015C201.045,109.967,200.988,109.917,200.931,109.866C200.875,109.815,200.820,109.763,200.766,109.709L169.766,78.715C169.712,78.661,169.660,78.606,169.609,78.550C169.558,78.494,169.508,78.436,169.460,78.377C169.412,78.319,169.365,78.259,169.320,78.198C169.275,78.137,169.231,78.075,169.189,78.012C169.147,77.949,169.106,77.885,169.067,77.820C169.028,77.755,168.991,77.689,168.955,77.622C168.919,77.555,168.885,77.487,168.852,77.419C168.820,77.350,168.790,77.281,168.761,77.211C168.731,77.141,168.704,77.070,168.678,76.999C168.653,76.927,168.629,76.855,168.607,76.783C168.585,76.710,168.565,76.637,168.546,76.564C168.528,76.490,168.511,76.416,168.496,76.342C168.481,76.267,168.469,76.193,168.458,76.118C168.447,76.043,168.437,75.968,168.430,75.892C168.422,75.817,168.417,75.741,168.413,75.665C168.409,75.590,168.408,75.514,168.408,75.438C168.408,75.362,168.409,75.286,168.413,75.211C168.417,75.135,168.422,75.059,168.430,74.984C168.437,74.909,168.447,74.833,168.458,74.758C168.469,74.683,168.481,74.609,168.496,74.534C168.511,74.460,168.528,74.386,168.546,74.312C168.565,74.239,168.585,74.166,168.607,74.093C168.629,74.021,168.653,73.949,168.678,73.877C168.704,73.806,168.731,73.735,168.761,73.665C168.790,73.595,168.820,73.526,168.852,73.457C168.885,73.389,168.919,73.321,168.955,73.254C168.991,73.187,169.028,73.121,169.067,73.056C169.106,72.991,169.147,72.927,169.189,72.864C169.231,72.801,169.275,72.739,169.320,72.678C169.365,72.617,169.412,72.557,169.460,72.499C169.508,72.440,169.558,72.383,169.609,72.326C169.660,72.270,169.712,72.215,169.766,72.161L200.061,41.872C200.115,41.818,200.170,41.766,200.226,41.715C200.283,41.664,200.340,41.614,200.399,41.565C200.458,41.517,200.518,41.470,200.579,41.425C200.640,41.380,200.703,41.336,200.766,41.294C200.829,41.252,200.893,41.211,200.959,41.172C201.024,41.133,201.090,41.095,201.157,41.059C201.225,41.023,201.293,40.989,201.361,40.956C201.430,40.924,201.500,40.893,201.570,40.864C201.641,40.835,201.712,40.808,201.783,40.782C201.855,40.757,201.927,40.733,202.000,40.710C202.073,40.688,202.147,40.668,202.220,40.649C202.294,40.631,202.369,40.614,202.443,40.599C202.518,40.584,202.593,40.572,202.668,40.561C202.744,40.549,202.819,40.540,202.895,40.532C202.971,40.525,203.047,40.519,203.123,40.516C203.199,40.512,203.275,40.510,203.351,40.510C203.427,40.510,203.504,40.512,203.580,40.516C203.656,40.519,203.732,40.525,203.807,40.532C203.883,40.540,203.959,40.549,204.034,40.561C204.109,40.572,204.185,40.584,204.259,40.599C204.334,40.614,204.408,40.631,204.482,40.649C204.556,40.668,204.629,40.688,204.702,40.710C204.775,40.733,204.847,40.757,204.919,40.782C204.991,40.808,205.062,40.835,205.132,40.864C205.203,40.893,205.272,40.924,205.341,40.956C205.410,40.989,205.478,41.023,205.545,41.059C205.612,41.095,205.678,41.133,205.744,41.172C205.809,41.211,205.873,41.252,205.937,41.294C206.000,41.336,206.062,41.380,206.123,41.425C206.184,41.470,206.244,41.517,206.303,41.565C206.362,41.614,206.420,41.664,206.476,41.715C206.533,41.766,206.588,41.818,206.641,41.872L237.642,72.866C237.695,72.920,237.748,72.975,237.799,73.031C237.850,73.087,237.899,73.145,237.947,73.203C237.996,73.262,238.042,73.322,238.087,73.383C238.133,73.444,238.176,73.506,238.219,73.569C238.261,73.632,238.301,73.696,238.340,73.761C238.379,73.826,238.417,73.892,238.452,73.959C238.488,74.026,238.522,74.093,238.555,74.162C238.587,74.231,238.618,74.300,238.647,74.370C238.676,74.440,238.703,74.511,238.729,74.582C238.755,74.654,238.778,74.726,238.800,74.798C238.822,74.871,238.843,74.944,238.861,75.017C238.879,75.091,238.896,75.165,238.911,75.239C238.926,75.313,238.939,75.388,238.950,75.463C238.961,75.538,238.970,75.613,238.978,75.689C238.985,75.764,238.991,75.840,238.994,75.916C238.998,75.991,239.000,76.067,239.000,76.143C239.000,76.219,238.998,76.294,238.994,76.370C238.991,76.446,238.985,76.521,238.978,76.597C238.970,76.672,238.961,76.748,238.950,76.823C238.939,76.898,238.926,76.972,238.911,77.047C238.896,77.121,238.879,77.195,238.861,77.268C238.843,77.342,238.822,77.415,238.800,77.488C238.778,77.560,238.755,77.632,238.729,77.704C238.703,77.775,238.676,77.846,238.647,77.916C238.618,77.986,238.587,78.055,238.555,78.124C238.522,78.192,238.488,78.260,238.452,78.327C238.417,78.394,238.379,78.460,238.340,78.525C238.301,78.590,238.261,78.654,238.219,78.717C238.176,78.780,238.133,78.842,238.087,78.903C238.042,78.964,237.996,79.024,237.947,79.082C237.899,79.141,237.850,79.198,237.799,79.255C237.748,79.311,237.695,79.366,237.642,79.419ZZ" id="w"/></defs><use href="#w" mask="url(#x)" style="fill: none; stroke-width: 3; stroke: rgb(0, 0, 0); stroke-opacity: 1;"/><use href="#w" style="fill: none; stroke-width: 1.5; stroke: none; stroke-opacity: 1;"/></g></g><defs><filter id="y" x="-.271" y="-.271" width="1.647" height="1.647" filterUnits="objectBoundingBox" color-interpolation-filters="sRGB"><feFlood flood-opacity="0" result="BackgroundImageFix"/><feColorMatrix in="SourceAlpha" values="0 0 0 0 0 0 0 0 0 0 0 0 0 0 0 0 0 0 127 0"/><feOffset dx="4" dy="4"/><feGaussianBlur stdDeviation="2"/><feColorMatrix values="0 0 0 0 0 0 0 0 0 0 0 0 0 0 0 0 0 0 0.2 0"/><feBlend in2="BackgroundImageFix" result="filter_e3f8f774-1dd2-807f-8005-a3c13c8c34fb"/><feBlend in="SourceGraphic" in2="filter_e3f8f774-1dd2-807f-8005-a3c13c8c34fb" result="shape"/></filter></defs><path d="M214.934,146.723L164.129,197.518C164.062,197.586,163.993,197.651,163.922,197.715C163.851,197.779,163.779,197.842,163.705,197.902C163.632,197.963,163.557,198.021,163.480,198.078C163.403,198.135,163.325,198.190,163.246,198.243C163.167,198.296,163.086,198.347,163.004,198.396C162.922,198.445,162.839,198.492,162.755,198.537C162.671,198.582,162.586,198.625,162.500,198.665C162.413,198.706,162.326,198.745,162.238,198.781C162.150,198.818,162.061,198.852,161.971,198.884C161.881,198.916,161.790,198.946,161.699,198.974C161.608,199.002,161.516,199.027,161.423,199.050C161.331,199.073,161.237,199.094,161.144,199.113C161.050,199.131,160.956,199.148,160.862,199.162C160.767,199.176,160.673,199.187,160.578,199.197C160.483,199.206,160.387,199.213,160.292,199.218C160.197,199.222,160.101,199.225,160.006,199.225C159.910,199.225,159.815,199.222,159.720,199.218C159.624,199.213,159.529,199.206,159.434,199.197C159.339,199.187,159.244,199.176,159.150,199.162C159.056,199.148,158.962,199.131,158.868,199.113C158.774,199.094,158.681,199.073,158.589,199.050C158.496,199.027,158.404,199.002,158.313,198.974C158.221,198.946,158.131,198.916,158.041,198.884C157.951,198.852,157.862,198.818,157.774,198.781C157.686,198.745,157.598,198.706,157.512,198.665C157.426,198.625,157.341,198.582,157.257,198.537C157.172,198.492,157.089,198.445,157.008,198.396C156.926,198.347,156.845,198.296,156.766,198.243C156.687,198.190,156.609,198.135,156.532,198.078C156.455,198.021,156.380,197.963,156.306,197.902C156.233,197.842,156.160,197.779,156.090,197.715C156.019,197.651,155.950,197.586,155.883,197.518L103.949,145.594C103.882,145.527,103.816,145.458,103.752,145.388C103.688,145.317,103.626,145.245,103.566,145.172C103.506,145.098,103.447,145.023,103.390,144.947C103.334,144.871,103.279,144.793,103.226,144.714C103.173,144.635,103.123,144.555,103.074,144.473C103.024,144.392,102.978,144.309,102.933,144.225C102.888,144.141,102.845,144.056,102.805,143.971C102.764,143.885,102.725,143.798,102.689,143.710C102.653,143.622,102.618,143.534,102.586,143.444C102.554,143.355,102.525,143.264,102.497,143.173C102.469,143.083,102.444,142.991,102.421,142.899C102.398,142.807,102.377,142.714,102.358,142.621C102.340,142.528,102.323,142.434,102.310,142.340C102.295,142.246,102.284,142.152,102.275,142.057C102.265,141.963,102.258,141.868,102.254,141.773C102.249,141.678,102.247,141.583,102.247,141.488C102.247,141.393,102.249,141.298,102.254,141.203C102.258,141.108,102.265,141.014,102.275,140.919C102.284,140.825,102.295,140.730,102.310,140.636C102.323,140.542,102.340,140.449,102.358,140.356C102.377,140.263,102.398,140.170,102.421,140.077C102.444,139.985,102.469,139.894,102.497,139.803C102.525,139.712,102.554,139.622,102.586,139.532C102.618,139.443,102.653,139.354,102.689,139.266C102.725,139.179,102.764,139.092,102.805,139.006C102.845,138.920,102.888,138.835,102.933,138.751C102.978,138.668,103.024,138.585,103.074,138.503C103.122,138.422,103.173,138.341,103.226,138.262C103.279,138.183,103.334,138.105,103.390,138.029C103.447,137.953,103.506,137.878,103.566,137.805C103.626,137.731,103.688,137.659,103.752,137.589C103.816,137.518,103.882,137.449,103.949,137.382L154.754,86.587C154.821,86.519,154.890,86.454,154.961,86.390C155.032,86.326,155.104,86.264,155.177,86.203C155.251,86.143,155.326,86.084,155.403,86.027C155.479,85.970,155.557,85.916,155.637,85.863C155.716,85.809,155.797,85.758,155.878,85.709C155.960,85.660,156.043,85.613,156.127,85.568C156.212,85.523,156.297,85.481,156.383,85.440C156.470,85.399,156.557,85.361,156.645,85.324C156.733,85.287,156.822,85.253,156.912,85.221C157.002,85.189,157.092,85.159,157.184,85.132C157.275,85.104,157.367,85.078,157.460,85.055C157.552,85.032,157.645,85.011,157.739,84.992C157.832,84.974,157.927,84.957,158.021,84.944C158.115,84.930,158.210,84.918,158.305,84.908C158.400,84.899,158.495,84.892,158.591,84.887C158.686,84.883,158.781,84.880,158.877,84.880C158.972,84.880,159.068,84.883,159.163,84.887C159.258,84.892,159.354,84.899,159.449,84.908C159.544,84.918,159.638,84.930,159.733,84.944C159.827,84.957,159.921,84.974,160.015,84.992C160.108,85.011,160.201,85.032,160.294,85.055C160.387,85.078,160.479,85.104,160.570,85.132C160.661,85.159,160.752,85.189,160.842,85.221C160.932,85.253,161.021,85.287,161.109,85.324C161.197,85.361,161.284,85.399,161.370,85.440C161.457,85.481,161.542,85.523,161.626,85.568C161.710,85.613,161.793,85.660,161.875,85.709C161.957,85.758,162.038,85.809,162.117,85.863C162.196,85.916,162.274,85.970,162.351,86.027C162.427,86.084,162.503,86.143,162.576,86.203C162.650,86.264,162.722,86.326,162.793,86.390C162.864,86.454,162.933,86.519,163.000,86.587L214.934,138.511C215.001,138.578,215.067,138.647,215.131,138.717C215.194,138.788,215.257,138.860,215.317,138.933C215.377,139.007,215.436,139.082,215.492,139.158C215.549,139.235,215.604,139.312,215.657,139.391C215.710,139.470,215.760,139.550,215.809,139.632C215.858,139.714,215.905,139.796,215.950,139.880C215.995,139.964,216.037,140.049,216.078,140.134C216.119,140.220,216.157,140.307,216.194,140.395C216.230,140.483,216.264,140.572,216.296,140.661C216.328,140.751,216.358,140.841,216.386,140.932C216.413,141.023,216.439,141.114,216.462,141.206C216.485,141.298,216.506,141.391,216.524,141.484C216.543,141.578,216.559,141.671,216.573,141.765C216.587,141.859,216.599,141.953,216.608,142.048C216.617,142.142,216.624,142.237,216.629,142.332C216.634,142.427,216.636,142.522,216.636,142.617C216.636,142.712,216.634,142.807,216.629,142.902C216.624,142.997,216.617,143.091,216.608,143.186C216.599,143.281,216.587,143.375,216.573,143.469C216.559,143.563,216.543,143.656,216.524,143.750C216.506,143.843,216.485,143.935,216.462,144.028C216.439,144.120,216.413,144.211,216.386,144.302C216.358,144.393,216.328,144.483,216.296,144.573C216.264,144.662,216.230,144.751,216.194,144.839C216.157,144.927,216.119,145.013,216.078,145.099C216.037,145.185,215.995,145.270,215.950,145.354C215.905,145.438,215.858,145.520,215.809,145.602C215.760,145.683,215.710,145.764,215.657,145.843C215.604,145.922,215.549,146.000,215.492,146.076C215.436,146.152,215.377,146.227,215.317,146.301C215.257,146.374,215.194,146.446,215.131,146.517C215.067,146.587,215.001,146.656,214.934,146.723ZL214.934,146.723Z" filter="url(#y)" style="fill: rgb(99, 163, 180); fill-opacity: 0;" fill="none" class="fills"/><g fill-rule="evenodd" class="strokes"><g class="outer-stroke-shape"><defs><mask id="A" x="98.625" y="81.259" width="121.632" height="121.587" maskUnits="userSpaceOnUse"><use href="#z" style="fill: none; stroke: white; stroke-width: 3;"/><use href="#z" style="fill: black; stroke: none;"/></mask><path d="M214.934,146.723L164.129,197.518C164.062,197.586,163.993,197.651,163.922,197.715C163.851,197.779,163.779,197.842,163.705,197.902C163.632,197.963,163.557,198.021,163.480,198.078C163.403,198.135,163.325,198.190,163.246,198.243C163.167,198.296,163.086,198.347,163.004,198.396C162.922,198.445,162.839,198.492,162.755,198.537C162.671,198.582,162.586,198.625,162.500,198.665C162.413,198.706,162.326,198.745,162.238,198.781C162.150,198.818,162.061,198.852,161.971,198.884C161.881,198.916,161.790,198.946,161.699,198.974C161.608,199.002,161.516,199.027,161.423,199.050C161.331,199.073,161.237,199.094,161.144,199.113C161.050,199.131,160.956,199.148,160.862,199.162C160.767,199.176,160.673,199.187,160.578,199.197C160.483,199.206,160.387,199.213,160.292,199.218C160.197,199.222,160.101,199.225,160.006,199.225C159.910,199.225,159.815,199.222,159.720,199.218C159.624,199.213,159.529,199.206,159.434,199.197C159.339,199.187,159.244,199.176,159.150,199.162C159.056,199.148,158.962,199.131,158.868,199.113C158.774,199.094,158.681,199.073,158.589,199.050C158.496,199.027,158.404,199.002,158.313,198.974C158.221,198.946,158.131,198.916,158.041,198.884C157.951,198.852,157.862,198.818,157.774,198.781C157.686,198.745,157.598,198.706,157.512,198.665C157.426,198.625,157.341,198.582,157.257,198.537C157.172,198.492,157.089,198.445,157.008,198.396C156.926,198.347,156.845,198.296,156.766,198.243C156.687,198.190,156.609,198.135,156.532,198.078C156.455,198.021,156.380,197.963,156.306,197.902C156.233,197.842,156.160,197.779,156.090,197.715C156.019,197.651,155.950,197.586,155.883,197.518L103.949,145.594C103.882,145.527,103.816,145.458,103.752,145.388C103.688,145.317,103.626,145.245,103.566,145.172C103.506,145.098,103.447,145.023,103.390,144.947C103.334,144.871,103.279,144.793,103.226,144.714C103.173,144.635,103.123,144.555,103.074,144.473C103.024,144.392,102.978,144.309,102.933,144.225C102.888,144.141,102.845,144.056,102.805,143.971C102.764,143.885,102.725,143.798,102.689,143.710C102.653,143.622,102.618,143.534,102.586,143.444C102.554,143.355,102.525,143.264,102.497,143.173C102.469,143.083,102.444,142.991,102.421,142.899C102.398,142.807,102.377,142.714,102.358,142.621C102.340,142.528,102.323,142.434,102.310,142.340C102.295,142.246,102.284,142.152,102.275,142.057C102.265,141.963,102.258,141.868,102.254,141.773C102.249,141.678,102.247,141.583,102.247,141.488C102.247,141.393,102.249,141.298,102.254,141.203C102.258,141.108,102.265,141.014,102.275,140.919C102.284,140.825,102.295,140.730,102.310,140.636C102.323,140.542,102.340,140.449,102.358,140.356C102.377,140.263,102.398,140.170,102.421,140.077C102.444,139.985,102.469,139.894,102.497,139.803C102.525,139.712,102.554,139.622,102.586,139.532C102.618,139.443,102.653,139.354,102.689,139.266C102.725,139.179,102.764,139.092,102.805,139.006C102.845,138.920,102.888,138.835,102.933,138.751C102.978,138.668,103.024,138.585,103.074,138.503C103.122,138.422,103.173,138.341,103.226,138.262C103.279,138.183,103.334,138.105,103.390,138.029C103.447,137.953,103.506,137.878,103.566,137.805C103.626,137.731,103.688,137.659,103.752,137.589C103.816,137.518,103.882,137.449,103.949,137.382L154.754,86.587C154.821,86.519,154.890,86.454,154.961,86.390C155.032,86.326,155.104,86.264,155.177,86.203C155.251,86.143,155.326,86.084,155.403,86.027C155.479,85.970,155.557,85.916,155.637,85.863C155.716,85.809,155.797,85.758,155.878,85.709C155.960,85.660,156.043,85.613,156.127,85.568C156.212,85.523,156.297,85.481,156.383,85.440C156.470,85.399,156.557,85.361,156.645,85.324C156.733,85.287,156.822,85.253,156.912,85.221C157.002,85.189,157.092,85.159,157.184,85.132C157.275,85.104,157.367,85.078,157.460,85.055C157.552,85.032,157.645,85.011,157.739,84.992C157.832,84.974,157.927,84.957,158.021,84.944C158.115,84.930,158.210,84.918,158.305,84.908C158.400,84.899,158.495,84.892,158.591,84.887C158.686,84.883,158.781,84.880,158.877,84.880C158.972,84.880,159.068,84.883,159.163,84.887C159.258,84.892,159.354,84.899,159.449,84.908C159.544,84.918,159.638,84.930,159.733,84.944C159.827,84.957,159.921,84.974,160.015,84.992C160.108,85.011,160.201,85.032,160.294,85.055C160.387,85.078,160.479,85.104,160.570,85.132C160.661,85.159,160.752,85.189,160.842,85.221C160.932,85.253,161.021,85.287,161.109,85.324C161.197,85.361,161.284,85.399,161.370,85.440C161.457,85.481,161.542,85.523,161.626,85.568C161.710,85.613,161.793,85.660,161.875,85.709C161.957,85.758,162.038,85.809,162.117,85.863C162.196,85.916,162.274,85.970,162.351,86.027C162.427,86.084,162.503,86.143,162.576,86.203C162.650,86.264,162.722,86.326,162.793,86.390C162.864,86.454,162.933,86.519,163.000,86.587L214.934,138.511C215.001,138.578,215.067,138.647,215.131,138.717C215.194,138.788,215.257,138.860,215.317,138.933C215.377,139.007,215.436,139.082,215.492,139.158C215.549,139.235,215.604,139.312,215.657,139.391C215.710,139.470,215.760,139.550,215.809,139.632C215.858,139.714,215.905,139.796,215.950,139.880C215.995,139.964,216.037,140.049,216.078,140.134C216.119,140.220,216.157,140.307,216.194,140.395C216.230,140.483,216.264,140.572,216.296,140.661C216.328,140.751,216.358,140.841,216.386,140.932C216.413,141.023,216.439,141.114,216.462,141.206C216.485,141.298,216.506,141.391,216.524,141.484C216.543,141.578,216.559,141.671,216.573,141.765C216.587,141.859,216.599,141.953,216.608,142.048C216.617,142.142,216.624,142.237,216.629,142.332C216.634,142.427,216.636,142.522,216.636,142.617C216.636,142.712,216.634,142.807,216.629,142.902C216.624,142.997,216.617,143.091,216.608,143.186C216.599,143.281,216.587,143.375,216.573,143.469C216.559,143.563,216.543,143.656,216.524,143.750C216.506,143.843,216.485,143.935,216.462,144.028C216.439,144.120,216.413,144.211,216.386,144.302C216.358,144.393,216.328,144.483,216.296,144.573C216.264,144.662,216.230,144.751,216.194,144.839C216.157,144.927,216.119,145.013,216.078,145.099C216.037,145.185,215.995,145.270,215.950,145.354C215.905,145.438,215.858,145.520,215.809,145.602C215.760,145.683,215.710,145.764,215.657,145.843C215.604,145.922,215.549,146.000,215.492,146.076C215.436,146.152,215.377,146.227,215.317,146.301C215.257,146.374,215.194,146.446,215.131,146.517C215.067,146.587,215.001,146.656,214.934,146.723ZL214.934,146.723Z" id="z"/></defs><use href="#z" mask="url(#A)" style="fill: none; stroke-width: 3; stroke: rgb(0, 0, 0); stroke-opacity: 1;"/><use href="#z" style="fill: none; stroke-width: 1.5; stroke: none; stroke-opacity: 1;"/></g></g></svg>