<?xml version="1.0" encoding="utf-8"?>
<svg width="15" height="15" viewBox="0 0 15 15" fill="none" xmlns="http://www.w3.org/2000/svg">
    <g id="Group">
        <g id="Group">
            <g fill="#000000">
                <path id="Rectangle"
                    d="M3.33333 0C5.17453 0 6.66667 1.49213 6.66667 3.33333L6.66667 5.83333C6.66667 7.67453 5.17453 9.16667 3.33333 9.16667L3.33333 9.16667C1.49213 9.16667 0 7.67453 0 5.83333L0 3.33333C0 1.49213 1.49213 0 3.33333 0Z" />
                <path
                    d="M6.66667 3.33333C6.66667 1.49213 5.17453 0 3.33333 0C1.49213 0 0 1.49213 0 3.33333L0 5.83333C0 7.67453 1.49213 9.16667 3.33333 9.16667C5.17453 9.16667 6.66667 7.67453 6.66667 5.83333L6.66667 3.33333ZM1 3.33333Q1 1 3.33333 1Q5.66667 1 5.66667 3.33333L5.66667 5.83333Q5.66667 6.80002 4.98334 7.48334Q4.30002 8.16667 3.33333 8.16667Q1 8.16667 1 5.83333L1 3.33333Z"
                    fill="#000000" fill-rule="evenodd" />
            </g>
            <g fill="#000000" transform="translate(8.333 5.833)">
                <path id="Rectangle"
                    d="M3.33333 0C5.17453 0 6.66667 1.49213 6.66667 3.33333L6.66667 5.83333C6.66667 7.67453 5.17453 9.16667 3.33333 9.16667L3.33333 9.16667C1.49213 9.16667 0 7.67453 0 5.83333L0 3.33333C0 1.49213 1.49213 0 3.33333 0Z" />
                <path
                    d="M6.66667 3.33333C6.66667 1.49213 5.17453 0 3.33333 0C1.49213 0 0 1.49213 0 3.33333L0 5.83333C0 7.67453 1.49213 9.16667 3.33333 9.16667C5.17453 9.16667 6.66667 7.67453 6.66667 5.83333L6.66667 3.33333ZM1 3.33333Q1 1 3.33333 1Q4.30002 1 4.98334 1.68332Q5.66667 2.36665 5.66667 3.33333L5.66667 5.83333Q5.66667 6.80002 4.98334 7.48334Q4.30002 8.16667 3.33333 8.16667Q1 8.16666 1 5.83333L1 3.33333Z"
                    fill="#000000" fill-rule="evenodd" />
            </g>
        </g>
        <g fill="#000000" transform="translate(8.333 5.833)">
            <path id="Rectangle"
                d="M3.33333 0C5.17453 0 6.66667 1.49213 6.66667 3.33333L6.66667 5.83333C6.66667 7.67453 5.17453 9.16667 3.33333 9.16667L3.33333 9.16667C1.49213 9.16667 0 7.67453 0 5.83333L0 3.33333C0 1.49213 1.49213 0 3.33333 0Z" />
            <path
                d="M6.66667 3.33333C6.66667 1.49213 5.17453 0 3.33333 0C1.49213 0 0 1.49213 0 3.33333L0 5.83333C0 7.67453 1.49213 9.16667 3.33333 9.16667C5.17453 9.16667 6.66667 7.67453 6.66667 5.83333L6.66667 3.33333ZM1 3.33333Q1 1 3.33333 1Q4.30002 1 4.98334 1.68332Q5.66667 2.36665 5.66667 3.33333L5.66667 5.83333Q5.66667 6.80002 4.98334 7.48334Q4.30002 8.16667 3.33333 8.16667Q1 8.16666 1 5.83333L1 3.33333Z"
                fill="#000000" fill-rule="evenodd" />
        </g>
        <g fill="#FFFFFF" transform="translate(0 10.833)">
            <path id="Rectangle"
                d="M4.58333 0C5.73408 0 6.66667 0.932584 6.66667 2.08333L6.66667 2.08333C6.66667 3.23408 5.73408 4.16667 4.58333 4.16667L2.08333 4.16667C0.932584 4.16667 0 3.23408 0 2.08333L0 2.08333C0 0.932584 0.932584 0 2.08333 0L4.58333 0Z" />
            <path
                d="M0 2.08333Q0 1.98099 0.0100318 1.87913Q0.0200636 1.77728 0.0400307 1.6769Q0.0599977 1.57651 0.0897077 1.47857Q0.119418 1.38063 0.158584 1.28608Q0.197751 1.19152 0.245997 1.10126Q0.294244 1.01099 0.351105 0.925896Q0.407966 0.840797 0.472895 0.761681Q0.537824 0.682565 0.610194 0.610194Q0.682565 0.537824 0.761681 0.472895Q0.840797 0.407966 0.925895 0.351105Q1.01099 0.294244 1.10126 0.245997Q1.19152 0.197751 1.28608 0.158584Q1.38063 0.119418 1.47857 0.0897077Q1.57651 0.0599977 1.6769 0.0400307Q1.77728 0.0200636 1.87913 0.0100318Q1.98099 0 2.08333 0L4.58333 0Q4.68568 0 4.78754 0.0100318Q4.88939 0.0200636 4.98977 0.0400307Q5.09015 0.0599977 5.18809 0.0897077Q5.28603 0.119418 5.38059 0.158584Q5.47515 0.197751 5.56541 0.245997Q5.65567 0.294244 5.74077 0.351105Q5.82587 0.407966 5.90499 0.472895Q5.9841 0.537824 6.05647 0.610194Q6.12884 0.682565 6.19377 0.761681Q6.2587 0.840797 6.31556 0.925895Q6.37242 1.01099 6.42067 1.10126Q6.46891 1.19152 6.50808 1.28608Q6.54725 1.38063 6.57696 1.47857Q6.60667 1.57651 6.62664 1.6769Q6.6466 1.77728 6.65663 1.87913Q6.66667 1.98099 6.66667 2.08333Q6.66667 2.18568 6.65663 2.28754Q6.6466 2.38939 6.62664 2.48977Q6.60667 2.59015 6.57696 2.68809Q6.54725 2.78603 6.50808 2.88059Q6.46891 2.97515 6.42067 3.06541Q6.37242 3.15567 6.31556 3.24077Q6.2587 3.32587 6.19377 3.40499Q6.12884 3.4841 6.05647 3.55647Q5.9841 3.62884 5.90499 3.69377Q5.82587 3.7587 5.74077 3.81556Q5.65567 3.87242 5.56541 3.92067Q5.47515 3.96892 5.38059 4.00808Q5.28603 4.04725 5.18809 4.07696Q5.09015 4.10667 4.98977 4.12664Q4.88939 4.1466 4.78754 4.15664Q4.68568 4.16667 4.58333 4.16667L2.08333 4.16667Q1.98099 4.16667 1.87913 4.15664Q1.77728 4.1466 1.6769 4.12664Q1.57651 4.10667 1.47857 4.07696Q1.38063 4.04725 1.28608 4.00808Q1.19152 3.96892 1.10126 3.92067Q1.01099 3.87242 0.925896 3.81556Q0.840797 3.7587 0.761681 3.69377Q0.682565 3.62884 0.610194 3.55647Q0.537824 3.4841 0.472895 3.40499Q0.407966 3.32587 0.351105 3.24077Q0.294244 3.15567 0.245997 3.06541Q0.197751 2.97515 0.158584 2.88059Q0.119418 2.78603 0.0897077 2.68809Q0.0599977 2.59015 0.0400307 2.48977Q0.0200636 2.38939 0.0100318 2.28754Q0 2.18568 0 2.08333ZM2.08333 1Q2.07513 1 2.06708 1.02082Q2.05903 1.04163 2.05144 1.08246Q2.04386 1.1233 2.03704 1.18257Q2.03021 1.24185 2.02441 1.3173Q2.0186 1.39275 2.01404 1.48147Q2.00948 1.57018 2.00634 1.66876Q2.0032 1.76734 2.0016 1.87199Q2 1.97663 2 2.08333Q2 2.19003 2.0016 2.29468Q2.0032 2.39933 2.00634 2.49791Q2.00948 2.59648 2.01404 2.6852Q2.0186 2.77392 2.02441 2.84937Q2.03021 2.92481 2.03704 2.98409Q2.04386 3.04337 2.05144 3.0842Q2.05903 3.12504 2.06708 3.14585Q2.07513 3.16667 2.08333 3.16667L4.58333 3.16667Q4.63655 3.16667 4.68952 3.16145Q4.74248 3.15623 4.79468 3.14585Q4.84688 3.13547 4.89781 3.12002Q4.94874 3.10457 4.99791 3.0842Q5.04708 3.06384 5.09401 3.03875Q5.14095 3.01366 5.1852 2.98409Q5.22945 2.95453 5.27059 2.92076Q5.31173 2.887 5.34936 2.84937Q5.387 2.81173 5.42076 2.77059Q5.45452 2.72945 5.48409 2.6852Q5.51366 2.64095 5.53875 2.59401Q5.56384 2.54708 5.5842 2.49791Q5.60457 2.44874 5.62002 2.39781Q5.63547 2.34688 5.64585 2.29468Q5.65623 2.24248 5.66145 2.18952Q5.66667 2.13655 5.66667 2.08333Q5.66667 2.03011 5.66145 1.97715Q5.65623 1.92418 5.64585 1.87199Q5.63547 1.81979 5.62002 1.76886Q5.60457 1.71793 5.5842 1.66876Q5.56384 1.61959 5.53875 1.57265Q5.51366 1.52572 5.48409 1.48147Q5.45452 1.43721 5.42076 1.39607Q5.387 1.35493 5.34936 1.3173Q5.31173 1.27967 5.27059 1.24591Q5.22945 1.21214 5.1852 1.18257Q5.14095 1.15301 5.09401 1.12792Q5.04708 1.10283 4.99791 1.08246Q4.94874 1.0621 4.89781 1.04665Q4.84688 1.0312 4.79468 1.02082Q4.74248 1.01043 4.68952 1.00522Q4.63655 1 4.58333 1L2.08333 1Z"
                fill="#000000" fill-rule="evenodd" />
        </g>
        <g fill="#536DFE" fill-opacity="0" transform="translate(8 0)">
            <path id="Rectangle"
                d="M4.58333 0C5.73408 0 6.66667 0.932584 6.66667 2.08333L6.66667 2.08333C6.66667 3.23408 5.73408 4.16667 4.58333 4.16667L2.08333 4.16667C0.932584 4.16667 0 3.23408 0 2.08333L0 2.08333C0 0.932584 0.932584 0 2.08333 0L4.58333 0Z" />
            <path
                d="M0 2.08333Q0 1.98099 0.0100318 1.87913Q0.0200636 1.77728 0.0400307 1.67689Q0.0599977 1.57651 0.0897076 1.47857Q0.119418 1.38063 0.158584 1.28608Q0.197751 1.19152 0.245997 1.10126Q0.294244 1.01099 0.351105 0.925895Q0.407966 0.840796 0.472895 0.761681Q0.537823 0.682565 0.610194 0.610194Q0.682565 0.537823 0.76168 0.472895Q0.840796 0.407966 0.925895 0.351105Q1.01099 0.294244 1.10126 0.245997Q1.19152 0.197751 1.28608 0.158584Q1.38063 0.119418 1.47857 0.0897076Q1.57651 0.0599977 1.67689 0.0400307Q1.77728 0.0200636 1.87913 0.0100318Q1.98099 0 2.08333 0L4.58333 0Q4.68568 0 4.78754 0.0100318Q4.88939 0.0200636 4.98977 0.0400307Q5.09015 0.0599977 5.18809 0.0897076Q5.28603 0.119418 5.38059 0.158584Q5.47515 0.197751 5.56541 0.245997Q5.65567 0.294244 5.74077 0.351105Q5.82587 0.407966 5.90499 0.472895Q5.9841 0.537823 6.05647 0.610194Q6.12884 0.682565 6.19377 0.761681Q6.2587 0.840796 6.31556 0.925895Q6.37242 1.01099 6.42067 1.10126Q6.46891 1.19152 6.50808 1.28608Q6.54725 1.38063 6.57696 1.47857Q6.60667 1.57651 6.62664 1.6769Q6.6466 1.77728 6.65663 1.87913Q6.66667 1.98099 6.66667 2.08333Q6.66667 2.18568 6.65663 2.28754Q6.6466 2.38939 6.62663 2.48977Q6.60667 2.59015 6.57696 2.68809Q6.54725 2.78603 6.50808 2.88059Q6.46891 2.97515 6.42067 3.06541Q6.37242 3.15567 6.31556 3.24077Q6.2587 3.32587 6.19377 3.40499Q6.12884 3.4841 6.05647 3.55647Q5.9841 3.62884 5.90499 3.69377Q5.82587 3.7587 5.74077 3.81556Q5.65567 3.87242 5.56541 3.92067Q5.47515 3.96891 5.38059 4.00808Q5.28603 4.04725 5.18809 4.07696Q5.09015 4.10667 4.98977 4.12664Q4.88939 4.1466 4.78754 4.15663Q4.68568 4.16667 4.58333 4.16667L2.08333 4.16667Q1.98099 4.16667 1.87913 4.15663Q1.77728 4.1466 1.67689 4.12664Q1.57651 4.10667 1.47857 4.07696Q1.38063 4.04725 1.28608 4.00808Q1.19152 3.96892 1.10126 3.92067Q1.01099 3.87242 0.925895 3.81556Q0.840796 3.7587 0.76168 3.69377Q0.682565 3.62884 0.610194 3.55647Q0.537823 3.4841 0.472895 3.40499Q0.407966 3.32587 0.351105 3.24077Q0.294244 3.15567 0.245997 3.06541Q0.197751 2.97515 0.158584 2.88059Q0.119418 2.78603 0.0897076 2.68809Q0.0599977 2.59015 0.0400307 2.48977Q0.0200636 2.38939 0.0100318 2.28754Q0 2.18568 0 2.08333ZM2.08333 1Q2.07513 1 2.06708 1.02082Q2.05903 1.04163 2.05144 1.08246Q2.04386 1.1233 2.03704 1.18257Q2.03021 1.24185 2.02441 1.3173Q2.0186 1.39275 2.01404 1.48147Q2.00948 1.57018 2.00634 1.66876Q2.0032 1.76734 2.0016 1.87199Q2 1.97663 2 2.08333L2.00001 2.08483Q2.00002 2.19143 2.00163 2.29597Q2.00324 2.4005 2.00638 2.49894Q2.00953 2.59739 2.01409 2.68598Q2.01865 2.77457 2.02445 2.84989Q2.03025 2.92522 2.03707 2.9844Q2.04389 3.04358 2.05147 3.08435Q2.05905 3.12511 2.06709 3.14589Q2.07513 3.16667 2.08333 3.16667L4.58333 3.16667Q4.63655 3.16667 4.68952 3.16145Q4.74248 3.15623 4.79468 3.14585Q4.84688 3.13547 4.89781 3.12002Q4.94874 3.10457 4.99791 3.0842Q5.04708 3.06384 5.09401 3.03875Q5.14095 3.01366 5.1852 2.98409Q5.22945 2.95452 5.27059 2.92076Q5.31173 2.887 5.34936 2.84937Q5.387 2.81173 5.42076 2.77059Q5.45452 2.72945 5.48409 2.6852Q5.51366 2.64095 5.53875 2.59401Q5.56384 2.54708 5.5842 2.49791Q5.60457 2.44874 5.62002 2.39781Q5.63547 2.34688 5.64585 2.29468Q5.65623 2.24248 5.66145 2.18952Q5.66667 2.13655 5.66667 2.08333Q5.66667 2.03011 5.66145 1.97715Q5.65623 1.92418 5.64585 1.87199Q5.63547 1.81979 5.62002 1.76886Q5.60457 1.71793 5.5842 1.66876Q5.56384 1.61959 5.53875 1.57265Q5.51366 1.52572 5.48409 1.48147Q5.45452 1.43721 5.42076 1.39607Q5.387 1.35493 5.34936 1.3173Q5.31173 1.27967 5.27059 1.24591Q5.22945 1.21214 5.1852 1.18257Q5.14095 1.15301 5.09401 1.12792Q5.04708 1.10283 4.99791 1.08246Q4.94874 1.0621 4.89781 1.04665Q4.84688 1.0312 4.79468 1.02082Q4.74248 1.01043 4.68952 1.00522Q4.63655 1 4.58333 1L2.08333 1Z"
                fill="#000000" fill-rule="evenodd" />
        </g>
        <g fill="#536DFE" fill-opacity="0" transform="translate(8 0)">
            <path id="Rectangle"
                d="M4.58333 0C5.73408 0 6.66667 0.932584 6.66667 2.08333L6.66667 2.08333C6.66667 3.23408 5.73408 4.16667 4.58333 4.16667L2.08333 4.16667C0.932584 4.16667 0 3.23408 0 2.08333L0 2.08333C0 0.932584 0.932584 0 2.08333 0L4.58333 0Z" />
            <path
                d="M0 2.08333Q0 1.98099 0.0100318 1.87913Q0.0200636 1.77728 0.0400307 1.67689Q0.0599977 1.57651 0.0897076 1.47857Q0.119418 1.38063 0.158584 1.28608Q0.197751 1.19152 0.245997 1.10126Q0.294244 1.01099 0.351105 0.925895Q0.407966 0.840796 0.472895 0.761681Q0.537823 0.682565 0.610194 0.610194Q0.682565 0.537823 0.76168 0.472895Q0.840796 0.407966 0.925895 0.351105Q1.01099 0.294244 1.10126 0.245997Q1.19152 0.197751 1.28608 0.158584Q1.38063 0.119418 1.47857 0.0897076Q1.57651 0.0599977 1.67689 0.0400307Q1.77728 0.0200636 1.87913 0.0100318Q1.98099 0 2.08333 0L4.58333 0Q4.68568 0 4.78754 0.0100318Q4.88939 0.0200636 4.98977 0.0400307Q5.09015 0.0599977 5.18809 0.0897076Q5.28603 0.119418 5.38059 0.158584Q5.47515 0.197751 5.56541 0.245997Q5.65567 0.294244 5.74077 0.351105Q5.82587 0.407966 5.90499 0.472895Q5.9841 0.537823 6.05647 0.610194Q6.12884 0.682565 6.19377 0.761681Q6.2587 0.840796 6.31556 0.925895Q6.37242 1.01099 6.42067 1.10126Q6.46891 1.19152 6.50808 1.28608Q6.54725 1.38063 6.57696 1.47857Q6.60667 1.57651 6.62664 1.6769Q6.6466 1.77728 6.65663 1.87913Q6.66667 1.98099 6.66667 2.08333Q6.66667 2.18568 6.65663 2.28754Q6.6466 2.38939 6.62663 2.48977Q6.60667 2.59015 6.57696 2.68809Q6.54725 2.78603 6.50808 2.88059Q6.46891 2.97515 6.42067 3.06541Q6.37242 3.15567 6.31556 3.24077Q6.2587 3.32587 6.19377 3.40499Q6.12884 3.4841 6.05647 3.55647Q5.9841 3.62884 5.90499 3.69377Q5.82587 3.7587 5.74077 3.81556Q5.65567 3.87242 5.56541 3.92067Q5.47515 3.96891 5.38059 4.00808Q5.28603 4.04725 5.18809 4.07696Q5.09015 4.10667 4.98977 4.12664Q4.88939 4.1466 4.78754 4.15663Q4.68568 4.16667 4.58333 4.16667L2.08333 4.16667Q1.98099 4.16667 1.87913 4.15663Q1.77728 4.1466 1.67689 4.12664Q1.57651 4.10667 1.47857 4.07696Q1.38063 4.04725 1.28608 4.00808Q1.19152 3.96892 1.10126 3.92067Q1.01099 3.87242 0.925895 3.81556Q0.840796 3.7587 0.76168 3.69377Q0.682565 3.62884 0.610194 3.55647Q0.537823 3.4841 0.472895 3.40499Q0.407966 3.32587 0.351105 3.24077Q0.294244 3.15567 0.245997 3.06541Q0.197751 2.97515 0.158584 2.88059Q0.119418 2.78603 0.0897076 2.68809Q0.0599977 2.59015 0.0400307 2.48977Q0.0200636 2.38939 0.0100318 2.28754Q0 2.18568 0 2.08333ZM2.08333 1Q2.07513 1 2.06708 1.02082Q2.05903 1.04163 2.05144 1.08246Q2.04386 1.1233 2.03704 1.18257Q2.03021 1.24185 2.02441 1.3173Q2.0186 1.39275 2.01404 1.48147Q2.00948 1.57018 2.00634 1.66876Q2.0032 1.76734 2.0016 1.87199Q2 1.97663 2 2.08333L2.00001 2.08483Q2.00002 2.19143 2.00163 2.29597Q2.00324 2.4005 2.00638 2.49894Q2.00953 2.59739 2.01409 2.68598Q2.01865 2.77457 2.02445 2.84989Q2.03025 2.92522 2.03707 2.9844Q2.04389 3.04358 2.05147 3.08435Q2.05905 3.12511 2.06709 3.14589Q2.07513 3.16667 2.08333 3.16667L4.58333 3.16667Q4.63655 3.16667 4.68952 3.16145Q4.74248 3.15623 4.79468 3.14585Q4.84688 3.13547 4.89781 3.12002Q4.94874 3.10457 4.99791 3.0842Q5.04708 3.06384 5.09401 3.03875Q5.14095 3.01366 5.1852 2.98409Q5.22945 2.95452 5.27059 2.92076Q5.31173 2.887 5.34936 2.84937Q5.387 2.81173 5.42076 2.77059Q5.45452 2.72945 5.48409 2.6852Q5.51366 2.64095 5.53875 2.59401Q5.56384 2.54708 5.5842 2.49791Q5.60457 2.44874 5.62002 2.39781Q5.63547 2.34688 5.64585 2.29468Q5.65623 2.24248 5.66145 2.18952Q5.66667 2.13655 5.66667 2.08333Q5.66667 2.03011 5.66145 1.97715Q5.65623 1.92418 5.64585 1.87199Q5.63547 1.81979 5.62002 1.76886Q5.60457 1.71793 5.5842 1.66876Q5.56384 1.61959 5.53875 1.57265Q5.51366 1.52572 5.48409 1.48147Q5.45452 1.43721 5.42076 1.39607Q5.387 1.35493 5.34936 1.3173Q5.31173 1.27967 5.27059 1.24591Q5.22945 1.21214 5.1852 1.18257Q5.14095 1.15301 5.09401 1.12792Q5.04708 1.10283 4.99791 1.08246Q4.94874 1.0621 4.89781 1.04665Q4.84688 1.0312 4.79468 1.02082Q4.74248 1.01043 4.68952 1.00522Q4.63655 1 4.58333 1L2.08333 1Z"
                fill="#000000" fill-rule="evenodd" />
        </g>
        <g fill="#536DFE" fill-opacity="0" transform="translate(8 0)">
            <path id="Rectangle"
                d="M4.58333 0C5.73408 0 6.66667 0.932584 6.66667 2.08333L6.66667 2.08333C6.66667 3.23408 5.73408 4.16667 4.58333 4.16667L2.08333 4.16667C0.932584 4.16667 0 3.23408 0 2.08333L0 2.08333C0 0.932584 0.932584 0 2.08333 0L4.58333 0Z" />
            <path
                d="M0 2.08333Q0 1.98099 0.0100318 1.87913Q0.0200636 1.77728 0.0400307 1.67689Q0.0599977 1.57651 0.0897076 1.47857Q0.119418 1.38063 0.158584 1.28608Q0.197751 1.19152 0.245997 1.10126Q0.294244 1.01099 0.351105 0.925895Q0.407966 0.840796 0.472895 0.761681Q0.537823 0.682565 0.610194 0.610194Q0.682565 0.537823 0.76168 0.472895Q0.840796 0.407966 0.925895 0.351105Q1.01099 0.294244 1.10126 0.245997Q1.19152 0.197751 1.28608 0.158584Q1.38063 0.119418 1.47857 0.0897076Q1.57651 0.0599977 1.67689 0.0400307Q1.77728 0.0200636 1.87913 0.0100318Q1.98099 0 2.08333 0L4.58333 0Q4.68568 0 4.78754 0.0100318Q4.88939 0.0200636 4.98977 0.0400307Q5.09015 0.0599977 5.18809 0.0897076Q5.28603 0.119418 5.38059 0.158584Q5.47515 0.197751 5.56541 0.245997Q5.65567 0.294244 5.74077 0.351105Q5.82587 0.407966 5.90499 0.472895Q5.9841 0.537823 6.05647 0.610194Q6.12884 0.682565 6.19377 0.761681Q6.2587 0.840796 6.31556 0.925895Q6.37242 1.01099 6.42067 1.10126Q6.46891 1.19152 6.50808 1.28608Q6.54725 1.38063 6.57696 1.47857Q6.60667 1.57651 6.62664 1.6769Q6.6466 1.77728 6.65663 1.87913Q6.66667 1.98099 6.66667 2.08333Q6.66667 2.18568 6.65663 2.28754Q6.6466 2.38939 6.62663 2.48977Q6.60667 2.59015 6.57696 2.68809Q6.54725 2.78603 6.50808 2.88059Q6.46891 2.97515 6.42067 3.06541Q6.37242 3.15567 6.31556 3.24077Q6.2587 3.32587 6.19377 3.40499Q6.12884 3.4841 6.05647 3.55647Q5.9841 3.62884 5.90499 3.69377Q5.82587 3.7587 5.74077 3.81556Q5.65567 3.87242 5.56541 3.92067Q5.47515 3.96891 5.38059 4.00808Q5.28603 4.04725 5.18809 4.07696Q5.09015 4.10667 4.98977 4.12664Q4.88939 4.1466 4.78754 4.15663Q4.68568 4.16667 4.58333 4.16667L2.08333 4.16667Q1.98099 4.16667 1.87913 4.15663Q1.77728 4.1466 1.67689 4.12664Q1.57651 4.10667 1.47857 4.07696Q1.38063 4.04725 1.28608 4.00808Q1.19152 3.96892 1.10126 3.92067Q1.01099 3.87242 0.925895 3.81556Q0.840796 3.7587 0.76168 3.69377Q0.682565 3.62884 0.610194 3.55647Q0.537823 3.4841 0.472895 3.40499Q0.407966 3.32587 0.351105 3.24077Q0.294244 3.15567 0.245997 3.06541Q0.197751 2.97515 0.158584 2.88059Q0.119418 2.78603 0.0897076 2.68809Q0.0599977 2.59015 0.0400307 2.48977Q0.0200636 2.38939 0.0100318 2.28754Q0 2.18568 0 2.08333ZM2.08333 1Q2.07513 1 2.06708 1.02082Q2.05903 1.04163 2.05144 1.08246Q2.04386 1.1233 2.03704 1.18257Q2.03021 1.24185 2.02441 1.3173Q2.0186 1.39275 2.01404 1.48147Q2.00948 1.57018 2.00634 1.66876Q2.0032 1.76734 2.0016 1.87199Q2 1.97663 2 2.08333L2.00001 2.08483Q2.00002 2.19143 2.00163 2.29597Q2.00324 2.4005 2.00638 2.49894Q2.00953 2.59739 2.01409 2.68598Q2.01865 2.77457 2.02445 2.84989Q2.03025 2.92522 2.03707 2.9844Q2.04389 3.04358 2.05147 3.08435Q2.05905 3.12511 2.06709 3.14589Q2.07513 3.16667 2.08333 3.16667L4.58333 3.16667Q4.63655 3.16667 4.68952 3.16145Q4.74248 3.15623 4.79468 3.14585Q4.84688 3.13547 4.89781 3.12002Q4.94874 3.10457 4.99791 3.0842Q5.04708 3.06384 5.09401 3.03875Q5.14095 3.01366 5.1852 2.98409Q5.22945 2.95452 5.27059 2.92076Q5.31173 2.887 5.34936 2.84937Q5.387 2.81173 5.42076 2.77059Q5.45452 2.72945 5.48409 2.6852Q5.51366 2.64095 5.53875 2.59401Q5.56384 2.54708 5.5842 2.49791Q5.60457 2.44874 5.62002 2.39781Q5.63547 2.34688 5.64585 2.29468Q5.65623 2.24248 5.66145 2.18952Q5.66667 2.13655 5.66667 2.08333Q5.66667 2.03011 5.66145 1.97715Q5.65623 1.92418 5.64585 1.87199Q5.63547 1.81979 5.62002 1.76886Q5.60457 1.71793 5.5842 1.66876Q5.56384 1.61959 5.53875 1.57265Q5.51366 1.52572 5.48409 1.48147Q5.45452 1.43721 5.42076 1.39607Q5.387 1.35493 5.34936 1.3173Q5.31173 1.27967 5.27059 1.24591Q5.22945 1.21214 5.1852 1.18257Q5.14095 1.15301 5.09401 1.12792Q5.04708 1.10283 4.99791 1.08246Q4.94874 1.0621 4.89781 1.04665Q4.84688 1.0312 4.79468 1.02082Q4.74248 1.01043 4.68952 1.00522Q4.63655 1 4.58333 1L2.08333 1Z"
                fill="#000000" fill-rule="evenodd" />
        </g>
    </g>
</svg>