<svg width="242" height="70" viewBox="0 0 542 70" fill="none" xmlns="http://www.w3.org/2000/svg">
    <style>
        svg {}

        svg path:nth-of-type(11) {
            stroke-dashoffset: 233.66854858398438;
            stroke-dasharray: 233.66854858398438;
            animation: line-anime 10s 1 0.333s forwards;
            transition: fill;
        }

        svg path:nth-of-type(10) {
            stroke-dashoffset: 227.155517578125;
            stroke-dasharray: 227.155517578125;
            animation: line-anime 10s 1 0.666s forwards;
            transition: fill;
        }

        svg path:nth-of-type(9) {
            stroke-dashoffset: 219.5888671875;
            stroke-dasharray: 219.5888671875;
            animation: line-anime 10s 1 0.999s forwards;
            transition: fill;
        }

        svg path:nth-of-type(8) {
            stroke-dashoffset: 210.0989990234375;
            stroke-dasharray: 210.0989990234375;
            animation: line-anime 10s 1 1.333s forwards;
            transition: fill;
        }

        svg path:nth-of-type(7) {
            stroke-dashoffset: 242.7718963623047;
            stroke-dasharray: 242.7718963623047;
            animation: line-anime 10s 1 1.666s forwards;
            transition: fill;
        }

        svg path:nth-of-type(6) {
            stroke-dashoffset: 180.03445434570312;
            stroke-dasharray: 180.03445434570312;
            animation: line-anime 10s 1 1.999s forwards;
            transition: fill;
        }

        svg path:nth-of-type(5) {
            stroke-dashoffset: 210.09939575195312;
            stroke-dasharray: 210.09939575195312;
            animation: line-anime 10s 1 2.333s forwards;
            transition: fill;
        }

        svg path:nth-of-type(4) {
            stroke-dashoffset: 267.0637512207031;
            stroke-dasharray: 267.0637512207031;
            animation: line-anime 10s 1 2.666s forwards;
            transition: fill;
        }

        svg path:nth-of-type(3) {
            stroke-dashoffset: 210.09878540039062;
            stroke-dasharray: 210.09878540039062;
            animation: line-anime 10s 1 2.999s forwards;
            transition: fill;
        }

        svg path:nth-of-type(2) {
            stroke-dashoffset: 193.96234130859375;
            stroke-dasharray: 193.96234130859375;
            animation: line-anime 10s 1 3.333s forwards;
            transition: fill;
        }

        svg path:nth-of-type(1) {
            stroke-dashoffset: 227.155517578125;
            stroke-dasharray: 227.155517578125;
            animation: line-anime 10s 1 3.666s forwards;
            transition: fill;
        }

        @keyframes line-anime {
            50% {
                stroke-dashoffset: 0;
            }

            100% {
                stroke-width: 0;
                stroke-linecap: round;
                fill: rgb(0, 0, 0);
            }
        }
    </style>
    <path id="path1"
        d="M535.362 15.4789L534.462 13.2907L532.228 14.0692C530.733 14.5899 529.267 15.0413 527.831 15.4244L527.831 15.4244L527.821 15.4271C526.513 15.7817 524.88 16.0721 522.898 16.2827C520.931 16.4717 518.321 16.5801 515.042 16.6C511.696 16.6008 508.639 17.1085 505.918 18.1854C503.222 19.2524 500.985 20.7838 499.338 22.8447C497.651 24.9354 496.8 27.38 496.8 30.08C496.8 32.5682 497.472 34.8373 498.919 36.749L500.913 35.24L498.919 36.749C499.585 37.6285 500.398 38.4069 501.334 39.0955C501.111 39.3281 500.901 39.5698 500.705 39.8209L500.693 39.837L500.68 39.8534C499.688 41.1667 499.088 42.6733 499.088 44.33C499.088 46.8925 500.453 48.9443 502.488 50.47L502.495 50.4756L502.503 50.4811C503.478 51.2013 504.62 51.7261 505.893 52.09H504.025H498.325H495.825V54.59C495.825 57.1351 496.44 59.4568 497.846 61.3768L497.846 61.3769L497.853 61.3864C499.346 63.4062 501.657 64.6864 504.391 65.4545C507.14 66.2465 510.716 66.6 515.013 66.6C521.183 66.6 526.272 65.7563 530.052 63.8417C531.973 62.8748 533.573 61.6185 534.692 60.0044C535.828 58.366 536.375 56.4913 536.375 54.47C536.375 52.1356 535.478 50.0733 533.853 48.3708C532.317 46.736 530.285 45.5324 527.896 44.6775C525.479 43.8035 522.811 43.39 519.925 43.39H512.8C511.878 43.39 511.184 43.3321 510.684 43.2421C510.314 43.1754 510.126 43.104 510.055 43.0734C510.073 43.0334 510.098 42.9863 510.133 42.9312C510.147 42.9118 510.162 42.8929 510.176 42.8744C510.724 42.9765 511.279 43.0596 511.841 43.1238L511.849 43.1247C512.872 43.2384 514.083 43.29 515.463 43.29C518.819 43.29 521.827 42.7978 524.41 41.7184C526.973 40.6579 529.078 39.1305 530.574 37.0678C532.071 35.0034 532.813 32.6351 532.813 30.05C532.813 27.9402 532.201 26.0158 530.981 24.3614C532.587 24.2195 534.13 23.9655 535.608 23.5949L538.412 22.8919L537.312 20.2189L535.362 15.4789ZM506.525 54.59V52.2552C508.044 52.6162 509.729 52.77 511.525 52.77H518.575C520.896 52.77 522.646 53.1185 523.93 53.6923C524.512 53.9525 524.762 54.1942 524.865 54.3303C524.943 54.4348 525 54.5569 525 54.8C525 55.1761 524.896 55.4368 524.537 55.7399L524.512 55.7615L524.487 55.7838C524.083 56.1433 523.215 56.601 521.56 56.9411L521.543 56.9444L521.527 56.948C519.947 57.2944 517.782 57.49 514.975 57.49C512.094 57.49 510.076 57.2903 508.803 56.9669L508.789 56.9632L508.774 56.9597C507.437 56.6373 507.017 56.243 506.925 56.12C506.716 55.8409 506.525 55.3908 506.525 54.59ZM509.914 42.9737C509.914 42.9737 509.915 42.9741 509.915 42.9748L509.914 42.9737ZM519.922 33.6045L519.914 33.6115L519.906 33.6186C519.081 34.3587 517.651 34.93 515.2 34.93C512.294 34.93 510.637 34.2938 509.738 33.4928C508.739 32.6038 508.25 31.5319 508.25 30.08C508.25 28.6286 508.729 27.5744 509.678 26.7132C510.549 25.9251 512.171 25.29 515.05 25.29C517.652 25.29 519.137 25.8546 519.95 26.55L519.966 26.5633L519.982 26.5764C520.746 27.2082 521.288 28.2171 521.288 30.05C521.288 31.7941 520.761 32.8655 519.922 33.6045Z"
        stroke="black" stroke-width="5" />
    <path
        d="M453.48 51.38V53.88H455.98H462.28H464.78V51.38V29.3472C465.239 28.8872 465.783 28.4135 466.42 27.9286L466.421 27.9277C467.301 27.2563 468.311 26.6859 469.463 26.2242C470.531 25.8059 471.68 25.59 472.93 25.59C474.768 25.59 475.65 25.8929 475.988 26.1136L476.004 26.1238L476.02 26.1337C476.287 26.3029 476.601 26.6314 476.79 27.4762L476.792 27.4841C477.034 28.5477 477.18 30.0802 477.18 32.15V51.38V53.88H479.68H485.98H488.48V51.38V28.43C488.48 24.9729 487.408 21.9695 485.02 19.7598C482.593 17.4897 479.015 16.63 474.88 16.63C472.279 16.63 469.642 17.1333 466.982 18.0982C465.865 18.4985 464.813 18.9766 463.829 19.5344L463.827 19.5135L463.579 17.29H461.342H455.98H453.48V19.79V51.38Z"
        stroke="black" stroke-width="5" />
    <path
        d="M444.802 49.5259L445.972 46.8318L443.126 46.1073C442.344 45.9082 442.037 45.6751 441.94 45.5779C441.93 45.559 441.909 45.5132 441.885 45.4291C441.834 45.2498 441.784 44.9468 441.784 44.48V29.33C441.784 25.4198 440.188 22.1862 437.063 19.8834C433.988 17.5792 429.666 16.63 424.509 16.63C422.455 16.63 420.313 16.79 418.085 17.1046C415.818 17.4246 413.421 17.9642 410.898 18.7134L408.195 19.516L409.315 22.1035L410.965 25.9135L411.835 27.9212L413.94 27.3256C415.9 26.771 417.685 26.3882 419.299 26.1668L419.313 26.1649L419.327 26.1629C420.995 25.915 422.392 25.8 423.534 25.8C426.263 25.8 428.062 26.2524 429.177 26.9009L429.194 26.9106L429.211 26.9202C429.936 27.3272 430.447 27.9926 430.447 29.57V29.71H427.134C420.959 29.71 415.881 30.5942 412.17 32.6276C408.303 34.7472 406.109 38.0299 406.109 42.32C406.109 46.0129 407.588 49.1053 410.481 51.3689C413.333 53.6001 417.054 54.57 421.359 54.57C424.174 54.57 426.807 54.1652 429.231 53.3209L429.241 53.3175L429.251 53.314C430.679 52.8033 431.993 52.146 433.181 51.3369C433.788 51.9792 434.497 52.5273 435.306 52.9715L435.319 52.9788L435.333 52.9859C436.938 53.8421 438.746 54.3484 440.708 54.5561L442.533 54.7494L443.265 53.0659L444.802 49.5259ZM430.447 42.801C429.656 43.5943 428.696 44.2545 427.543 44.776C426.09 45.4127 424.574 45.73 422.972 45.73C420.702 45.73 419.447 45.2781 418.796 44.7776C418.262 44.3336 417.859 43.631 417.859 42.26C417.859 41.1308 418.283 40.2735 419.414 39.5062C420.562 38.7445 422.986 38.13 427.247 38.13H430.447V42.801Z"
        stroke="black" stroke-width="5" />
    <path
        d="M385.763 18.1282C385.097 18.5036 384.463 18.9264 383.859 19.395C383.186 18.6852 382.38 18.1087 381.427 17.7038C379.778 16.9843 378.028 16.63 376.201 16.63C373.873 16.63 371.727 17.1268 369.896 18.2657C369.801 18.3242 369.707 18.3836 369.614 18.4438L369.496 17.29H367.239H362.289H359.789V19.79V51.38V53.88H362.289H368.101H370.601V51.38V27.7757C371.334 26.9895 372 26.4835 372.584 26.1821L372.584 26.1821L372.595 26.1765C373.41 25.7514 374.203 25.56 375.001 25.56C375.13 25.56 375.237 25.5656 375.323 25.574C375.441 26.154 375.539 27.1448 375.539 28.67V51.38V53.88H378.039H383.926H386.426V51.38V27.7774C387.156 26.9981 387.828 26.4943 388.427 26.1922L388.427 26.1922L388.438 26.1865C389.305 25.744 390.093 25.56 390.826 25.56C390.955 25.56 391.062 25.5656 391.148 25.574C391.266 26.154 391.364 27.1448 391.364 28.67V51.38V53.88H393.864H399.714H402.214V51.38V27.86C402.214 25.2513 401.822 22.8837 400.737 21.0613C399.749 19.4017 398.377 18.1248 396.587 17.4521C395.144 16.9011 393.63 16.63 392.064 16.63C389.733 16.63 387.588 17.0774 385.763 18.1282Z"
        stroke="black" stroke-width="5" />
    <path
        d="M354.861 49.5259L356.031 46.8318L353.185 46.1073C352.403 45.9082 352.096 45.6751 351.999 45.5779C351.989 45.559 351.968 45.5132 351.944 45.4291C351.893 45.2498 351.843 44.9468 351.843 44.48V29.33C351.843 25.4198 350.247 22.1862 347.122 19.8834C344.047 17.5792 339.725 16.63 334.568 16.63C332.514 16.63 330.372 16.79 328.144 17.1046C325.877 17.4246 323.48 17.9642 320.957 18.7134L318.254 19.516L319.374 22.1035L321.024 25.9135L321.894 27.9212L323.999 27.3256C325.959 26.771 327.744 26.3882 329.358 26.1668L329.372 26.1649L329.386 26.1629C331.054 25.915 332.451 25.8 333.593 25.8C336.322 25.8 338.121 26.2524 339.236 26.9009L339.253 26.9106L339.27 26.9202C339.995 27.3272 340.506 27.9926 340.506 29.57V29.71H337.193C331.018 29.71 325.94 30.5942 322.229 32.6276C318.362 34.7472 316.168 38.0299 316.168 42.32C316.168 46.0129 317.647 49.1053 320.54 51.3689C323.392 53.6001 327.113 54.57 331.418 54.57C334.233 54.57 336.866 54.1652 339.29 53.3209L339.3 53.3175L339.31 53.314C340.738 52.8033 342.052 52.146 343.24 51.3369C343.847 51.9792 344.556 52.5273 345.365 52.9715L345.378 52.9788L345.392 52.9859C346.997 53.8421 348.805 54.3484 350.767 54.5561L352.593 54.7494L353.324 53.0659L354.861 49.5259ZM340.506 42.801C339.715 43.5943 338.756 44.2545 337.602 44.776C336.149 45.4127 334.633 45.73 333.031 45.73C330.762 45.73 329.506 45.2781 328.855 44.7776C328.321 44.3336 327.918 43.631 327.918 42.26C327.918 41.1308 328.342 40.2735 329.473 39.5062C330.621 38.7445 333.045 38.13 337.306 38.13H340.506V42.801Z"
        stroke="black" stroke-width="5" />
    <path
        d="M271.56 17.04H285.185V51.38V53.88H287.685H294.173H296.673V51.38V17.04H309.848H311.998L312.32 14.9133L312.995 10.4433L313.429 7.57001H310.523H271.56H269.06V10.07V14.54V17.04H271.56Z"
        stroke="black" stroke-width="5" />
    <path
        d="M220.793 21.7422L226.359 17.29H219.232H211.057H210.162L209.471 17.8574L195.369 29.4292V6.44V3.67753L192.621 3.95241L186.321 4.58241L184.069 4.80753V7.07V51.38V53.88H186.569H192.869H195.369V51.38V39.0608L211.347 53.2493L212.057 53.88H213.007H221.294H227.944L222.941 49.4991L205.351 34.0965L220.793 21.7422Z"
        stroke="black" stroke-width="5" />
    <path
        d="M174.979 49.5259L176.149 46.8318L173.303 46.1073C172.521 45.9082 172.214 45.6751 172.117 45.5779C172.107 45.559 172.086 45.5132 172.062 45.4291C172.011 45.2498 171.961 44.9468 171.961 44.48V29.33C171.961 25.4198 170.365 22.1861 167.24 19.8833C164.165 17.5792 159.843 16.63 154.686 16.63C152.632 16.63 150.49 16.79 148.262 17.1046C145.995 17.4246 143.598 17.9642 141.075 18.7134L138.372 19.516L139.492 22.1035L141.142 25.9135L142.012 27.9212L144.117 27.3256C146.077 26.771 147.862 26.3882 149.476 26.1668L149.49 26.1649L149.504 26.1629C151.172 25.915 152.569 25.8 153.711 25.8C156.44 25.8 158.24 26.2524 159.354 26.9009L159.371 26.9106L159.388 26.9202C160.113 27.3272 160.624 27.9926 160.624 29.57V29.71H157.311C151.136 29.71 146.058 30.5942 142.347 32.6276C138.48 34.7472 136.286 38.0299 136.286 42.32C136.286 46.0129 137.765 49.1053 140.658 51.3689C143.51 53.6001 147.231 54.57 151.536 54.57C154.351 54.57 156.984 54.1652 159.408 53.3209L159.418 53.3175L159.428 53.314C160.856 52.8033 162.17 52.146 163.358 51.3369C163.965 51.9791 164.674 52.5273 165.483 52.9715L165.496 52.9788L165.51 52.9859C167.115 53.8421 168.923 54.3484 170.886 54.5561L172.711 54.7494L173.442 53.0659L174.979 49.5259ZM160.624 42.801C159.833 43.5943 158.874 44.2545 157.72 44.776C156.267 45.4127 154.751 45.73 153.149 45.73C150.88 45.73 149.624 45.2781 148.973 44.7776C148.439 44.3336 148.036 43.631 148.036 42.26C148.036 41.1308 148.46 40.2735 149.592 39.5062C150.739 38.7445 153.164 38.13 157.424 38.13H160.624V42.801Z"
        stroke="black" stroke-width="5" />
    <path
        d="M104.042 19.3353L103.798 17.29H101.578H96.2159H93.7159V19.79V64.1V66.8625L96.4647 66.5876L102.765 65.9576L105.016 65.7325V63.47V53.0183C107.367 54.0681 110.028 54.57 112.941 54.57C116.704 54.57 120.038 53.7892 122.788 52.0542C125.463 50.3654 127.464 48.0305 128.761 45.1099C130.05 42.2413 130.666 39.0451 130.666 35.57C130.666 32.0442 130.173 28.8548 129.119 26.0525C128.019 23.1042 126.179 20.7439 123.605 19.0753C120.989 17.3625 117.671 16.63 113.878 16.63C111.187 16.63 108.645 17.1304 106.282 18.1572L106.282 18.1571L106.272 18.1617C105.494 18.504 104.75 18.8953 104.042 19.3353ZM107.936 26.8849L107.94 26.8825C109.177 26.1 110.629 25.68 112.378 25.68C114.089 25.68 115.252 26.0574 116.052 26.6135L116.063 26.6208L116.074 26.628C116.868 27.1679 117.572 28.0534 118.084 29.5027L118.086 29.5108C118.608 30.9723 118.916 32.9542 118.916 35.54C118.916 39.5183 118.123 41.9326 117.012 43.2791C115.958 44.5569 114.295 45.37 111.553 45.37C110.005 45.37 108.636 45.0843 107.413 44.5438C106.473 44.1049 105.68 43.5648 105.016 42.9276V29.2102C105.807 28.3954 106.774 27.6176 107.936 26.8849Z"
        stroke="black" stroke-width="5" />
    <path
        d="M61.3698 13.0311L61.3561 13.0198C59.9818 11.888 59.1704 10.3423 59.1704 8.51C59.1704 6.67977 60.0153 5.1625 61.3837 4.06783C62.767 2.96112 64.4425 2.5 66.2079 2.5C68.0004 2.5 69.7284 2.93782 71.1212 4.07912C72.4812 5.17292 73.3204 6.68604 73.3204 8.51C73.3204 10.3419 72.5093 11.8874 71.1355 13.0191L61.3698 13.0311ZM61.3698 13.0311L61.3837 13.0422M61.3698 13.0311L61.3837 13.0422M61.3837 13.0422C62.767 14.1489 64.4425 14.61 66.2079 14.61C68.0062 14.61 69.7395 14.1694 71.1346 13.0198L61.3837 13.0422ZM73.7329 19.79V17.29H71.2329H53.1204H50.6205V19.79V23.78V26.28H53.1204H62.4329V44.89H52.7455H50.2455V47.39V51.38V53.88H52.7455H82.3703H84.8703V51.38V47.39V44.89H82.3703H73.7329V19.79Z"
        stroke="black" stroke-width="5" />
    <path
        d="M22.4786 17.3228L22.4849 17.324C23.9922 17.6173 25.3682 18.1998 26.6332 19.0812C27.7227 19.8404 28.7131 21.053 29.5239 22.8965C30.2807 24.6172 30.7374 27.1122 30.7374 30.53C30.7374 33.7515 30.2978 36.1875 29.5485 37.9535L29.5453 37.961L29.5422 37.9685C28.7735 39.8132 27.793 41.1315 26.6584 42.0416C25.405 43.0262 24.0345 43.7065 22.5305 44.0979C20.9046 44.5071 19.275 44.71 17.6374 44.71H13.9875V16.83H17.5624C19.1674 16.83 20.8053 16.9927 22.4786 17.3228ZM36.8454 47.115C38.7082 45.2463 40.1229 42.9283 41.1279 40.2284C42.1864 37.4328 42.6748 34.1783 42.6748 30.53C42.6748 25.9957 41.9548 22.0771 40.341 18.9272C38.807 15.8851 36.6744 13.4661 33.9281 11.762C31.3443 10.124 28.4593 9.01681 25.3008 8.42334C22.2916 7.8533 19.1987 7.57001 16.0249 7.57001H5H2.5V10.07V51.38V53.88H5H16.8499C19.1087 53.88 21.3989 53.6993 23.7192 53.3407L23.728 53.3393L23.7367 53.3379C26.1569 52.9463 28.4676 52.2805 30.6625 51.3367L30.6713 51.3329C32.9884 50.3259 35.0503 48.9158 36.8454 47.115Z"
        stroke="black" stroke-width="5" />
</svg>