<svg width="488" height="59" viewBox="0 0 488 59" fill="none" xmlns="http://www.w3.org/2000/svg">
    <path fill-rule="evenodd" clip-rule="evenodd"
        d="M486.431 4.15002L485.749 35.15H485.592C486.599 36.2819 487.114 37.6806 487.114 39.2C487.114 40.8292 486.522 42.3196 485.366 43.491C484.23 44.6775 482.75 45.3 481.114 45.3C479.471 45.3 477.969 44.6973 476.793 43.5213C475.617 42.3454 475.014 40.8433 475.014 39.2C475.014 37.6806 475.53 36.2819 476.537 35.15H476.08L475.398 4.15002H486.431ZM483.214 37C482.648 36.4 481.948 36.1 481.114 36.1C480.248 36.1 479.514 36.4 478.914 37C478.314 37.6 478.014 38.3334 478.014 39.2C478.014 40.0667 478.314 40.8 478.914 41.4C479.514 42 480.248 42.3 481.114 42.3C481.948 42.3 482.648 42 483.214 41.4C483.814 40.8 484.114 40.0667 484.114 39.2C484.114 38.3334 483.814 37.6 483.214 37ZM478.464 7.15002H483.364L482.814 32.15H479.014L478.464 7.15002Z"
        fill="black" />
    <path fill-rule="evenodd" clip-rule="evenodd"
        d="M460.525 19.35C459.125 18.5167 457.575 18.1 455.875 18.1C454.175 18.1 452.625 18.5 451.225 19.3C449.825 20.1 448.709 21.2667 447.875 22.8C447.042 24.3334 446.625 26.1334 446.625 28.2C446.625 30.3 447.042 32.1334 447.875 33.7C448.709 35.2334 449.825 36.4167 451.225 37.25C452.625 38.05 454.175 38.45 455.875 38.45C457.575 38.45 459.125 38.05 460.525 37.25C461.106 36.9123 461.638 36.517 462.12 36.0643C462.324 35.8732 462.519 35.6719 462.705 35.4603C463.165 34.9364 463.572 34.3496 463.925 33.7C464.309 32.9791 464.604 32.2052 464.811 31.3784C465.054 30.4085 465.175 29.3657 465.175 28.25C465.175 26.1834 464.759 24.3834 463.925 22.85C463.556 22.171 463.128 21.5638 462.642 21.0286C462.636 21.0226 462.631 21.0166 462.625 21.0107C462.539 20.9166 462.451 20.8248 462.362 20.7352C461.817 20.191 461.205 19.7293 460.525 19.35ZM464.374 38.0592C464.671 37.6747 464.938 37.2716 465.175 36.85V42.6C465.175 45.4334 464.375 47.6334 462.775 49.2C461.209 50.7667 459.175 51.55 456.675 51.55C454.475 51.55 452.592 51.0334 451.025 50C449.459 49 448.425 47.6667 447.925 46H443.425C443.585 47.0843 443.88 48.0843 444.309 49C445.04 50.5617 446.162 51.8784 447.675 52.95C450.075 54.65 453.075 55.5 456.675 55.5C459.309 55.5 461.609 54.95 463.575 53.85C465.575 52.75 467.109 51.2167 468.175 49.25C469.242 47.3167 469.775 45.1 469.775 42.6V14.6H465.175V19.6C465.031 19.3402 464.875 19.0878 464.706 18.8427C464.053 17.8979 463.209 17.062 462.175 16.3351C461.86 16.1133 461.526 15.9016 461.175 15.7C459.409 14.6667 457.342 14.15 454.975 14.15C452.542 14.15 450.325 14.7334 448.325 15.9C446.359 17.0667 444.809 18.7167 443.675 20.85C442.542 22.95 441.975 25.4 441.975 28.2C441.975 30.9667 442.542 33.4334 443.675 35.6C444.809 37.7667 446.359 39.45 448.325 40.65C450.325 41.85 452.542 42.45 454.975 42.45C457.342 42.45 459.409 41.9167 461.175 40.85C461.526 40.6385 461.859 40.4164 462.175 40.1839C463.033 39.5529 463.766 38.8447 464.374 38.0592ZM462.113 43.7666C459.965 44.9148 457.558 45.45 454.975 45.45C453.508 45.45 452.089 45.2683 450.728 44.9023L450.799 45.138C451.077 46.067 451.634 46.8295 452.639 47.4713L452.658 47.4833L452.677 47.4957C453.674 48.1532 454.959 48.55 456.675 48.55C458.491 48.55 459.724 48.0086 460.654 47.0787L460.665 47.0675L460.676 47.0565C461.393 46.3552 461.936 45.3358 462.113 43.7666ZM446.427 43C444.127 41.5155 442.323 39.4883 441.017 36.9905C439.631 34.3411 438.975 31.3866 438.975 28.2C438.975 24.9926 439.626 22.0398 441.03 19.4339C442.407 16.8471 444.33 14.7819 446.795 13.3199L446.804 13.3142L446.814 13.3087C449.296 11.8605 452.039 11.15 454.975 11.15C457.581 11.15 460.009 11.6805 462.175 12.8243V11.6H472.775V42.6C472.775 45.5351 472.146 48.2591 470.807 50.6899C469.462 53.1649 467.516 55.1044 465.03 56.4735C462.548 57.8595 459.73 58.5 456.675 58.5C452.595 58.5 448.952 57.531 445.941 55.3981C442.867 53.2203 441.009 50.1745 440.457 46.4384L439.949 43H446.427ZM461.283 32.2793C461.846 31.2149 462.175 29.9004 462.175 28.25C462.175 26.5916 461.843 25.3018 461.289 24.2826C460.709 23.2151 459.969 22.4752 459.063 21.9696L459.027 21.9493L458.991 21.9279C458.076 21.3831 457.06 21.1 455.875 21.1C454.668 21.1 453.635 21.378 452.714 21.9048C451.837 22.4055 451.101 23.1471 450.511 24.2326C449.957 25.2518 449.625 26.5416 449.625 28.2C449.625 29.8924 449.958 31.2215 450.518 32.2795C451.106 33.3584 451.847 34.1233 452.737 34.6585C453.653 35.1767 454.678 35.45 455.875 35.45C457.078 35.45 458.108 35.174 459.027 34.6508C459.952 34.1109 460.701 33.3462 461.283 32.2793Z"
        fill="black" />
    <path fill-rule="evenodd" clip-rule="evenodd"
        d="M419.243 15.6052C419.453 15.4801 419.669 15.3617 419.893 15.25C421.459 14.4833 423.176 14.1 425.043 14.1C428.376 14.1 431.076 15.1166 433.143 17.15C435.209 19.15 436.243 22.05 436.243 25.85V42H431.743V26.5C431.743 23.7666 431.059 21.6833 429.693 20.25C428.326 18.7833 426.459 18.05 424.093 18.05C422.134 18.05 420.497 18.5495 419.183 19.5485C418.987 19.6969 418.799 19.8564 418.618 20.0268C418.524 20.1149 418.433 20.206 418.343 20.3C417.576 21.1215 417.019 22.1479 416.672 23.3794C416.386 24.3964 416.243 25.5533 416.243 26.85V42H411.693V14.6H416.243V18.5C416.264 18.4666 416.286 18.4335 416.308 18.4005C416.314 18.3912 416.32 18.382 416.326 18.3728C416.561 18.0194 416.817 17.6868 417.094 17.3749C417.708 16.6829 418.424 16.093 419.243 15.6052ZM419.243 12.2495C421.06 11.4752 423.004 11.1 425.043 11.1C429.031 11.1 432.527 12.3399 435.238 15.0028C438.052 17.732 439.243 21.5138 439.243 25.85V45H428.743V26.5C428.743 24.2407 428.182 23.0125 427.522 22.3202L427.51 22.3077L427.498 22.2952C426.801 21.5476 425.791 21.05 424.093 21.05C422.381 21.05 421.301 21.5536 420.524 22.3594C419.823 23.1183 419.243 24.4531 419.243 26.85V45H408.693V11.6H419.243V12.2495Z"
        fill="black" />
    <path fill-rule="evenodd" clip-rule="evenodd"
        d="M406.938 11.6V45H396.388V11.6H397.658C397.576 11.5264 397.496 11.4501 397.417 11.3713C396.241 10.1954 395.638 8.69325 395.638 7.05001C395.638 5.40678 396.241 3.90465 397.417 2.72869C398.593 1.55274 400.095 0.950012 401.738 0.950012C403.373 0.950012 404.854 1.57257 405.989 2.75892C407.146 3.93029 407.738 5.42075 407.738 7.05001C407.738 8.67927 407.146 10.1697 405.989 11.3411C405.904 11.4306 405.816 11.5169 405.727 11.6H406.938ZM403.838 9.25001C404.438 8.65001 404.738 7.91668 404.738 7.05001C404.738 6.18335 404.438 5.45001 403.838 4.85001C403.271 4.25001 402.571 3.95001 401.738 3.95001C400.871 3.95001 400.138 4.25001 399.538 4.85001C398.938 5.45001 398.638 6.18335 398.638 7.05001C398.638 7.91668 398.938 8.65001 399.538 9.25001C400.138 9.85001 400.871 10.15 401.738 10.15C402.571 10.15 403.271 9.85001 403.838 9.25001ZM403.938 14.6H399.388V42H403.938V14.6Z"
        fill="black" />
    <path fill-rule="evenodd" clip-rule="evenodd"
        d="M374.956 15.6052C375.166 15.4801 375.382 15.3617 375.606 15.25C377.172 14.4833 378.889 14.1 380.756 14.1C384.089 14.1 386.789 15.1166 388.856 17.15C390.922 19.15 391.956 22.05 391.956 25.85V42H387.456V26.5C387.456 23.7666 386.772 21.6833 385.406 20.25C384.039 18.7833 382.172 18.05 379.806 18.05C377.847 18.05 376.21 18.5495 374.895 19.5485C374.7 19.6969 374.512 19.8564 374.331 20.0268C374.237 20.1149 374.145 20.206 374.056 20.3C373.289 21.1215 372.732 22.1479 372.385 23.3794C372.099 24.3964 371.956 25.5533 371.956 26.85V42H367.406V14.6H371.956V18.5C371.977 18.4666 371.999 18.4335 372.02 18.4005C372.027 18.3912 372.033 18.382 372.039 18.3728C372.274 18.0194 372.53 17.6868 372.807 17.3749C373.421 16.6829 374.137 16.093 374.956 15.6052ZM374.956 12.2495C376.773 11.4752 378.717 11.1 380.756 11.1C384.744 11.1 388.239 12.3399 390.951 15.0028C393.765 17.732 394.956 21.5138 394.956 25.85V45H384.456V26.5C384.456 24.2407 383.895 23.0125 383.234 22.3202L383.223 22.3077L383.211 22.2952C382.514 21.5476 381.503 21.05 379.806 21.05C378.094 21.05 377.014 21.5536 376.237 22.3594C375.536 23.1183 374.956 24.4531 374.956 26.85V45H364.406V11.6H374.956V12.2495Z"
        fill="black" />
    <path fill-rule="evenodd" clip-rule="evenodd"
        d="M355.756 20.3616C354.121 21.7207 353.303 23.9668 353.303 27.1V42H348.753V14.6H353.303V19.05C353.499 18.6658 353.716 18.3027 353.952 17.9607C354.59 17.0373 355.373 16.2672 356.303 15.6505C356.434 15.564 356.567 15.4805 356.703 15.4C357.443 14.9726 358.26 14.6506 359.153 14.434C360.072 14.2113 361.072 14.1 362.153 14.1V18.8H360.953C358.981 18.8 357.39 19.2139 356.18 20.0417C356.049 20.1313 355.922 20.2258 355.8 20.3251C355.786 20.3372 355.771 20.3494 355.756 20.3616ZM356.303 12.2424C358.082 11.4527 360.057 11.1 362.153 11.1H365.153V21.8H360.953C358.931 21.8 357.948 22.337 357.422 22.9082C356.853 23.5255 356.303 24.7378 356.303 27.1V45H345.753V11.6H356.303V12.2424Z"
        fill="black" />
    <path fill-rule="evenodd" clip-rule="evenodd"
        d="M320.255 43.3175L320.246 43.3125C317.687 41.8678 315.666 39.8159 314.206 37.2208L314.193 37.1967L314.179 37.1723C312.744 34.5064 312.071 31.5041 312.071 28.25C312.071 25.01 312.769 22.0229 314.256 19.3792L314.26 19.3726L314.264 19.3659C315.759 16.7391 317.82 14.681 320.43 13.2687C323.008 11.8403 325.861 11.15 328.921 11.15C331.981 11.15 334.834 11.8403 337.412 13.2687C340.012 14.6756 342.06 16.7123 343.527 19.3139C345.055 21.9646 345.771 24.9759 345.771 28.25C345.771 31.543 345.03 34.5766 343.464 37.2581C341.96 39.8573 339.88 41.8993 337.26 43.3321C334.655 44.7569 331.788 45.45 328.721 45.45C325.68 45.45 322.84 44.7537 320.264 43.3225L320.255 43.3175ZM340.871 35.75C342.138 33.5834 342.771 31.0834 342.771 28.25C342.771 25.4167 342.154 22.9334 340.921 20.8C339.721 18.6667 338.071 17.0334 335.971 15.9C333.871 14.7334 331.521 14.15 328.921 14.15C326.321 14.15 323.971 14.7334 321.871 15.9C319.771 17.0334 318.104 18.6834 316.871 20.85C315.671 22.9834 315.071 25.45 315.071 28.25C315.071 31.0834 315.654 33.5834 316.821 35.75C318.021 37.8834 319.654 39.5334 321.721 40.7C323.821 41.8667 326.154 42.45 328.721 42.45C331.321 42.45 333.688 41.8667 335.821 40.7C337.954 39.5334 339.638 37.8834 340.871 35.75ZM324.271 19.25C322.904 19.9834 321.804 21.1167 320.971 22.65C320.138 24.1834 319.721 26.05 319.721 28.25C319.721 30.4834 320.121 32.3667 320.921 33.9C321.754 35.4334 322.854 36.5834 324.221 37.35C325.588 38.0834 327.088 38.45 328.721 38.45C330.354 38.45 331.888 38.0667 333.321 37.3C334.754 36.5334 335.904 35.3834 336.771 33.85C337.671 32.3167 338.121 30.45 338.121 28.25C338.121 26.05 337.688 24.1834 336.821 22.65C335.954 21.1167 334.821 19.9834 333.421 19.25C332.021 18.4834 330.504 18.1 328.871 18.1C327.204 18.1 325.671 18.4834 324.271 19.25ZM325.665 34.7201C326.565 35.1981 327.566 35.45 328.721 35.45C329.863 35.45 330.91 35.1873 331.906 34.6547C332.796 34.1788 333.548 33.4549 334.159 32.3739L334.171 32.3525L334.184 32.3314C334.756 31.3561 335.121 30.0419 335.121 28.25C335.121 26.4402 334.765 25.1102 334.209 24.1262C333.593 23.0363 332.86 22.3427 332.029 21.9075L332.004 21.8946L331.98 21.8813C331.032 21.3624 330.013 21.1 328.871 21.1C327.685 21.1 326.65 21.3674 325.712 21.8813L325.701 21.8875L325.689 21.8935C324.901 22.3167 324.197 22.9965 323.607 24.0826C323.067 25.0761 322.721 26.4226 322.721 28.25C322.721 30.1228 323.055 31.4938 323.569 32.4904C324.156 33.5616 324.862 34.2636 325.665 34.7201Z"
        fill="black" />
    <path fill-rule="evenodd" clip-rule="evenodd"
        d="M291.966 20.0318C291.861 20.1339 291.758 20.24 291.657 20.35C291.416 20.6086 291.195 20.8875 290.996 21.1867C290.226 22.3394 289.765 23.7935 289.613 25.549C289.576 25.9811 289.557 26.4314 289.557 26.9V42H285.057V26.5C285.057 23.7666 284.374 21.6833 283.007 20.25C281.674 18.7833 279.857 18.05 277.557 18.05C275.645 18.05 274.049 18.5503 272.768 19.5511C272.57 19.7056 272.38 19.8721 272.197 20.0504C272.098 20.1468 272.002 20.2466 271.907 20.35C271.112 21.202 270.543 22.2745 270.199 23.5674C269.938 24.5507 269.807 25.6616 269.807 26.9V42H265.257V14.6H269.807V18.55C269.823 18.5251 269.839 18.5003 269.854 18.4756C269.86 18.4669 269.866 18.4583 269.871 18.4496C270.11 18.0794 270.369 17.7319 270.649 17.4072C271.268 16.688 271.987 16.0803 272.807 15.5841C273.002 15.4665 273.202 15.3551 273.407 15.25C274.941 14.4833 276.624 14.1 278.457 14.1C280.757 14.1 282.791 14.6166 284.557 15.65C285.327 16.1003 286.011 16.6423 286.61 17.2762C287.292 17.9972 287.862 18.837 288.323 19.7955C288.386 19.9281 288.448 20.0629 288.507 20.2C288.771 19.5348 289.094 18.921 289.476 18.3585C289.482 18.3494 289.488 18.3404 289.494 18.3314C289.551 18.2491 289.608 18.1679 289.667 18.0878C289.88 17.7985 290.109 17.5236 290.355 17.2632C290.919 16.6665 291.569 16.1455 292.307 15.7C294.074 14.6333 296.041 14.1 298.207 14.1C300.341 14.1 302.241 14.55 303.907 15.45C305.574 16.3166 306.891 17.6333 307.857 19.4C308.824 21.1666 309.307 23.3166 309.307 25.85V42H304.807V26.5C304.807 23.7666 304.124 21.6833 302.757 20.25C301.424 18.7833 299.607 18.05 297.307 18.05C295.11 18.05 293.33 18.7106 291.966 20.0318ZM305.312 12.7992C303.16 11.6418 300.766 11.1 298.207 11.1C295.522 11.1 293.015 11.7683 290.757 13.1318C289.913 13.6413 289.152 14.2304 288.476 14.8949C287.764 14.1953 286.963 13.5815 286.072 13.0604C283.791 11.7262 281.222 11.1 278.457 11.1C276.471 11.1 274.577 11.4666 272.807 12.2231V11.6H262.257V45H272.807V26.9C272.807 24.4898 273.394 23.1536 274.1 22.3969L274.112 22.3849L274.123 22.3728C274.872 21.552 275.903 21.05 277.557 21.05C279.161 21.05 280.116 21.529 280.787 22.268L280.811 22.2944L280.836 22.3202C281.496 23.0125 282.057 24.2407 282.057 26.5V45H292.557V26.9C292.557 24.4898 293.144 23.1536 293.85 22.3969L293.862 22.3849L293.873 22.3728C294.622 21.552 295.653 21.05 297.307 21.05C298.911 21.05 299.866 21.529 300.537 22.268L300.561 22.2944L300.586 22.3202C301.246 23.0125 301.807 24.2407 301.807 26.5V45H312.307V25.85C312.307 22.9408 311.752 20.2679 310.489 17.9599C309.262 15.7178 307.535 13.9605 305.312 12.7992Z"
        fill="black" />
    <path fill-rule="evenodd" clip-rule="evenodd"
        d="M234.988 19.35C233.588 18.5167 232.038 18.1 230.338 18.1C228.638 18.1 227.088 18.5 225.688 19.3C224.288 20.1 223.171 21.2667 222.338 22.8C221.505 24.3333 221.088 26.1333 221.088 28.2C221.088 30.3 221.505 32.1333 222.338 33.7C223.171 35.2333 224.288 36.4167 225.688 37.25C227.088 38.05 228.638 38.45 230.338 38.45C232.038 38.45 233.588 38.05 234.988 37.25C235.585 36.9031 236.13 36.4954 236.622 36.0272C236.806 35.853 236.982 35.6704 237.151 35.4794C237.161 35.4682 237.17 35.457 237.18 35.4458C237.636 34.9255 238.038 34.3436 238.388 33.7C239.221 32.1333 239.638 30.3167 239.638 28.25C239.638 26.7896 239.43 25.4624 239.014 24.2683C238.841 23.7726 238.633 23.2998 238.388 22.85C238.019 22.1715 237.592 21.5649 237.106 21.03C237.057 20.9763 237.008 20.9234 236.958 20.8711C236.38 20.2675 235.724 19.7605 234.988 19.35ZM238.904 37.992C239.174 37.6281 239.419 37.2475 239.638 36.85V42H244.238V5H239.638V19.5C239.535 19.3301 239.428 19.1637 239.315 19.0009C238.613 17.9847 237.721 17.1076 236.638 16.3698C236.261 16.113 235.861 15.8731 235.438 15.65C233.605 14.65 231.621 14.15 229.488 14.15C227.021 14.15 224.788 14.7333 222.788 15.9C220.821 17.0667 219.271 18.7167 218.138 20.85C217.005 22.95 216.438 25.4 216.438 28.2C216.438 30.9667 217.005 33.4333 218.138 35.6C219.271 37.7667 220.821 39.45 222.788 40.65C224.788 41.85 227.005 42.45 229.438 42.45C231.805 42.45 233.871 41.9333 235.638 40.9C235.988 40.6885 236.322 40.4658 236.638 40.2319C237.529 39.5736 238.284 38.827 238.904 37.992ZM236.638 43.7758C234.472 44.9195 232.044 45.45 229.438 45.45C226.486 45.45 223.732 44.7146 221.245 43.2225L221.235 43.2167L221.225 43.2109C218.765 41.7098 216.849 39.6087 215.48 36.9905C214.094 34.3411 213.438 31.3866 213.438 28.2C213.438 24.9926 214.089 22.0398 215.493 19.4339C216.869 16.8471 218.793 14.7818 221.257 13.3198L221.267 13.3142L221.276 13.3087C223.765 11.8568 226.526 11.15 229.488 11.15C232.022 11.15 234.42 11.7286 236.638 12.8899V2H247.238V45H236.638V43.7758ZM235.746 32.2793C236.309 31.2149 236.638 29.9004 236.638 28.25C236.638 26.5915 236.306 25.3018 235.752 24.2825C235.172 23.215 234.432 22.4752 233.526 21.9696L233.49 21.9492L233.454 21.9279C232.538 21.3831 231.522 21.1 230.338 21.1C229.131 21.1 228.098 21.378 227.176 21.9047C226.3 22.4055 225.564 23.1471 224.974 24.2325C224.42 25.2518 224.088 26.5415 224.088 28.2C224.088 29.8924 224.42 31.2215 224.98 32.2794C225.569 33.3584 226.31 34.1233 227.2 34.6585C228.116 35.1767 229.141 35.45 230.338 35.45C231.541 35.45 232.571 35.174 233.49 34.6508C234.415 34.1109 235.164 33.3462 235.746 32.2793Z"
        fill="black" />
    <path fill-rule="evenodd" clip-rule="evenodd"
        d="M189.64 43.3175L189.631 43.3125C187.072 41.8678 185.051 39.8159 183.591 37.2208L183.577 37.1967L183.564 37.1723C182.129 34.5064 181.456 31.5041 181.456 28.25C181.456 25.01 182.154 22.0229 183.641 19.3792L183.645 19.3726L183.648 19.3659C185.144 16.7391 187.205 14.681 189.815 13.2687C192.392 11.8403 195.245 11.15 198.306 11.15C201.366 11.15 204.219 11.8403 206.797 13.2687C209.396 14.6756 211.445 16.7123 212.912 19.3139C214.44 21.9646 215.156 24.9759 215.156 28.25C215.156 31.543 214.415 34.5766 212.849 37.2581C211.345 39.8573 209.265 41.8993 206.645 43.3321C204.04 44.7569 201.173 45.45 198.106 45.45C195.065 45.45 192.225 44.7537 189.649 43.3225L189.64 43.3175ZM210.256 35.75C211.522 33.5834 212.156 31.0834 212.156 28.25C212.156 25.4167 211.539 22.9334 210.306 20.8C209.106 18.6667 207.456 17.0334 205.356 15.9C203.256 14.7334 200.906 14.15 198.306 14.15C195.706 14.15 193.356 14.7334 191.256 15.9C189.156 17.0334 187.489 18.6834 186.256 20.85C185.056 22.9834 184.456 25.45 184.456 28.25C184.456 31.0834 185.039 33.5834 186.206 35.75C187.406 37.8834 189.039 39.5334 191.106 40.7C193.206 41.8667 195.539 42.45 198.106 42.45C200.706 42.45 203.072 41.8667 205.206 40.7C207.339 39.5334 209.022 37.8834 210.256 35.75ZM193.656 19.25C192.289 19.9834 191.189 21.1167 190.356 22.65C189.522 24.1834 189.106 26.05 189.106 28.25C189.106 30.4834 189.506 32.3667 190.306 33.9C191.139 35.4334 192.239 36.5834 193.606 37.35C194.972 38.0834 196.472 38.45 198.106 38.45C199.739 38.45 201.272 38.0667 202.706 37.3C204.139 36.5334 205.289 35.3834 206.156 33.85C207.056 32.3167 207.506 30.45 207.506 28.25C207.506 26.05 207.072 24.1834 206.206 22.65C205.339 21.1167 204.206 19.9834 202.806 19.25C201.406 18.4834 199.889 18.1 198.256 18.1C196.589 18.1 195.056 18.4834 193.656 19.25ZM195.049 34.7201C195.95 35.1981 196.951 35.45 198.106 35.45C199.248 35.45 200.295 35.1873 201.291 34.6547C202.18 34.1788 202.933 33.4549 203.544 32.3739L203.556 32.3525L203.568 32.3314C204.141 31.3561 204.506 30.0419 204.506 28.25C204.506 26.4402 204.15 25.1101 203.594 24.1262C202.978 23.0363 202.244 22.3427 201.414 21.9075L201.389 21.8946L201.365 21.8813C200.417 21.3624 199.398 21.1 198.256 21.1C197.07 21.1 196.035 21.3674 195.097 21.8813L195.085 21.8875L195.074 21.8935C194.285 22.3167 193.582 22.9965 192.992 24.0826C192.452 25.0761 192.106 26.4226 192.106 28.25C192.106 30.1228 192.44 31.4938 192.954 32.4904C193.541 33.5616 194.246 34.2636 195.049 34.7201Z"
        fill="black" />
    <path fill-rule="evenodd" clip-rule="evenodd"
        d="M157.657 43.3175L157.648 43.3125C155.089 41.8678 153.068 39.8159 151.609 37.2208L151.595 37.1967L151.582 37.1723C150.146 34.5064 149.473 31.5041 149.473 28.25C149.473 25.01 150.171 22.0229 151.659 19.3792L151.662 19.3726L151.666 19.3659C153.161 16.7391 155.223 14.681 157.832 13.2687C160.41 11.8403 163.263 11.15 166.323 11.15C169.384 11.15 172.236 11.8403 174.814 13.2687C177.414 14.6756 179.462 16.7123 180.929 19.3139C182.458 21.9646 183.173 24.9759 183.173 28.25C183.173 31.543 182.433 34.5766 180.867 37.2581C179.362 39.8573 177.283 41.8993 174.663 43.3321C172.057 44.7569 169.19 45.45 166.123 45.45C163.083 45.45 160.242 44.7537 157.666 43.3225L157.657 43.3175ZM178.273 35.75C179.54 33.5834 180.173 31.0834 180.173 28.25C180.173 25.4167 179.557 22.9334 178.323 20.8C177.123 18.6667 175.473 17.0334 173.373 15.9C171.273 14.7334 168.923 14.15 166.323 14.15C163.723 14.15 161.373 14.7334 159.273 15.9C157.173 17.0334 155.507 18.6834 154.273 20.85C153.073 22.9834 152.473 25.45 152.473 28.25C152.473 31.0834 153.057 33.5834 154.223 35.75C155.423 37.8834 157.057 39.5334 159.123 40.7C161.223 41.8667 163.557 42.45 166.123 42.45C168.723 42.45 171.09 41.8667 173.223 40.7C175.357 39.5334 177.04 37.8834 178.273 35.75ZM161.673 19.25C160.307 19.9834 159.207 21.1167 158.373 22.65C157.54 24.1834 157.123 26.05 157.123 28.25C157.123 30.4834 157.523 32.3667 158.323 33.9C159.157 35.4334 160.257 36.5834 161.623 37.35C162.99 38.0834 164.49 38.45 166.123 38.45C167.757 38.45 169.29 38.0667 170.723 37.3C172.157 36.5334 173.307 35.3834 174.173 33.85C175.073 32.3167 175.523 30.45 175.523 28.25C175.523 26.05 175.09 24.1834 174.223 22.65C173.357 21.1167 172.223 19.9834 170.823 19.25C169.423 18.4834 167.907 18.1 166.273 18.1C164.607 18.1 163.073 18.4834 161.673 19.25ZM163.067 34.7201C163.968 35.1981 164.969 35.45 166.123 35.45C167.265 35.45 168.312 35.1873 169.308 34.6547C170.198 34.1788 170.951 33.4549 171.562 32.3739L171.574 32.3525L171.586 32.3314C172.158 31.3561 172.523 30.0419 172.523 28.25C172.523 26.4402 172.168 25.1101 171.612 24.1262C170.996 23.0363 170.262 22.3427 169.431 21.9075L169.407 21.8946L169.382 21.8813C168.435 21.3624 167.415 21.1 166.273 21.1C165.087 21.1 164.053 21.3674 163.114 21.8813L163.103 21.8875L163.092 21.8935C162.303 22.3167 161.599 22.9965 161.009 24.0826C160.469 25.0761 160.123 26.4226 160.123 28.25C160.123 30.1228 160.457 31.4938 160.972 32.4904C161.558 33.5616 162.264 34.2636 163.067 34.7201Z"
        fill="black" />
    <path fill-rule="evenodd" clip-rule="evenodd"
        d="M137.234 19.35C135.834 18.5167 134.284 18.1 132.584 18.1C130.884 18.1 129.334 18.5 127.934 19.3C126.534 20.1 125.418 21.2667 124.584 22.8C123.751 24.3334 123.334 26.1334 123.334 28.2C123.334 30.3 123.751 32.1334 124.584 33.7C125.418 35.2334 126.534 36.4167 127.934 37.25C129.334 38.05 130.884 38.45 132.584 38.45C134.284 38.45 135.834 38.05 137.234 37.25C137.815 36.9123 138.347 36.517 138.829 36.0642C139.033 35.8732 139.228 35.6719 139.414 35.4603C139.874 34.9364 140.281 34.3496 140.634 33.7C141.018 32.9791 141.313 32.2052 141.52 31.3784C141.763 30.4085 141.884 29.3657 141.884 28.25C141.884 26.1834 141.468 24.3834 140.634 22.85C140.265 22.171 139.837 21.5638 139.351 21.0286C139.345 21.0226 139.34 21.0166 139.334 21.0107C139.248 20.9166 139.16 20.8248 139.071 20.7352C138.526 20.1911 137.914 19.7293 137.234 19.35ZM141.083 38.0592C141.38 37.6747 141.647 37.2716 141.884 36.85V42.6C141.884 45.4334 141.084 47.6334 139.484 49.2C137.918 50.7667 135.884 51.55 133.384 51.55C131.184 51.55 129.301 51.0334 127.734 50C126.168 49 125.134 47.6667 124.634 46H120.134C120.294 47.0843 120.589 48.0843 121.018 49C121.749 50.5617 122.871 51.8784 124.384 52.95C126.784 54.65 129.784 55.5 133.384 55.5C136.018 55.5 138.318 54.95 140.284 53.85C142.284 52.75 143.818 51.2167 144.884 49.25C145.951 47.3167 146.484 45.1 146.484 42.6V14.6H141.884V19.6C141.74 19.3402 141.584 19.0878 141.415 18.8427C140.762 17.8979 139.918 17.062 138.884 16.3351C138.569 16.1133 138.235 15.9016 137.884 15.7C136.118 14.6667 134.051 14.15 131.684 14.15C129.251 14.15 127.034 14.7334 125.034 15.9C123.068 17.0667 121.518 18.7167 120.384 20.85C119.251 22.95 118.684 25.4 118.684 28.2C118.684 30.9667 119.251 33.4334 120.384 35.6C121.518 37.7667 123.068 39.45 125.034 40.65C127.034 41.85 129.251 42.45 131.684 42.45C134.051 42.45 136.118 41.9167 137.884 40.85C138.235 40.6385 138.568 40.4164 138.884 40.1839C139.742 39.5529 140.475 38.8447 141.083 38.0592ZM138.822 43.7666C136.674 44.9148 134.267 45.45 131.684 45.45C130.217 45.45 128.798 45.2683 127.437 44.9023L127.508 45.138C127.786 46.067 128.343 46.8295 129.348 47.4713L129.367 47.4833L129.386 47.4957C130.383 48.1532 131.668 48.55 133.384 48.55C135.2 48.55 136.433 48.0086 137.363 47.0787L137.374 47.0675L137.385 47.0565C138.102 46.3552 138.645 45.3358 138.822 43.7666ZM123.136 43C120.836 41.5155 119.032 39.4883 117.726 36.9905C116.34 34.3411 115.684 31.3866 115.684 28.2C115.684 24.9926 116.335 22.0398 117.739 19.4339C119.115 16.8471 121.039 14.7818 123.504 13.3199L123.513 13.3142L123.523 13.3087C126.005 11.8605 128.748 11.15 131.684 11.15C134.29 11.15 136.718 11.6805 138.884 12.8243V11.6H149.484V42.6C149.484 45.5351 148.855 48.2591 147.516 50.6899C146.171 53.1649 144.225 55.1044 141.739 56.4735C139.257 57.8595 136.439 58.5 133.384 58.5C129.304 58.5 125.661 57.531 122.65 55.3981C119.576 53.2203 117.718 50.1745 117.166 46.4384L116.658 43H123.136ZM137.992 32.2793C138.555 31.2149 138.884 29.9004 138.884 28.25C138.884 26.5916 138.552 25.3018 137.998 24.2826C137.418 23.2151 136.678 22.4752 135.772 21.9696L135.736 21.9493L135.7 21.9279C134.784 21.3831 133.769 21.1 132.584 21.1C131.377 21.1 130.344 21.378 129.423 21.9048C128.546 22.4055 127.81 23.1471 127.22 24.2326C126.666 25.2518 126.334 26.5416 126.334 28.2C126.334 29.8924 126.667 31.2215 127.227 32.2795C127.815 33.3584 128.556 34.1233 129.446 34.6585C130.362 35.1767 131.387 35.45 132.584 35.45C133.787 35.45 134.817 35.174 135.736 34.6508C136.661 34.1109 137.41 33.3462 137.992 32.2793Z"
        fill="black" />
    <path fill-rule="evenodd" clip-rule="evenodd"
        d="M106.341 32.7L98.2425 52.15H89.2693L94.5476 32.7H106.341ZM101.842 35.7H96.842L93.192 49.15H96.242L101.842 35.7Z"
        fill="black" />
    <path fill-rule="evenodd" clip-rule="evenodd"
        d="M97.0382 11.6L78.0816 57.9H66.8996L73.5276 41.6981L61.2551 11.6H72.8233L79.3518 28.4528L85.8044 11.6H97.0382ZM79.3682 36.8L70.7682 14.6H65.7182L76.7682 41.7L71.3682 54.9H76.0682L92.5682 14.6H87.8682L79.3682 36.8Z"
        fill="black" />
    <path fill-rule="evenodd" clip-rule="evenodd"
        d="M65.7714 30.55L65.7964 30.3087C65.9057 29.2516 65.9623 28.2313 65.9623 27.25C65.9623 24.3051 65.3121 21.5668 63.9452 19.1118C62.6072 16.6147 60.6703 14.6447 58.1913 13.24C55.6838 11.819 52.8616 11.15 49.8123 11.15C46.6968 11.15 43.813 11.8354 41.2446 13.2836C38.6901 14.7091 36.7053 16.7716 35.3129 19.3926C33.9126 22.0286 33.2623 25.0109 33.2623 28.25C33.2623 31.5041 33.9354 34.5064 35.3709 37.1723L35.3755 37.1809L35.3802 37.1895C36.8018 39.789 38.788 41.8497 41.3193 43.3021L41.3284 43.3073L41.3375 43.3125C43.8964 44.757 46.7462 45.45 49.8123 45.45C53.5957 45.45 56.9897 44.4956 59.8006 42.4088L59.8123 42.4001L59.8239 42.3913C62.5418 40.3323 64.391 37.6274 65.3023 34.3548L66.3619 30.55H65.7714ZM42.7123 15.9C40.679 17.0334 39.0956 18.6667 37.9623 20.8C36.829 22.9334 36.2623 25.4167 36.2623 28.25C36.2623 31.0834 36.8456 33.5834 38.0123 35.75C39.179 37.8834 40.779 39.5334 42.8123 40.7C44.879 41.8667 47.2123 42.45 49.8123 42.45C53.079 42.45 55.8123 41.6334 58.0123 40C59.3087 39.0179 60.3505 37.8679 61.1376 36.55C61.6862 35.6316 62.1111 34.6316 62.4123 33.55H57.5123C56.979 35.0834 56.0456 36.3167 54.7123 37.25C53.4123 38.15 51.779 38.6 49.8123 38.6C47.4123 38.6 45.3623 37.85 43.6623 36.35C42.6723 35.4392 41.9469 34.3225 41.4861 33C41.1712 32.0962 40.98 31.0962 40.9123 30H62.8123C62.9123 29.0334 62.9623 28.1167 62.9623 27.25C62.9623 24.75 62.4123 22.5167 61.3123 20.55C60.2456 18.55 58.7123 16.9834 56.7123 15.85C54.7123 14.7167 52.4123 14.15 49.8123 14.15C47.1456 14.15 44.779 14.7334 42.7123 15.9ZM57.1123 21.85C56.3456 20.5834 55.2956 19.6334 53.9623 19C52.6623 18.3334 51.2123 18 49.6123 18C47.3123 18 45.3456 18.7334 43.7123 20.2C42.7903 21.0452 42.0952 22.0785 41.627 23.3C41.2828 24.1983 41.0612 25.1983 40.9623 26.3H58.2623C58.2623 25.1992 58.1077 24.1992 57.7984 23.3C57.6208 22.7834 57.3921 22.3001 57.1123 21.85ZM54.4815 23.3C54.0266 22.588 53.4398 22.0731 52.6751 21.7099L52.6339 21.6903L52.5933 21.6695C51.7562 21.2402 50.7824 21 49.6123 21C48.0195 21 46.7805 21.4816 45.7284 22.4217C45.4529 22.6758 45.201 22.9659 44.9781 23.3H54.4815ZM44.7716 33C45.0266 33.4344 45.3296 33.8035 45.6711 34.1215C46.7841 35.0942 48.1088 35.6 49.8123 35.6C51.3143 35.6 52.3111 35.2615 52.9987 34.7876C53.6817 34.3079 54.1723 33.726 54.5044 33H44.7716Z"
        fill="black" />
    <path fill-rule="evenodd" clip-rule="evenodd"
        d="M33.1932 4.15002V45H22.6432V29.2H10.8932V45H0.34317V4.15002H10.8932V19.45H22.6432V4.15002H33.1932ZM25.6432 22.45H7.89317V7.15002H3.34317V42H7.89317V26.2H25.6432V42H30.1932V7.15002H25.6432V22.45Z"
        fill="black" />
</svg>