<svg width="305" xmlns="http://www.w3.org/2000/svg" height="294" viewBox="-27 -27 305 294" fill="none"><defs><filter id="a" x="-1.108" y="-1.109" width="3.709" height="3.71" filterUnits="objectBoundingBox" color-interpolation-filters="sRGB"><feFlood flood-opacity="0" result="BackgroundImageFix"/><feColorMatrix in="SourceAlpha" values="0 0 0 0 0 0 0 0 0 0 0 0 0 0 0 0 0 0 127 0"/><feOffset dx="4" dy="4"/><feGaussianBlur stdDeviation="2"/><feColorMatrix values="0 0 0 0 0 0 0 0 0 0 0 0 0 0 0 0 0 0 0.2 0"/><feBlend in2="BackgroundImageFix" result="filter_e3f8f774-1dd2-807f-8005-a3c13c8c34fb"/><feBlend in="SourceGraphic" in2="filter_e3f8f774-1dd2-807f-8005-a3c13c8c34fb" result="shape"/></filter></defs><path d="M15.415,55.565L27.495,43.487C27.520,43.462,27.547,43.440,27.576,43.421C27.605,43.402,27.635,43.386,27.667,43.372C27.700,43.359,27.733,43.349,27.767,43.342C27.801,43.335,27.836,43.332,27.870,43.332C27.905,43.332,27.940,43.335,27.974,43.342C28.008,43.349,28.041,43.359,28.073,43.372C28.105,43.386,28.136,43.402,28.165,43.421C28.194,43.440,28.221,43.462,28.245,43.487L39.469,54.709C39.493,54.733,39.515,54.760,39.535,54.789C39.554,54.817,39.570,54.848,39.583,54.880C39.597,54.912,39.607,54.945,39.613,54.979C39.620,55.013,39.624,55.047,39.624,55.082C39.624,55.117,39.620,55.151,39.613,55.185C39.607,55.219,39.597,55.252,39.583,55.284C39.570,55.316,39.554,55.346,39.535,55.375C39.515,55.404,39.493,55.431,39.469,55.455L27.389,67.533C27.364,67.558,27.337,67.580,27.308,67.599C27.279,67.618,27.249,67.635,27.217,67.648C27.184,67.661,27.151,67.671,27.117,67.678C27.083,67.685,27.049,67.688,27.014,67.688C26.979,67.688,26.944,67.685,26.910,67.678C26.876,67.671,26.843,67.661,26.811,67.648C26.779,67.635,26.748,67.618,26.719,67.599C26.690,67.580,26.663,67.558,26.639,67.533L15.415,56.312C15.391,56.287,15.369,56.260,15.349,56.232C15.330,56.203,15.314,56.172,15.301,56.140C15.287,56.108,15.277,56.075,15.271,56.041C15.264,56.007,15.260,55.973,15.260,55.938C15.260,55.904,15.264,55.869,15.271,55.835C15.277,55.801,15.287,55.768,15.301,55.736C15.314,55.704,15.330,55.674,15.349,55.645C15.369,55.616,15.391,55.590,15.415,55.565ZZ" filter="url(#a)" fill-rule="evenodd" style="fill: rgb(99, 163, 180);" class="fills"/><defs><filter id="b" x="-1.011" y="-1.011" width="3.471" height="3.472" filterUnits="objectBoundingBox" color-interpolation-filters="sRGB"><feFlood flood-opacity="0" result="BackgroundImageFix"/><feColorMatrix in="SourceAlpha" values="0 0 0 0 0 0 0 0 0 0 0 0 0 0 0 0 0 0 127 0"/><feOffset dx="4" dy="4"/><feGaussianBlur stdDeviation="2"/><feColorMatrix values="0 0 0 0 0 0 0 0 0 0 0 0 0 0 0 0 0 0 0.2 0"/><feBlend in2="BackgroundImageFix" result="filter_e3f8f774-1dd2-807f-8005-a3c13c8c34fb"/><feBlend in="SourceGraphic" in2="filter_e3f8f774-1dd2-807f-8005-a3c13c8c34fb" result="shape"/></filter></defs><path d="M86.473,146.864L99.767,133.572C99.792,133.547,99.818,133.525,99.847,133.506C99.876,133.487,99.907,133.470,99.939,133.457C99.971,133.444,100.004,133.434,100.038,133.427C100.073,133.420,100.107,133.417,100.142,133.417C100.177,133.417,100.211,133.420,100.245,133.427C100.279,133.434,100.313,133.444,100.345,133.457C100.377,133.470,100.407,133.487,100.436,133.506C100.465,133.525,100.492,133.547,100.517,133.572L112.873,145.926C112.898,145.951,112.920,145.977,112.939,146.006C112.958,146.035,112.975,146.066,112.988,146.098C113.001,146.130,113.011,146.163,113.018,146.197C113.025,146.231,113.028,146.265,113.028,146.300C113.028,146.334,113.025,146.369,113.018,146.402C113.011,146.436,113.001,146.469,112.988,146.502C112.975,146.534,112.958,146.564,112.939,146.593C112.920,146.622,112.898,146.648,112.873,146.673L99.579,159.965C99.554,159.989,99.528,160.011,99.499,160.031C99.470,160.050,99.439,160.066,99.407,160.079C99.375,160.093,99.342,160.103,99.308,160.110C99.273,160.116,99.239,160.120,99.204,160.120C99.169,160.120,99.135,160.116,99.101,160.110C99.067,160.103,99.033,160.093,99.001,160.079C98.969,160.066,98.939,160.050,98.910,160.031C98.881,160.011,98.854,159.989,98.829,159.965L86.473,147.610C86.448,147.586,86.426,147.559,86.407,147.530C86.388,147.501,86.371,147.471,86.358,147.439C86.345,147.407,86.335,147.374,86.328,147.340C86.321,147.306,86.318,147.272,86.318,147.237C86.318,147.202,86.321,147.168,86.328,147.134C86.335,147.100,86.345,147.067,86.358,147.035C86.371,147.003,86.388,146.973,86.407,146.944C86.426,146.915,86.448,146.888,86.473,146.864ZZ" filter="url(#b)" fill-rule="evenodd" style="fill: rgb(99, 163, 180);" class="fills"/><defs><filter id="c" x="-1.969" y="-1.97" width="5.813" height="5.815" filterUnits="objectBoundingBox" color-interpolation-filters="sRGB"><feFlood flood-opacity="0" result="BackgroundImageFix"/><feColorMatrix in="SourceAlpha" values="0 0 0 0 0 0 0 0 0 0 0 0 0 0 0 0 0 0 127 0"/><feOffset dx="4" dy="4"/><feGaussianBlur stdDeviation="2"/><feColorMatrix values="0 0 0 0 0 0 0 0 0 0 0 0 0 0 0 0 0 0 0.2 0"/><feBlend in2="BackgroundImageFix" result="filter_e3f8f774-1dd2-807f-8005-a3c13c8c34fb"/><feBlend in="SourceGraphic" in2="filter_e3f8f774-1dd2-807f-8005-a3c13c8c34fb" result="shape"/></filter></defs><path d="M0.651,220.706L6.911,214.447C6.935,214.423,6.962,214.401,6.991,214.381C7.020,214.362,7.050,214.346,7.082,214.332C7.115,214.319,7.148,214.309,7.182,214.302C7.216,214.295,7.251,214.292,7.285,214.292C7.320,214.292,7.355,214.295,7.389,214.302C7.423,214.309,7.456,214.319,7.488,214.332C7.520,214.346,7.551,214.362,7.580,214.381C7.609,214.401,7.636,214.423,7.660,214.447L14.054,220.840C14.079,220.864,14.100,220.891,14.120,220.920C14.139,220.948,14.155,220.979,14.169,221.011C14.182,221.043,14.192,221.076,14.199,221.110C14.205,221.144,14.209,221.178,14.209,221.213C14.209,221.248,14.205,221.282,14.199,221.316C14.192,221.350,14.182,221.383,14.169,221.415C14.155,221.447,14.139,221.477,14.120,221.506C14.100,221.535,14.079,221.562,14.054,221.586L7.794,227.845C7.770,227.869,7.743,227.891,7.714,227.911C7.685,227.930,7.654,227.946,7.622,227.960C7.590,227.973,7.557,227.983,7.523,227.990C7.489,227.997,7.454,228.000,7.419,228.000C7.385,228.000,7.350,227.997,7.316,227.990C7.282,227.983,7.249,227.973,7.217,227.960C7.184,227.946,7.154,227.930,7.125,227.911C7.096,227.891,7.069,227.869,7.045,227.845L0.651,221.452C0.626,221.428,0.604,221.401,0.585,221.372C0.566,221.343,0.550,221.313,0.536,221.281C0.523,221.249,0.513,221.216,0.506,221.182C0.499,221.148,0.496,221.114,0.496,221.079C0.496,221.044,0.499,221.010,0.506,220.976C0.513,220.942,0.523,220.909,0.536,220.877C0.550,220.845,0.566,220.815,0.585,220.786C0.604,220.757,0.626,220.730,0.651,220.706ZZ" filter="url(#c)" fill-rule="evenodd" style="fill: rgb(99, 163, 180);" class="fills"/><defs><filter id="d" x="-.659" y="-.659" width="2.611" height="2.612" filterUnits="objectBoundingBox" color-interpolation-filters="sRGB"><feFlood flood-opacity="0" result="BackgroundImageFix"/><feColorMatrix in="SourceAlpha" values="0 0 0 0 0 0 0 0 0 0 0 0 0 0 0 0 0 0 127 0"/><feOffset dx="4" dy="4"/><feGaussianBlur stdDeviation="2"/><feColorMatrix values="0 0 0 0 0 0 0 0 0 0 0 0 0 0 0 0 0 0 0.2 0"/><feBlend in2="BackgroundImageFix" result="filter_e3f8f774-1dd2-807f-8005-a3c13c8c34fb"/><feBlend in="SourceGraphic" in2="filter_e3f8f774-1dd2-807f-8005-a3c13c8c34fb" result="shape"/></filter></defs><path d="M181.417,28.110L200.742,8.789C200.767,8.763,200.795,8.738,200.823,8.715C200.851,8.692,200.881,8.670,200.911,8.650C200.942,8.629,200.973,8.611,201.005,8.593C201.038,8.576,201.071,8.560,201.105,8.546C201.139,8.532,201.173,8.520,201.208,8.509C201.243,8.499,201.279,8.490,201.315,8.483C201.351,8.476,201.387,8.470,201.423,8.467C201.460,8.463,201.497,8.461,201.533,8.461C201.570,8.461,201.606,8.463,201.643,8.467C201.679,8.470,201.716,8.476,201.752,8.483C201.788,8.490,201.823,8.499,201.858,8.509C201.893,8.520,201.928,8.532,201.962,8.546C201.996,8.560,202.029,8.576,202.061,8.593C202.093,8.611,202.125,8.629,202.155,8.650C202.186,8.670,202.215,8.692,202.243,8.715C202.272,8.738,202.299,8.763,202.325,8.789L221.724,28.185C221.750,28.211,221.775,28.238,221.798,28.266C221.821,28.294,221.843,28.323,221.863,28.354C221.884,28.384,221.902,28.415,221.920,28.448C221.937,28.480,221.952,28.513,221.966,28.546C221.980,28.580,221.993,28.615,222.003,28.649C222.014,28.684,222.023,28.720,222.030,28.756C222.037,28.791,222.042,28.827,222.046,28.864C222.049,28.900,222.051,28.937,222.051,28.973C222.051,29.010,222.049,29.046,222.046,29.082C222.042,29.119,222.037,29.155,222.030,29.191C222.023,29.226,222.014,29.262,222.003,29.297C221.993,29.332,221.980,29.366,221.966,29.400C221.952,29.433,221.937,29.466,221.920,29.498C221.902,29.531,221.884,29.562,221.863,29.592C221.843,29.623,221.821,29.652,221.798,29.680C221.775,29.708,221.750,29.735,221.724,29.761L202.400,49.082C202.374,49.108,202.347,49.133,202.318,49.156C202.290,49.179,202.261,49.201,202.230,49.222C202.200,49.242,202.168,49.261,202.136,49.278C202.104,49.295,202.070,49.311,202.037,49.325C202.003,49.339,201.968,49.351,201.933,49.362C201.898,49.373,201.862,49.381,201.827,49.389C201.791,49.396,201.754,49.401,201.718,49.405C201.681,49.408,201.645,49.410,201.608,49.410C201.571,49.410,201.535,49.408,201.498,49.405C201.462,49.401,201.426,49.396,201.390,49.389C201.354,49.381,201.318,49.373,201.283,49.362C201.248,49.351,201.213,49.339,201.180,49.325C201.146,49.311,201.113,49.295,201.080,49.278C201.048,49.261,201.016,49.242,200.986,49.222C200.956,49.201,200.926,49.179,200.898,49.156C200.869,49.133,200.842,49.108,200.816,49.082L181.417,29.686C181.391,29.661,181.367,29.634,181.343,29.605C181.320,29.577,181.298,29.548,181.278,29.517C181.258,29.487,181.239,29.456,181.222,29.424C181.205,29.391,181.189,29.358,181.175,29.325C181.161,29.291,181.149,29.257,181.138,29.222C181.127,29.187,181.119,29.151,181.111,29.116C181.104,29.080,181.099,29.044,181.095,29.007C181.092,28.971,181.090,28.935,181.090,28.898C181.090,28.862,181.092,28.825,181.095,28.789C181.099,28.753,181.104,28.717,181.111,28.681C181.119,28.645,181.127,28.610,181.138,28.575C181.149,28.540,181.161,28.505,181.175,28.472C181.189,28.438,181.205,28.405,181.222,28.373C181.239,28.341,181.258,28.309,181.278,28.279C181.298,28.248,181.320,28.219,181.343,28.191C181.367,28.163,181.391,28.136,181.417,28.110ZZ" filter="url(#d)" fill-rule="evenodd" style="fill: rgb(99, 163, 180);" class="fills"/><g filter="url(#e)" style="fill: rgb(0, 0, 0);"><defs><filter id="e" x="-.967" y="-.968" width="3.365" height="3.365" filterUnits="objectBoundingBox" color-interpolation-filters="sRGB"><feFlood flood-opacity="0" result="BackgroundImageFix"/><feColorMatrix in="SourceAlpha" values="0 0 0 0 0 0 0 0 0 0 0 0 0 0 0 0 0 0 127 0"/><feOffset dx="4" dy="4"/><feGaussianBlur stdDeviation="2"/><feColorMatrix values="0 0 0 0 0 0 0 0 0 0 0 0 0 0 0 0 0 0 0.2 0"/><feBlend in2="BackgroundImageFix" result="filter_e3f8f774-1dd2-807f-8005-a3c13c8c34fb"/><feBlend in="SourceGraphic" in2="filter_e3f8f774-1dd2-807f-8005-a3c13c8c34fb" result="shape"/></filter></defs><path d="M3.925,196.355L17.325,182.957C17.350,182.932,17.377,182.910,17.406,182.891C17.435,182.871,17.465,182.855,17.497,182.842C17.530,182.828,17.563,182.818,17.597,182.812C17.631,182.805,17.665,182.801,17.700,182.801C17.735,182.801,17.770,182.805,17.804,182.812C17.838,182.818,17.871,182.828,17.903,182.842C17.935,182.855,17.966,182.871,17.995,182.891C18.024,182.910,18.051,182.932,18.075,182.957L31.526,196.405C31.551,196.430,31.573,196.457,31.592,196.485C31.611,196.514,31.628,196.545,31.641,196.577C31.654,196.609,31.664,196.642,31.671,196.676C31.678,196.710,31.681,196.744,31.681,196.779C31.681,196.813,31.678,196.848,31.671,196.882C31.664,196.916,31.654,196.949,31.641,196.981C31.628,197.013,31.611,197.043,31.592,197.072C31.573,197.101,31.551,197.127,31.526,197.152L18.126,210.550C18.101,210.575,18.074,210.596,18.045,210.616C18.017,210.635,17.986,210.651,17.954,210.665C17.922,210.678,17.888,210.688,17.854,210.695C17.820,210.702,17.786,210.705,17.751,210.705C17.716,210.705,17.682,210.702,17.647,210.695C17.613,210.688,17.580,210.678,17.548,210.665C17.516,210.651,17.485,210.635,17.456,210.616C17.427,210.596,17.401,210.575,17.376,210.550L3.925,197.101C3.900,197.077,3.878,197.050,3.859,197.021C3.840,196.992,3.824,196.962,3.810,196.930C3.797,196.898,3.787,196.865,3.780,196.831C3.773,196.797,3.770,196.763,3.770,196.728C3.770,196.693,3.773,196.659,3.780,196.625C3.787,196.591,3.797,196.558,3.810,196.526C3.824,196.494,3.840,196.464,3.859,196.435C3.878,196.406,3.900,196.379,3.925,196.355ZZ" fill="none" style="fill: none; fill-opacity: 0;" class="fills"/><g fill-rule="evenodd" fill="none" fill-opacity="0" class="strokes"><g class="inner-stroke-shape"><defs><clipPath id="g"><use href="#f"/></clipPath><path d="M3.925,196.355L17.325,182.957C17.350,182.932,17.377,182.910,17.406,182.891C17.435,182.871,17.465,182.855,17.497,182.842C17.530,182.828,17.563,182.818,17.597,182.812C17.631,182.805,17.665,182.801,17.700,182.801C17.735,182.801,17.770,182.805,17.804,182.812C17.838,182.818,17.871,182.828,17.903,182.842C17.935,182.855,17.966,182.871,17.995,182.891C18.024,182.910,18.051,182.932,18.075,182.957L31.526,196.405C31.551,196.430,31.573,196.457,31.592,196.485C31.611,196.514,31.628,196.545,31.641,196.577C31.654,196.609,31.664,196.642,31.671,196.676C31.678,196.710,31.681,196.744,31.681,196.779C31.681,196.813,31.678,196.848,31.671,196.882C31.664,196.916,31.654,196.949,31.641,196.981C31.628,197.013,31.611,197.043,31.592,197.072C31.573,197.101,31.551,197.127,31.526,197.152L18.126,210.550C18.101,210.575,18.074,210.596,18.045,210.616C18.017,210.635,17.986,210.651,17.954,210.665C17.922,210.678,17.888,210.688,17.854,210.695C17.820,210.702,17.786,210.705,17.751,210.705C17.716,210.705,17.682,210.702,17.647,210.695C17.613,210.688,17.580,210.678,17.548,210.665C17.516,210.651,17.485,210.635,17.456,210.616C17.427,210.596,17.401,210.575,17.376,210.550L3.925,197.101C3.900,197.077,3.878,197.050,3.859,197.021C3.840,196.992,3.824,196.962,3.810,196.930C3.797,196.898,3.787,196.865,3.780,196.831C3.773,196.797,3.770,196.763,3.770,196.728C3.770,196.693,3.773,196.659,3.780,196.625C3.787,196.591,3.797,196.558,3.810,196.526C3.824,196.494,3.840,196.464,3.859,196.435C3.878,196.406,3.900,196.379,3.925,196.355ZZ" id="f" style="fill: none; stroke-width: 1; stroke: rgb(0, 0, 0); stroke-opacity: 1;"/></defs><use href="#f" clip-path="url('#g')"/></g></g><path d="M17.325,182.957L3.925,196.355C3.900,196.379,3.878,196.406,3.859,196.435C3.840,196.464,3.824,196.494,3.810,196.526C3.797,196.558,3.787,196.591,3.780,196.625C3.773,196.659,3.770,196.693,3.770,196.728C3.770,196.763,3.773,196.797,3.780,196.831C3.787,196.865,3.797,196.898,3.810,196.930C3.824,196.962,3.840,196.992,3.859,197.021C3.878,197.050,3.900,197.077,3.925,197.101L17.376,210.550C17.426,210.600,17.483,210.638,17.548,210.665C17.613,210.692,17.681,210.705,17.751,210.705C17.821,210.705,17.889,210.692,17.954,210.665C18.019,210.638,18.076,210.600,18.126,210.550L31.526,197.152C31.551,197.127,31.573,197.101,31.592,197.072C31.611,197.043,31.628,197.013,31.641,196.981C31.654,196.949,31.664,196.916,31.671,196.882C31.678,196.848,31.681,196.813,31.681,196.779C31.681,196.744,31.678,196.710,31.671,196.676C31.664,196.642,31.654,196.609,31.641,196.577C31.628,196.545,31.611,196.514,31.592,196.485C31.573,196.457,31.551,196.430,31.526,196.405L18.075,182.957C18.025,182.907,17.968,182.869,17.903,182.842C17.838,182.815,17.770,182.801,17.700,182.801C17.630,182.801,17.562,182.815,17.497,182.842C17.432,182.869,17.375,182.907,17.325,182.957ZZM4.799,196.728L17.751,209.678L30.652,196.779L17.700,183.829L4.799,196.728ZZ" fill="none" style="fill: none; fill-opacity: 0;" class="fills"/><g fill-rule="evenodd" fill="none" fill-opacity="0" class="strokes"><g class="inner-stroke-shape"><defs><clipPath id="i"><use href="#h"/></clipPath><path d="M17.325,182.957L3.925,196.355C3.900,196.379,3.878,196.406,3.859,196.435C3.840,196.464,3.824,196.494,3.810,196.526C3.797,196.558,3.787,196.591,3.780,196.625C3.773,196.659,3.770,196.693,3.770,196.728C3.770,196.763,3.773,196.797,3.780,196.831C3.787,196.865,3.797,196.898,3.810,196.930C3.824,196.962,3.840,196.992,3.859,197.021C3.878,197.050,3.900,197.077,3.925,197.101L17.376,210.550C17.426,210.600,17.483,210.638,17.548,210.665C17.613,210.692,17.681,210.705,17.751,210.705C17.821,210.705,17.889,210.692,17.954,210.665C18.019,210.638,18.076,210.600,18.126,210.550L31.526,197.152C31.551,197.127,31.573,197.101,31.592,197.072C31.611,197.043,31.628,197.013,31.641,196.981C31.654,196.949,31.664,196.916,31.671,196.882C31.678,196.848,31.681,196.813,31.681,196.779C31.681,196.744,31.678,196.710,31.671,196.676C31.664,196.642,31.654,196.609,31.641,196.577C31.628,196.545,31.611,196.514,31.592,196.485C31.573,196.457,31.551,196.430,31.526,196.405L18.075,182.957C18.025,182.907,17.968,182.869,17.903,182.842C17.838,182.815,17.770,182.801,17.700,182.801C17.630,182.801,17.562,182.815,17.497,182.842C17.432,182.869,17.375,182.907,17.325,182.957ZZM4.799,196.728L17.751,209.678L30.652,196.779L17.700,183.829L4.799,196.728ZZ" id="h" style="fill: none; stroke-width: 1; stroke: rgb(0, 0, 0); stroke-opacity: 1;"/></defs><use href="#h" clip-path="url('#i')"/></g></g></g><g filter="url(#j)" style="fill: rgb(0, 0, 0);"><defs><filter id="j" x="-.651" y="-.651" width="2.591" height="2.592" filterUnits="objectBoundingBox" color-interpolation-filters="sRGB"><feFlood flood-opacity="0" result="BackgroundImageFix"/><feColorMatrix in="SourceAlpha" values="0 0 0 0 0 0 0 0 0 0 0 0 0 0 0 0 0 0 127 0"/><feOffset dx="4" dy="4"/><feGaussianBlur stdDeviation="2"/><feColorMatrix values="0 0 0 0 0 0 0 0 0 0 0 0 0 0 0 0 0 0 0.2 0"/><feBlend in2="BackgroundImageFix" result="filter_e3f8f774-1dd2-807f-8005-a3c13c8c34fb"/><feBlend in="SourceGraphic" in2="filter_e3f8f774-1dd2-807f-8005-a3c13c8c34fb" result="shape"/></filter></defs><path d="M120.609,138.898L139.602,119.909C139.642,119.870,139.683,119.832,139.726,119.797C139.770,119.761,139.814,119.728,139.861,119.697C139.907,119.666,139.955,119.637,140.005,119.611C140.054,119.584,140.105,119.560,140.156,119.539C140.208,119.518,140.261,119.499,140.314,119.483C140.368,119.466,140.422,119.453,140.477,119.442C140.532,119.431,140.587,119.423,140.643,119.417C140.698,119.412,140.754,119.409,140.810,119.409C140.866,119.409,140.922,119.412,140.978,119.417C141.033,119.423,141.089,119.431,141.144,119.442C141.199,119.453,141.253,119.466,141.306,119.483C141.360,119.499,141.413,119.518,141.464,119.539C141.516,119.560,141.566,119.584,141.616,119.611C141.665,119.637,141.713,119.666,141.760,119.697C141.806,119.728,141.851,119.761,141.894,119.797C141.937,119.832,141.979,119.870,142.018,119.909L161.088,138.975C161.127,139.014,161.165,139.056,161.200,139.099C161.236,139.142,161.269,139.187,161.300,139.233C161.331,139.279,161.359,139.327,161.386,139.376C161.412,139.425,161.436,139.476,161.457,139.527C161.478,139.579,161.497,139.631,161.513,139.684C161.530,139.738,161.543,139.792,161.554,139.846C161.565,139.901,161.573,139.956,161.578,140.011C161.584,140.067,161.587,140.122,161.587,140.178C161.587,140.234,161.584,140.289,161.578,140.345C161.573,140.400,161.565,140.455,161.554,140.510C161.543,140.565,161.530,140.619,161.513,140.672C161.497,140.725,161.478,140.778,161.457,140.829C161.436,140.881,161.412,140.931,161.386,140.980C161.359,141.029,161.331,141.077,161.300,141.123C161.269,141.170,161.236,141.214,161.200,141.258C161.165,141.301,161.127,141.342,161.088,141.381L142.095,160.371C142.056,160.410,142.014,160.448,141.971,160.483C141.928,160.518,141.883,160.552,141.836,160.583C141.790,160.614,141.742,160.643,141.693,160.669C141.643,160.695,141.593,160.719,141.541,160.741C141.489,160.762,141.437,160.781,141.383,160.797C141.329,160.813,141.275,160.827,141.220,160.838C141.165,160.849,141.110,160.857,141.054,160.862C140.999,160.868,140.943,160.871,140.887,160.871C140.831,160.871,140.775,160.868,140.719,160.862C140.664,160.857,140.608,160.849,140.553,160.838C140.499,160.827,140.444,160.813,140.391,160.797C140.337,160.781,140.285,160.762,140.233,160.741C140.181,160.719,140.131,160.695,140.081,160.669C140.032,160.643,139.984,160.614,139.937,160.583C139.891,160.552,139.846,160.518,139.803,160.483C139.760,160.448,139.718,160.410,139.679,160.371L120.609,141.305C120.570,141.265,120.532,141.224,120.497,141.181C120.462,141.138,120.428,141.093,120.397,141.047C120.366,141.000,120.338,140.953,120.312,140.904C120.285,140.854,120.261,140.804,120.240,140.753C120.219,140.701,120.200,140.649,120.184,140.595C120.168,140.542,120.154,140.488,120.143,140.433C120.132,140.379,120.124,140.324,120.119,140.268C120.113,140.213,120.110,140.157,120.110,140.102C120.110,140.046,120.113,139.990,120.119,139.935C120.124,139.879,120.132,139.824,120.143,139.770C120.154,139.715,120.168,139.661,120.184,139.608C120.200,139.554,120.219,139.502,120.240,139.450C120.261,139.399,120.285,139.349,120.312,139.300C120.338,139.250,120.366,139.203,120.397,139.156C120.428,139.110,120.462,139.065,120.497,139.022C120.532,138.979,120.570,138.938,120.609,138.898ZZ" fill="none" style="fill: none; fill-opacity: 0;" class="fills"/><g fill-rule="evenodd" fill="none" fill-opacity="0" class="strokes"><g class="inner-stroke-shape"><defs><clipPath id="l"><use href="#k"/></clipPath><path d="M120.609,138.898L139.602,119.909C139.642,119.870,139.683,119.832,139.726,119.797C139.770,119.761,139.814,119.728,139.861,119.697C139.907,119.666,139.955,119.637,140.005,119.611C140.054,119.584,140.105,119.560,140.156,119.539C140.208,119.518,140.261,119.499,140.314,119.483C140.368,119.466,140.422,119.453,140.477,119.442C140.532,119.431,140.587,119.423,140.643,119.417C140.698,119.412,140.754,119.409,140.810,119.409C140.866,119.409,140.922,119.412,140.978,119.417C141.033,119.423,141.089,119.431,141.144,119.442C141.199,119.453,141.253,119.466,141.306,119.483C141.360,119.499,141.413,119.518,141.464,119.539C141.516,119.560,141.566,119.584,141.616,119.611C141.665,119.637,141.713,119.666,141.760,119.697C141.806,119.728,141.851,119.761,141.894,119.797C141.937,119.832,141.979,119.870,142.018,119.909L161.088,138.975C161.127,139.014,161.165,139.056,161.200,139.099C161.236,139.142,161.269,139.187,161.300,139.233C161.331,139.279,161.359,139.327,161.386,139.376C161.412,139.425,161.436,139.476,161.457,139.527C161.478,139.579,161.497,139.631,161.513,139.684C161.530,139.738,161.543,139.792,161.554,139.846C161.565,139.901,161.573,139.956,161.578,140.011C161.584,140.067,161.587,140.122,161.587,140.178C161.587,140.234,161.584,140.289,161.578,140.345C161.573,140.400,161.565,140.455,161.554,140.510C161.543,140.565,161.530,140.619,161.513,140.672C161.497,140.725,161.478,140.778,161.457,140.829C161.436,140.881,161.412,140.931,161.386,140.980C161.359,141.029,161.331,141.077,161.300,141.123C161.269,141.170,161.236,141.214,161.200,141.258C161.165,141.301,161.127,141.342,161.088,141.381L142.095,160.371C142.056,160.410,142.014,160.448,141.971,160.483C141.928,160.518,141.883,160.552,141.836,160.583C141.790,160.614,141.742,160.643,141.693,160.669C141.643,160.695,141.593,160.719,141.541,160.741C141.489,160.762,141.437,160.781,141.383,160.797C141.329,160.813,141.275,160.827,141.220,160.838C141.165,160.849,141.110,160.857,141.054,160.862C140.999,160.868,140.943,160.871,140.887,160.871C140.831,160.871,140.775,160.868,140.719,160.862C140.664,160.857,140.608,160.849,140.553,160.838C140.499,160.827,140.444,160.813,140.391,160.797C140.337,160.781,140.285,160.762,140.233,160.741C140.181,160.719,140.131,160.695,140.081,160.669C140.032,160.643,139.984,160.614,139.937,160.583C139.891,160.552,139.846,160.518,139.803,160.483C139.760,160.448,139.718,160.410,139.679,160.371L120.609,141.305C120.570,141.265,120.532,141.224,120.497,141.181C120.462,141.138,120.428,141.093,120.397,141.047C120.366,141.000,120.338,140.953,120.312,140.904C120.285,140.854,120.261,140.804,120.240,140.753C120.219,140.701,120.200,140.649,120.184,140.595C120.168,140.542,120.154,140.488,120.143,140.433C120.132,140.379,120.124,140.324,120.119,140.268C120.113,140.213,120.110,140.157,120.110,140.102C120.110,140.046,120.113,139.990,120.119,139.935C120.124,139.879,120.132,139.824,120.143,139.770C120.154,139.715,120.168,139.661,120.184,139.608C120.200,139.554,120.219,139.502,120.240,139.450C120.261,139.399,120.285,139.349,120.312,139.300C120.338,139.250,120.366,139.203,120.397,139.156C120.428,139.110,120.462,139.065,120.497,139.022C120.532,138.979,120.570,138.938,120.609,138.898ZZ" id="k" style="fill: none; stroke-width: 2; stroke: rgb(0, 0, 0); stroke-opacity: 1;"/></defs><use href="#k" clip-path="url('#l')"/></g></g><path d="M139.602,119.909L120.609,138.898C120.570,138.938,120.532,138.979,120.497,139.022C120.462,139.065,120.428,139.110,120.397,139.156C120.366,139.203,120.338,139.250,120.312,139.300C120.285,139.349,120.261,139.399,120.240,139.450C120.219,139.502,120.200,139.554,120.184,139.608C120.168,139.661,120.154,139.715,120.143,139.770C120.132,139.824,120.124,139.879,120.119,139.935C120.113,139.990,120.110,140.046,120.110,140.102C120.110,140.157,120.113,140.213,120.119,140.268C120.124,140.324,120.132,140.379,120.143,140.433C120.154,140.488,120.168,140.542,120.184,140.595C120.200,140.649,120.219,140.701,120.240,140.753C120.261,140.804,120.285,140.854,120.312,140.904C120.338,140.953,120.366,141.000,120.397,141.047C120.428,141.093,120.462,141.138,120.497,141.181C120.532,141.224,120.570,141.265,120.609,141.305L139.679,160.371C139.758,160.450,139.844,160.521,139.938,160.583C140.031,160.645,140.129,160.698,140.233,160.741C140.337,160.784,140.444,160.816,140.554,160.838C140.664,160.860,140.775,160.871,140.887,160.871C140.999,160.871,141.110,160.860,141.220,160.838C141.330,160.816,141.437,160.784,141.541,160.741C141.645,160.698,141.743,160.645,141.836,160.583C141.930,160.521,142.016,160.450,142.095,160.371L161.088,141.381C161.127,141.342,161.165,141.301,161.200,141.258C161.236,141.214,161.269,141.170,161.300,141.123C161.331,141.077,161.359,141.029,161.386,140.980C161.412,140.931,161.436,140.881,161.457,140.829C161.478,140.778,161.497,140.725,161.513,140.672C161.530,140.619,161.543,140.565,161.554,140.510C161.565,140.455,161.573,140.400,161.578,140.345C161.584,140.289,161.587,140.234,161.587,140.178C161.587,140.122,161.584,140.067,161.578,140.011C161.573,139.956,161.565,139.901,161.554,139.846C161.543,139.792,161.530,139.738,161.513,139.684C161.497,139.631,161.478,139.579,161.457,139.527C161.436,139.476,161.412,139.425,161.386,139.376C161.359,139.327,161.331,139.279,161.300,139.233C161.269,139.187,161.236,139.142,161.200,139.099C161.165,139.056,161.127,139.014,161.088,138.975L142.018,119.909C141.939,119.830,141.853,119.759,141.760,119.697C141.666,119.635,141.568,119.582,141.464,119.539C141.361,119.496,141.254,119.464,141.144,119.442C141.034,119.420,140.923,119.409,140.810,119.409C140.698,119.409,140.587,119.420,140.477,119.442C140.367,119.464,140.260,119.496,140.156,119.539C140.053,119.582,139.954,119.635,139.861,119.697C139.768,119.759,139.681,119.830,139.602,119.909ZZM121.234,140.683C120.847,140.295,120.847,139.908,121.234,139.521L140.227,120.531C140.388,120.370,140.582,120.290,140.810,120.290C141.038,120.290,141.232,120.370,141.394,120.531L160.463,139.597C160.850,139.984,160.850,140.372,160.463,140.759L141.470,159.748C141.309,159.909,141.115,159.990,140.887,159.990C140.659,159.990,140.465,159.909,140.304,159.748L121.234,140.683ZZ" fill="none" style="fill: none; fill-opacity: 0;" class="fills"/><g fill-rule="evenodd" fill="none" fill-opacity="0" class="strokes"><g class="inner-stroke-shape"><defs><clipPath id="n"><use href="#m"/></clipPath><path d="M139.602,119.909L120.609,138.898C120.570,138.938,120.532,138.979,120.497,139.022C120.462,139.065,120.428,139.110,120.397,139.156C120.366,139.203,120.338,139.250,120.312,139.300C120.285,139.349,120.261,139.399,120.240,139.450C120.219,139.502,120.200,139.554,120.184,139.608C120.168,139.661,120.154,139.715,120.143,139.770C120.132,139.824,120.124,139.879,120.119,139.935C120.113,139.990,120.110,140.046,120.110,140.102C120.110,140.157,120.113,140.213,120.119,140.268C120.124,140.324,120.132,140.379,120.143,140.433C120.154,140.488,120.168,140.542,120.184,140.595C120.200,140.649,120.219,140.701,120.240,140.753C120.261,140.804,120.285,140.854,120.312,140.904C120.338,140.953,120.366,141.000,120.397,141.047C120.428,141.093,120.462,141.138,120.497,141.181C120.532,141.224,120.570,141.265,120.609,141.305L139.679,160.371C139.758,160.450,139.844,160.521,139.938,160.583C140.031,160.645,140.129,160.698,140.233,160.741C140.337,160.784,140.444,160.816,140.554,160.838C140.664,160.860,140.775,160.871,140.887,160.871C140.999,160.871,141.110,160.860,141.220,160.838C141.330,160.816,141.437,160.784,141.541,160.741C141.645,160.698,141.743,160.645,141.836,160.583C141.930,160.521,142.016,160.450,142.095,160.371L161.088,141.381C161.127,141.342,161.165,141.301,161.200,141.258C161.236,141.214,161.269,141.170,161.300,141.123C161.331,141.077,161.359,141.029,161.386,140.980C161.412,140.931,161.436,140.881,161.457,140.829C161.478,140.778,161.497,140.725,161.513,140.672C161.530,140.619,161.543,140.565,161.554,140.510C161.565,140.455,161.573,140.400,161.578,140.345C161.584,140.289,161.587,140.234,161.587,140.178C161.587,140.122,161.584,140.067,161.578,140.011C161.573,139.956,161.565,139.901,161.554,139.846C161.543,139.792,161.530,139.738,161.513,139.684C161.497,139.631,161.478,139.579,161.457,139.527C161.436,139.476,161.412,139.425,161.386,139.376C161.359,139.327,161.331,139.279,161.300,139.233C161.269,139.187,161.236,139.142,161.200,139.099C161.165,139.056,161.127,139.014,161.088,138.975L142.018,119.909C141.939,119.830,141.853,119.759,141.760,119.697C141.666,119.635,141.568,119.582,141.464,119.539C141.361,119.496,141.254,119.464,141.144,119.442C141.034,119.420,140.923,119.409,140.810,119.409C140.698,119.409,140.587,119.420,140.477,119.442C140.367,119.464,140.260,119.496,140.156,119.539C140.053,119.582,139.954,119.635,139.861,119.697C139.768,119.759,139.681,119.830,139.602,119.909ZZM121.234,140.683C120.847,140.295,120.847,139.908,121.234,139.521L140.227,120.531C140.388,120.370,140.582,120.290,140.810,120.290C141.038,120.290,141.232,120.370,141.394,120.531L160.463,139.597C160.850,139.984,160.850,140.372,160.463,140.759L141.470,159.748C141.309,159.909,141.115,159.990,140.887,159.990C140.659,159.990,140.465,159.909,140.304,159.748L121.234,140.683ZZ" id="m" style="fill: none; stroke-width: 2; stroke: rgb(0, 0, 0); stroke-opacity: 1;"/></defs><use href="#m" clip-path="url('#n')"/></g></g></g><g filter="url(#o)" style="fill: rgb(0, 0, 0);"><defs><filter id="o" x="-1.311" y="-1.314" width="4.204" height="4.211" filterUnits="objectBoundingBox" color-interpolation-filters="sRGB"><feFlood flood-opacity="0" result="BackgroundImageFix"/><feColorMatrix in="SourceAlpha" values="0 0 0 0 0 0 0 0 0 0 0 0 0 0 0 0 0 0 127 0"/><feOffset dx="4" dy="4"/><feGaussianBlur stdDeviation="2"/><feColorMatrix values="0 0 0 0 0 0 0 0 0 0 0 0 0 0 0 0 0 0 0.2 0"/><feBlend in2="BackgroundImageFix" result="filter_e3f8f774-1dd2-807f-8005-a3c13c8c34fb"/><feBlend in="SourceGraphic" in2="filter_e3f8f774-1dd2-807f-8005-a3c13c8c34fb" result="shape"/></filter></defs><path d="M9.997,112.760L19.429,103.346C19.449,103.327,19.469,103.308,19.491,103.291C19.512,103.273,19.535,103.256,19.558,103.241C19.581,103.226,19.605,103.211,19.629,103.198C19.654,103.185,19.679,103.173,19.704,103.163C19.730,103.152,19.756,103.143,19.783,103.135C19.809,103.127,19.836,103.120,19.864,103.115C19.891,103.109,19.918,103.105,19.946,103.102C19.974,103.100,20.001,103.098,20.029,103.098C20.057,103.098,20.085,103.100,20.112,103.102C20.140,103.105,20.167,103.109,20.195,103.115C20.222,103.120,20.249,103.127,20.275,103.135C20.302,103.143,20.328,103.152,20.354,103.163C20.380,103.173,20.405,103.185,20.429,103.198C20.454,103.211,20.477,103.226,20.501,103.241C20.524,103.256,20.546,103.273,20.567,103.291C20.589,103.308,20.609,103.327,20.629,103.346L30.100,112.798C30.119,112.817,30.138,112.838,30.155,112.859C30.173,112.881,30.189,112.903,30.205,112.926C30.220,112.949,30.234,112.972,30.247,112.997C30.261,113.021,30.272,113.046,30.283,113.072C30.294,113.097,30.303,113.123,30.311,113.149C30.319,113.176,30.326,113.203,30.331,113.230C30.336,113.257,30.341,113.284,30.343,113.312C30.346,113.339,30.347,113.367,30.347,113.394C30.347,113.422,30.346,113.449,30.343,113.477C30.341,113.504,30.336,113.532,30.331,113.559C30.326,113.586,30.319,113.613,30.311,113.639C30.303,113.665,30.294,113.691,30.283,113.717C30.272,113.742,30.261,113.767,30.247,113.792C30.234,113.816,30.220,113.840,30.205,113.863C30.189,113.886,30.173,113.908,30.155,113.929C30.138,113.951,30.119,113.971,30.100,113.991L20.667,123.404C20.648,123.424,20.627,123.442,20.606,123.460C20.584,123.478,20.562,123.494,20.539,123.509C20.516,123.525,20.492,123.539,20.467,123.552C20.443,123.565,20.418,123.577,20.392,123.588C20.366,123.598,20.340,123.608,20.314,123.616C20.287,123.624,20.260,123.630,20.233,123.636C20.205,123.641,20.178,123.645,20.150,123.648C20.123,123.651,20.095,123.652,20.067,123.652C20.039,123.652,20.012,123.651,19.984,123.648C19.956,123.645,19.929,123.641,19.902,123.636C19.874,123.630,19.847,123.624,19.821,123.616C19.794,123.608,19.768,123.598,19.742,123.588C19.717,123.577,19.692,123.565,19.667,123.552C19.643,123.539,19.619,123.525,19.596,123.509C19.573,123.494,19.550,123.478,19.529,123.460C19.507,123.442,19.487,123.424,19.467,123.404L9.997,113.953C9.977,113.933,9.958,113.913,9.941,113.891C9.923,113.870,9.907,113.848,9.891,113.825C9.876,113.802,9.862,113.778,9.849,113.754C9.836,113.729,9.824,113.704,9.813,113.679C9.803,113.653,9.793,113.627,9.785,113.601C9.777,113.575,9.771,113.548,9.765,113.521C9.760,113.494,9.756,113.466,9.753,113.439C9.750,113.411,9.749,113.384,9.749,113.356C9.749,113.329,9.750,113.301,9.753,113.274C9.756,113.246,9.760,113.219,9.765,113.192C9.771,113.165,9.777,113.138,9.785,113.111C9.793,113.085,9.803,113.059,9.813,113.033C9.824,113.008,9.836,112.983,9.849,112.959C9.862,112.934,9.876,112.911,9.891,112.888C9.907,112.865,9.923,112.842,9.997,112.760ZC9.958,112.800,9.977,112.779,9.997,112.760ZZ" fill="none" style="fill: none; fill-opacity: 0;" class="fills"/><g fill-rule="evenodd" fill="none" fill-opacity="0" class="strokes"><g class="inner-stroke-shape"><defs><clipPath id="q"><use href="#p"/></clipPath><path d="M9.997,112.760L19.429,103.346C19.449,103.327,19.469,103.308,19.491,103.291C19.512,103.273,19.535,103.256,19.558,103.241C19.581,103.226,19.605,103.211,19.629,103.198C19.654,103.185,19.679,103.173,19.704,103.163C19.730,103.152,19.756,103.143,19.783,103.135C19.809,103.127,19.836,103.120,19.864,103.115C19.891,103.109,19.918,103.105,19.946,103.102C19.974,103.100,20.001,103.098,20.029,103.098C20.057,103.098,20.085,103.100,20.112,103.102C20.140,103.105,20.167,103.109,20.195,103.115C20.222,103.120,20.249,103.127,20.275,103.135C20.302,103.143,20.328,103.152,20.354,103.163C20.380,103.173,20.405,103.185,20.429,103.198C20.454,103.211,20.477,103.226,20.501,103.241C20.524,103.256,20.546,103.273,20.567,103.291C20.589,103.308,20.609,103.327,20.629,103.346L30.100,112.798C30.119,112.817,30.138,112.838,30.155,112.859C30.173,112.881,30.189,112.903,30.205,112.926C30.220,112.949,30.234,112.972,30.247,112.997C30.261,113.021,30.272,113.046,30.283,113.072C30.294,113.097,30.303,113.123,30.311,113.149C30.319,113.176,30.326,113.203,30.331,113.230C30.336,113.257,30.341,113.284,30.343,113.312C30.346,113.339,30.347,113.367,30.347,113.394C30.347,113.422,30.346,113.449,30.343,113.477C30.341,113.504,30.336,113.532,30.331,113.559C30.326,113.586,30.319,113.613,30.311,113.639C30.303,113.665,30.294,113.691,30.283,113.717C30.272,113.742,30.261,113.767,30.247,113.792C30.234,113.816,30.220,113.840,30.205,113.863C30.189,113.886,30.173,113.908,30.155,113.929C30.138,113.951,30.119,113.971,30.100,113.991L20.667,123.404C20.648,123.424,20.627,123.442,20.606,123.460C20.584,123.478,20.562,123.494,20.539,123.509C20.516,123.525,20.492,123.539,20.467,123.552C20.443,123.565,20.418,123.577,20.392,123.588C20.366,123.598,20.340,123.608,20.314,123.616C20.287,123.624,20.260,123.630,20.233,123.636C20.205,123.641,20.178,123.645,20.150,123.648C20.123,123.651,20.095,123.652,20.067,123.652C20.039,123.652,20.012,123.651,19.984,123.648C19.956,123.645,19.929,123.641,19.902,123.636C19.874,123.630,19.847,123.624,19.821,123.616C19.794,123.608,19.768,123.598,19.742,123.588C19.717,123.577,19.692,123.565,19.667,123.552C19.643,123.539,19.619,123.525,19.596,123.509C19.573,123.494,19.550,123.478,19.529,123.460C19.507,123.442,19.487,123.424,19.467,123.404L9.997,113.953C9.977,113.933,9.958,113.913,9.941,113.891C9.923,113.870,9.907,113.848,9.891,113.825C9.876,113.802,9.862,113.778,9.849,113.754C9.836,113.729,9.824,113.704,9.813,113.679C9.803,113.653,9.793,113.627,9.785,113.601C9.777,113.575,9.771,113.548,9.765,113.521C9.760,113.494,9.756,113.466,9.753,113.439C9.750,113.411,9.749,113.384,9.749,113.356C9.749,113.329,9.750,113.301,9.753,113.274C9.756,113.246,9.760,113.219,9.765,113.192C9.771,113.165,9.777,113.138,9.785,113.111C9.793,113.085,9.803,113.059,9.813,113.033C9.824,113.008,9.836,112.983,9.849,112.959C9.862,112.934,9.876,112.911,9.891,112.888C9.907,112.865,9.923,112.842,9.997,112.760ZC9.958,112.800,9.977,112.779,9.997,112.760ZZ" id="p" style="fill: none; stroke-width: 2; stroke: rgb(0, 0, 0); stroke-opacity: 1;"/></defs><use href="#p" clip-path="url('#q')"/></g></g><path d="M19.429,103.346L9.997,112.760C9.977,112.779,9.958,112.800,9.941,112.821C9.923,112.842,9.907,112.865,9.891,112.888C9.876,112.911,9.862,112.934,9.849,112.959C9.836,112.983,9.824,113.008,9.813,113.033C9.803,113.059,9.793,113.085,9.785,113.111C9.777,113.138,9.771,113.165,9.765,113.192C9.760,113.219,9.756,113.246,9.753,113.274C9.750,113.301,9.749,113.329,9.749,113.356C9.749,113.384,9.750,113.411,9.753,113.439C9.756,113.466,9.760,113.494,9.765,113.521C9.771,113.548,9.777,113.575,9.785,113.601C9.793,113.627,9.803,113.653,9.813,113.679C9.824,113.704,9.836,113.729,9.849,113.754C9.862,113.778,9.876,113.802,9.891,113.825C9.907,113.848,9.923,113.870,9.941,113.891C9.958,113.913,9.977,113.933,9.997,113.953L19.467,123.404C19.506,123.443,19.549,123.479,19.596,123.509C19.642,123.540,19.691,123.566,19.742,123.588C19.794,123.609,19.847,123.625,19.902,123.636C19.956,123.647,20.012,123.652,20.067,123.652C20.123,123.652,20.178,123.647,20.233,123.636C20.287,123.625,20.341,123.609,20.392,123.588C20.443,123.566,20.492,123.540,20.539,123.509C20.585,123.479,20.628,123.443,20.667,123.404L30.100,113.991C30.119,113.971,30.138,113.951,30.155,113.929C30.173,113.908,30.189,113.886,30.205,113.863C30.220,113.840,30.234,113.816,30.247,113.792C30.261,113.767,30.272,113.742,30.283,113.717C30.294,113.691,30.303,113.665,30.311,113.639C30.319,113.613,30.326,113.586,30.331,113.559C30.336,113.532,30.341,113.504,30.343,113.477C30.346,113.449,30.347,113.422,30.347,113.394C30.347,113.367,30.346,113.339,30.343,113.312C30.341,113.284,30.336,113.257,30.331,113.230C30.326,113.203,30.319,113.176,30.311,113.149C30.303,113.123,30.294,113.097,30.283,113.072C30.272,113.046,30.261,113.021,30.247,112.997C30.234,112.972,30.220,112.949,30.205,112.926C30.189,112.903,30.173,112.881,30.155,112.859C30.138,112.838,30.119,112.817,30.100,112.798L20.629,103.346C20.590,103.307,20.547,103.272,20.501,103.241C20.454,103.210,20.405,103.184,20.354,103.163C20.302,103.142,20.249,103.126,20.195,103.115C20.140,103.104,20.085,103.098,20.029,103.098C19.973,103.098,19.918,103.104,19.864,103.115C19.809,103.126,19.756,103.142,19.704,103.163C19.653,103.184,19.604,103.210,19.558,103.241C19.511,103.272,19.468,103.307,19.429,103.346ZZM10.307,113.644C10.115,113.452,10.115,113.260,10.307,113.068L19.739,103.655C19.819,103.575,19.916,103.535,20.029,103.535C20.142,103.535,20.239,103.575,20.319,103.655L29.789,113.106C29.982,113.298,29.982,113.490,29.789,113.682L20.357,123.096C20.277,123.175,20.180,123.215,20.067,123.215C19.954,123.215,19.857,123.175,19.777,123.096L10.307,113.644ZZ" fill="none" style="fill: none; fill-opacity: 0;" class="fills"/><g fill-rule="evenodd" fill="none" fill-opacity="0" class="strokes"><g class="inner-stroke-shape"><defs><clipPath id="s"><use href="#r"/></clipPath><path d="M19.429,103.346L9.997,112.760C9.977,112.779,9.958,112.800,9.941,112.821C9.923,112.842,9.907,112.865,9.891,112.888C9.876,112.911,9.862,112.934,9.849,112.959C9.836,112.983,9.824,113.008,9.813,113.033C9.803,113.059,9.793,113.085,9.785,113.111C9.777,113.138,9.771,113.165,9.765,113.192C9.760,113.219,9.756,113.246,9.753,113.274C9.750,113.301,9.749,113.329,9.749,113.356C9.749,113.384,9.750,113.411,9.753,113.439C9.756,113.466,9.760,113.494,9.765,113.521C9.771,113.548,9.777,113.575,9.785,113.601C9.793,113.627,9.803,113.653,9.813,113.679C9.824,113.704,9.836,113.729,9.849,113.754C9.862,113.778,9.876,113.802,9.891,113.825C9.907,113.848,9.923,113.870,9.941,113.891C9.958,113.913,9.977,113.933,9.997,113.953L19.467,123.404C19.506,123.443,19.549,123.479,19.596,123.509C19.642,123.540,19.691,123.566,19.742,123.588C19.794,123.609,19.847,123.625,19.902,123.636C19.956,123.647,20.012,123.652,20.067,123.652C20.123,123.652,20.178,123.647,20.233,123.636C20.287,123.625,20.341,123.609,20.392,123.588C20.443,123.566,20.492,123.540,20.539,123.509C20.585,123.479,20.628,123.443,20.667,123.404L30.100,113.991C30.119,113.971,30.138,113.951,30.155,113.929C30.173,113.908,30.189,113.886,30.205,113.863C30.220,113.840,30.234,113.816,30.247,113.792C30.261,113.767,30.272,113.742,30.283,113.717C30.294,113.691,30.303,113.665,30.311,113.639C30.319,113.613,30.326,113.586,30.331,113.559C30.336,113.532,30.341,113.504,30.343,113.477C30.346,113.449,30.347,113.422,30.347,113.394C30.347,113.367,30.346,113.339,30.343,113.312C30.341,113.284,30.336,113.257,30.331,113.230C30.326,113.203,30.319,113.176,30.311,113.149C30.303,113.123,30.294,113.097,30.283,113.072C30.272,113.046,30.261,113.021,30.247,112.997C30.234,112.972,30.220,112.949,30.205,112.926C30.189,112.903,30.173,112.881,30.155,112.859C30.138,112.838,30.119,112.817,30.100,112.798L20.629,103.346C20.590,103.307,20.547,103.272,20.501,103.241C20.454,103.210,20.405,103.184,20.354,103.163C20.302,103.142,20.249,103.126,20.195,103.115C20.140,103.104,20.085,103.098,20.029,103.098C19.973,103.098,19.918,103.104,19.864,103.115C19.809,103.126,19.756,103.142,19.704,103.163C19.653,103.184,19.604,103.210,19.558,103.241C19.511,103.272,19.468,103.307,19.429,103.346ZZM10.307,113.644C10.115,113.452,10.115,113.260,10.307,113.068L19.739,103.655C19.819,103.575,19.916,103.535,20.029,103.535C20.142,103.535,20.239,103.575,20.319,103.655L29.789,113.106C29.982,113.298,29.982,113.490,29.789,113.682L20.357,123.096C20.277,123.175,20.180,123.215,20.067,123.215C19.954,123.215,19.857,123.175,19.777,123.096L10.307,113.644ZZ" id="r" style="fill: none; stroke-width: 2; stroke: rgb(0, 0, 0); stroke-opacity: 1;"/></defs><use href="#r" clip-path="url('#s')"/></g></g></g><g filter="url(#t)" style="fill: rgb(0, 0, 0);"><defs><filter id="t" x="-.384" y="-.384" width="1.939" height="1.939" filterUnits="objectBoundingBox" color-interpolation-filters="sRGB"><feFlood flood-opacity="0" result="BackgroundImageFix"/><feColorMatrix in="SourceAlpha" values="0 0 0 0 0 0 0 0 0 0 0 0 0 0 0 0 0 0 127 0"/><feOffset dx="4" dy="4"/><feGaussianBlur stdDeviation="2"/><feColorMatrix values="0 0 0 0 0 0 0 0 0 0 0 0 0 0 0 0 0 0 0.2 0"/><feBlend in2="BackgroundImageFix" result="filter_e3f8f774-1dd2-807f-8005-a3c13c8c34fb"/><feBlend in="SourceGraphic" in2="filter_e3f8f774-1dd2-807f-8005-a3c13c8c34fb" result="shape"/></filter></defs><path d="M127.560,58.642L160.933,25.275C160.973,25.236,161.014,25.198,161.057,25.163C161.101,25.127,161.145,25.094,161.192,25.063C161.238,25.032,161.286,25.003,161.336,24.977C161.385,24.951,161.436,24.927,161.487,24.905C161.539,24.884,161.592,24.865,161.645,24.849C161.699,24.833,161.753,24.819,161.808,24.808C161.863,24.797,161.918,24.789,161.974,24.784C162.029,24.778,162.085,24.775,162.141,24.775C162.197,24.775,162.253,24.778,162.309,24.784C162.364,24.789,162.420,24.797,162.475,24.808C162.530,24.819,162.584,24.833,162.637,24.849C162.691,24.865,162.744,24.884,162.795,24.905C162.847,24.927,162.897,24.951,162.947,24.977C162.996,25.003,163.044,25.032,163.091,25.063C163.137,25.094,163.182,25.127,163.225,25.163C163.268,25.198,163.310,25.236,163.349,25.275L196.851,58.770C196.890,58.810,196.928,58.851,196.963,58.894C196.998,58.937,197.032,58.982,197.063,59.028C197.094,59.075,197.122,59.122,197.149,59.172C197.175,59.221,197.199,59.271,197.220,59.323C197.241,59.374,197.260,59.426,197.276,59.480C197.292,59.533,197.306,59.587,197.317,59.642C197.328,59.696,197.336,59.751,197.342,59.807C197.347,59.862,197.350,59.918,197.350,59.974C197.350,60.029,197.347,60.085,197.342,60.140C197.336,60.196,197.328,60.251,197.317,60.306C197.306,60.360,197.292,60.414,197.276,60.467C197.260,60.521,197.241,60.573,197.220,60.625C197.199,60.676,197.175,60.726,197.149,60.776C197.122,60.825,197.094,60.873,197.063,60.919C197.032,60.965,196.998,61.010,196.963,61.053C196.928,61.096,196.890,61.137,196.851,61.177L163.478,94.544C163.438,94.583,163.397,94.621,163.353,94.656C163.310,94.692,163.265,94.725,163.219,94.756C163.172,94.787,163.124,94.816,163.075,94.842C163.026,94.869,162.975,94.892,162.923,94.914C162.872,94.935,162.819,94.954,162.765,94.970C162.712,94.986,162.658,95.000,162.603,95.011C162.548,95.022,162.493,95.030,162.437,95.035C162.381,95.041,162.325,95.044,162.269,95.044C162.213,95.044,162.158,95.041,162.102,95.035C162.046,95.030,161.991,95.022,161.936,95.011C161.881,95.000,161.827,94.986,161.773,94.970C161.720,94.954,161.667,94.935,161.615,94.914C161.564,94.892,161.513,94.869,161.464,94.842C161.414,94.816,161.366,94.787,161.320,94.756C161.273,94.725,161.229,94.692,161.185,94.656C161.142,94.621,161.101,94.583,161.061,94.544L127.560,61.049C127.520,61.009,127.483,60.968,127.447,60.925C127.412,60.882,127.379,60.837,127.348,60.791C127.317,60.744,127.288,60.697,127.262,60.648C127.236,60.598,127.212,60.548,127.191,60.497C127.169,60.445,127.150,60.393,127.134,60.339C127.118,60.286,127.105,60.232,127.094,60.177C127.083,60.123,127.075,60.068,127.069,60.012C127.064,59.957,127.061,59.901,127.061,59.846C127.061,59.790,127.064,59.734,127.069,59.679C127.075,59.623,127.083,59.568,127.094,59.514C127.105,59.459,127.118,59.405,127.134,59.352C127.150,59.298,127.169,59.246,127.191,59.195C127.212,59.143,127.236,59.093,127.262,59.044C127.288,58.994,127.317,58.947,127.348,58.900C127.379,58.854,127.412,58.809,127.447,58.766C127.483,58.723,127.520,58.682,127.560,58.642ZZ" fill="none" style="fill: none; fill-opacity: 0;" class="fills"/><g fill-rule="evenodd" fill="none" fill-opacity="0" class="strokes"><g class="inner-stroke-shape"><defs><clipPath id="v"><use href="#u"/></clipPath><path d="M127.560,58.642L160.933,25.275C160.973,25.236,161.014,25.198,161.057,25.163C161.101,25.127,161.145,25.094,161.192,25.063C161.238,25.032,161.286,25.003,161.336,24.977C161.385,24.951,161.436,24.927,161.487,24.905C161.539,24.884,161.592,24.865,161.645,24.849C161.699,24.833,161.753,24.819,161.808,24.808C161.863,24.797,161.918,24.789,161.974,24.784C162.029,24.778,162.085,24.775,162.141,24.775C162.197,24.775,162.253,24.778,162.309,24.784C162.364,24.789,162.420,24.797,162.475,24.808C162.530,24.819,162.584,24.833,162.637,24.849C162.691,24.865,162.744,24.884,162.795,24.905C162.847,24.927,162.897,24.951,162.947,24.977C162.996,25.003,163.044,25.032,163.091,25.063C163.137,25.094,163.182,25.127,163.225,25.163C163.268,25.198,163.310,25.236,163.349,25.275L196.851,58.770C196.890,58.810,196.928,58.851,196.963,58.894C196.998,58.937,197.032,58.982,197.063,59.028C197.094,59.075,197.122,59.122,197.149,59.172C197.175,59.221,197.199,59.271,197.220,59.323C197.241,59.374,197.260,59.426,197.276,59.480C197.292,59.533,197.306,59.587,197.317,59.642C197.328,59.696,197.336,59.751,197.342,59.807C197.347,59.862,197.350,59.918,197.350,59.974C197.350,60.029,197.347,60.085,197.342,60.140C197.336,60.196,197.328,60.251,197.317,60.306C197.306,60.360,197.292,60.414,197.276,60.467C197.260,60.521,197.241,60.573,197.220,60.625C197.199,60.676,197.175,60.726,197.149,60.776C197.122,60.825,197.094,60.873,197.063,60.919C197.032,60.965,196.998,61.010,196.963,61.053C196.928,61.096,196.890,61.137,196.851,61.177L163.478,94.544C163.438,94.583,163.397,94.621,163.353,94.656C163.310,94.692,163.265,94.725,163.219,94.756C163.172,94.787,163.124,94.816,163.075,94.842C163.026,94.869,162.975,94.892,162.923,94.914C162.872,94.935,162.819,94.954,162.765,94.970C162.712,94.986,162.658,95.000,162.603,95.011C162.548,95.022,162.493,95.030,162.437,95.035C162.381,95.041,162.325,95.044,162.269,95.044C162.213,95.044,162.158,95.041,162.102,95.035C162.046,95.030,161.991,95.022,161.936,95.011C161.881,95.000,161.827,94.986,161.773,94.970C161.720,94.954,161.667,94.935,161.615,94.914C161.564,94.892,161.513,94.869,161.464,94.842C161.414,94.816,161.366,94.787,161.320,94.756C161.273,94.725,161.229,94.692,161.185,94.656C161.142,94.621,161.101,94.583,161.061,94.544L127.560,61.049C127.520,61.009,127.483,60.968,127.447,60.925C127.412,60.882,127.379,60.837,127.348,60.791C127.317,60.744,127.288,60.697,127.262,60.648C127.236,60.598,127.212,60.548,127.191,60.497C127.169,60.445,127.150,60.393,127.134,60.339C127.118,60.286,127.105,60.232,127.094,60.177C127.083,60.123,127.075,60.068,127.069,60.012C127.064,59.957,127.061,59.901,127.061,59.846C127.061,59.790,127.064,59.734,127.069,59.679C127.075,59.623,127.083,59.568,127.094,59.514C127.105,59.459,127.118,59.405,127.134,59.352C127.150,59.298,127.169,59.246,127.191,59.195C127.212,59.143,127.236,59.093,127.262,59.044C127.288,58.994,127.317,58.947,127.348,58.900C127.379,58.854,127.412,58.809,127.447,58.766C127.483,58.723,127.520,58.682,127.560,58.642ZZ" id="u" style="fill: none; stroke-width: 2; stroke: rgb(0, 0, 0); stroke-opacity: 1;"/></defs><use href="#u" clip-path="url('#v')"/></g></g><path d="M160.933,25.275L127.560,58.642C127.520,58.682,127.483,58.723,127.447,58.766C127.412,58.809,127.379,58.854,127.348,58.900C127.317,58.947,127.288,58.994,127.262,59.044C127.236,59.093,127.212,59.143,127.191,59.195C127.169,59.246,127.150,59.298,127.134,59.352C127.118,59.405,127.105,59.459,127.094,59.514C127.083,59.568,127.075,59.623,127.069,59.679C127.064,59.734,127.061,59.790,127.061,59.846C127.061,59.901,127.064,59.957,127.069,60.012C127.075,60.068,127.083,60.123,127.094,60.177C127.105,60.232,127.118,60.286,127.134,60.339C127.150,60.393,127.169,60.445,127.191,60.497C127.212,60.548,127.236,60.598,127.262,60.648C127.288,60.697,127.317,60.744,127.348,60.791C127.379,60.837,127.412,60.882,127.447,60.925C127.483,60.968,127.520,61.009,127.560,61.049L161.061,94.544C161.140,94.623,161.227,94.694,161.320,94.756C161.413,94.818,161.512,94.871,161.615,94.914C161.719,94.957,161.826,94.989,161.936,95.011C162.046,95.033,162.157,95.044,162.269,95.044C162.382,95.044,162.493,95.033,162.603,95.011C162.713,94.989,162.820,94.957,162.923,94.914C163.027,94.871,163.126,94.818,163.219,94.756C163.312,94.694,163.398,94.623,163.478,94.544L196.851,61.177C196.890,61.137,196.928,61.096,196.963,61.053C196.998,61.010,197.032,60.965,197.063,60.919C197.094,60.873,197.122,60.825,197.149,60.776C197.175,60.726,197.199,60.676,197.220,60.625C197.241,60.573,197.260,60.521,197.276,60.467C197.292,60.414,197.306,60.360,197.317,60.306C197.328,60.251,197.336,60.196,197.342,60.140C197.347,60.085,197.350,60.029,197.350,59.974C197.350,59.918,197.347,59.862,197.342,59.807C197.336,59.751,197.328,59.696,197.317,59.642C197.306,59.587,197.292,59.533,197.276,59.480C197.260,59.426,197.241,59.374,197.220,59.323C197.199,59.271,197.175,59.221,197.149,59.172C197.122,59.122,197.094,59.075,197.063,59.028C197.032,58.982,196.998,58.937,196.963,58.894C196.928,58.851,196.890,58.810,196.851,58.770L163.349,25.275C163.270,25.196,163.184,25.125,163.091,25.063C162.997,25.001,162.899,24.948,162.795,24.905C162.692,24.862,162.585,24.830,162.475,24.808C162.365,24.786,162.253,24.775,162.141,24.775C162.029,24.775,161.918,24.786,161.808,24.808C161.698,24.830,161.591,24.863,161.487,24.905C161.384,24.948,161.285,25.001,161.192,25.063C161.099,25.125,161.012,25.196,160.933,25.275ZZM161.686,93.921L128.185,60.426C127.797,60.039,127.797,59.652,128.185,59.265L161.558,25.898C161.719,25.737,161.913,25.656,162.141,25.656C162.369,25.656,162.564,25.737,162.725,25.898L196.226,59.393C196.613,59.780,196.613,60.167,196.226,60.555L162.853,93.921C162.692,94.082,162.497,94.163,162.269,94.163C162.041,94.163,161.847,94.082,161.686,93.921ZZ" fill="none" style="fill: none; fill-opacity: 0;" class="fills"/><g fill-rule="evenodd" fill="none" fill-opacity="0" class="strokes"><g class="inner-stroke-shape"><defs><clipPath id="x"><use href="#w"/></clipPath><path d="M160.933,25.275L127.560,58.642C127.520,58.682,127.483,58.723,127.447,58.766C127.412,58.809,127.379,58.854,127.348,58.900C127.317,58.947,127.288,58.994,127.262,59.044C127.236,59.093,127.212,59.143,127.191,59.195C127.169,59.246,127.150,59.298,127.134,59.352C127.118,59.405,127.105,59.459,127.094,59.514C127.083,59.568,127.075,59.623,127.069,59.679C127.064,59.734,127.061,59.790,127.061,59.846C127.061,59.901,127.064,59.957,127.069,60.012C127.075,60.068,127.083,60.123,127.094,60.177C127.105,60.232,127.118,60.286,127.134,60.339C127.150,60.393,127.169,60.445,127.191,60.497C127.212,60.548,127.236,60.598,127.262,60.648C127.288,60.697,127.317,60.744,127.348,60.791C127.379,60.837,127.412,60.882,127.447,60.925C127.483,60.968,127.520,61.009,127.560,61.049L161.061,94.544C161.140,94.623,161.227,94.694,161.320,94.756C161.413,94.818,161.512,94.871,161.615,94.914C161.719,94.957,161.826,94.989,161.936,95.011C162.046,95.033,162.157,95.044,162.269,95.044C162.382,95.044,162.493,95.033,162.603,95.011C162.713,94.989,162.820,94.957,162.923,94.914C163.027,94.871,163.126,94.818,163.219,94.756C163.312,94.694,163.398,94.623,163.478,94.544L196.851,61.177C196.890,61.137,196.928,61.096,196.963,61.053C196.998,61.010,197.032,60.965,197.063,60.919C197.094,60.873,197.122,60.825,197.149,60.776C197.175,60.726,197.199,60.676,197.220,60.625C197.241,60.573,197.260,60.521,197.276,60.467C197.292,60.414,197.306,60.360,197.317,60.306C197.328,60.251,197.336,60.196,197.342,60.140C197.347,60.085,197.350,60.029,197.350,59.974C197.350,59.918,197.347,59.862,197.342,59.807C197.336,59.751,197.328,59.696,197.317,59.642C197.306,59.587,197.292,59.533,197.276,59.480C197.260,59.426,197.241,59.374,197.220,59.323C197.199,59.271,197.175,59.221,197.149,59.172C197.122,59.122,197.094,59.075,197.063,59.028C197.032,58.982,196.998,58.937,196.963,58.894C196.928,58.851,196.890,58.810,196.851,58.770L163.349,25.275C163.270,25.196,163.184,25.125,163.091,25.063C162.997,25.001,162.899,24.948,162.795,24.905C162.692,24.862,162.585,24.830,162.475,24.808C162.365,24.786,162.253,24.775,162.141,24.775C162.029,24.775,161.918,24.786,161.808,24.808C161.698,24.830,161.591,24.863,161.487,24.905C161.384,24.948,161.285,25.001,161.192,25.063C161.099,25.125,161.012,25.196,160.933,25.275ZZM161.686,93.921L128.185,60.426C127.797,60.039,127.797,59.652,128.185,59.265L161.558,25.898C161.719,25.737,161.913,25.656,162.141,25.656C162.369,25.656,162.564,25.737,162.725,25.898L196.226,59.393C196.613,59.780,196.613,60.167,196.226,60.555L162.853,93.921C162.692,94.082,162.497,94.163,162.269,94.163C162.041,94.163,161.847,94.082,161.686,93.921ZZ" id="w" style="fill: none; stroke-width: 2; stroke: rgb(0, 0, 0); stroke-opacity: 1;"/></defs><use href="#w" clip-path="url('#x')"/></g></g></g><g filter="url(#y)" style="fill: rgb(0, 0, 0);"><defs><filter id="y" x="-.58" y="-.581" width="2.419" height="2.42" filterUnits="objectBoundingBox" color-interpolation-filters="sRGB"><feFlood flood-opacity="0" result="BackgroundImageFix"/><feColorMatrix in="SourceAlpha" values="0 0 0 0 0 0 0 0 0 0 0 0 0 0 0 0 0 0 127 0"/><feOffset dx="4" dy="4"/><feGaussianBlur stdDeviation="2"/><feColorMatrix values="0 0 0 0 0 0 0 0 0 0 0 0 0 0 0 0 0 0 0.2 0"/><feBlend in2="BackgroundImageFix" result="filter_e3f8f774-1dd2-807f-8005-a3c13c8c34fb"/><feBlend in="SourceGraphic" in2="filter_e3f8f774-1dd2-807f-8005-a3c13c8c34fb" result="shape"/></filter></defs><path d="M24.507,21.171L44.837,0.845C44.870,0.811,44.905,0.779,44.940,0.747C44.975,0.715,45.010,0.684,45.047,0.655C45.083,0.625,45.120,0.596,45.158,0.567C45.196,0.539,45.235,0.512,45.274,0.486C45.313,0.460,45.353,0.435,45.394,0.410C45.434,0.386,45.475,0.363,45.517,0.341C45.559,0.318,45.601,0.297,45.643,0.277C45.686,0.257,45.729,0.238,45.773,0.220C45.817,0.201,45.861,0.184,45.905,0.169C45.950,0.153,45.994,0.138,46.040,0.124C46.085,0.110,46.130,0.098,46.176,0.086C46.222,0.075,46.268,0.065,46.314,0.055C46.361,0.046,46.407,0.038,46.454,0.031C46.501,0.024,46.548,0.019,46.595,0.014C46.642,0.009,46.689,0.006,46.736,0.003C46.783,0.001,46.830,0.000,46.877,0.000C46.925,0.000,46.972,0.001,47.019,0.003C47.066,0.006,47.113,0.009,47.160,0.014C47.207,0.019,47.254,0.024,47.301,0.031C47.348,0.038,47.394,0.046,47.441,0.055C47.487,0.065,47.533,0.075,47.579,0.086C47.625,0.098,47.670,0.110,47.715,0.124C47.761,0.138,47.805,0.153,47.850,0.169C47.894,0.184,47.938,0.201,47.982,0.220C48.026,0.238,48.069,0.257,48.111,0.277C48.154,0.297,48.196,0.318,48.238,0.341C48.280,0.363,48.321,0.386,48.361,0.410C48.402,0.435,48.442,0.460,48.481,0.486C48.520,0.512,48.559,0.539,48.597,0.567C48.635,0.596,48.672,0.625,48.708,0.655C48.745,0.684,48.780,0.715,48.815,0.747C48.850,0.779,48.885,0.811,48.918,0.845L69.335,21.258C69.369,21.291,69.401,21.325,69.433,21.360C69.464,21.395,69.495,21.431,69.525,21.467C69.555,21.504,69.584,21.541,69.612,21.578C69.640,21.616,69.667,21.655,69.693,21.694C69.719,21.733,69.744,21.773,69.769,21.813C69.793,21.853,69.816,21.894,69.838,21.936C69.860,21.977,69.882,22.019,69.902,22.062C69.922,22.104,69.941,22.147,69.959,22.191C69.977,22.234,69.994,22.278,70.010,22.322C70.026,22.367,70.040,22.411,70.054,22.456C70.068,22.501,70.080,22.546,70.092,22.592C70.103,22.638,70.113,22.684,70.122,22.730C70.132,22.776,70.140,22.822,70.147,22.869C70.154,22.915,70.159,22.962,70.164,23.009C70.169,23.055,70.172,23.102,70.174,23.149C70.177,23.196,70.178,23.243,70.178,23.290C70.178,23.337,70.177,23.384,70.174,23.431C70.172,23.478,70.169,23.525,70.164,23.572C70.159,23.619,70.154,23.665,70.147,23.712C70.140,23.758,70.132,23.805,70.122,23.851C70.113,23.897,70.103,23.943,70.092,23.988C70.080,24.034,70.068,24.079,70.054,24.124C70.040,24.169,70.026,24.214,70.010,24.258C69.994,24.302,69.977,24.346,69.959,24.390C69.941,24.433,69.922,24.476,69.902,24.519C69.882,24.561,69.860,24.603,69.838,24.645C69.816,24.686,69.793,24.727,69.769,24.767C69.744,24.808,69.719,24.847,69.693,24.887C69.667,24.926,69.640,24.964,69.612,25.002C69.584,25.040,69.555,25.077,69.525,25.113C69.495,25.150,69.464,25.185,69.433,25.220C69.401,25.255,69.369,25.289,69.335,25.322L49.005,45.648C48.972,45.682,48.938,45.714,48.903,45.746C48.868,45.778,48.832,45.808,48.796,45.838C48.759,45.868,48.722,45.897,48.684,45.925C48.646,45.954,48.608,45.981,48.568,46.007C48.529,46.033,48.489,46.058,48.449,46.083C48.408,46.107,48.367,46.130,48.325,46.152C48.284,46.175,48.242,46.196,48.199,46.216C48.156,46.236,48.113,46.255,48.069,46.273C48.026,46.291,47.982,46.308,47.937,46.324C47.893,46.340,47.848,46.355,47.803,46.369C47.758,46.382,47.712,46.395,47.666,46.406C47.620,46.418,47.574,46.428,47.528,46.437C47.482,46.447,47.435,46.455,47.388,46.462C47.342,46.469,47.295,46.474,47.248,46.479C47.201,46.484,47.154,46.487,47.107,46.489C47.059,46.492,47.012,46.493,46.965,46.493C46.918,46.493,46.870,46.492,46.823,46.489C46.776,46.487,46.729,46.484,46.682,46.479C46.635,46.474,46.588,46.469,46.541,46.462C46.495,46.455,46.448,46.447,46.402,46.437C46.355,46.428,46.309,46.418,46.264,46.406C46.218,46.395,46.172,46.382,46.127,46.369C46.082,46.355,46.037,46.340,45.993,46.324C45.948,46.308,45.904,46.291,45.860,46.273C45.817,46.255,45.774,46.236,45.731,46.216C45.688,46.196,45.646,46.175,45.604,46.152C45.563,46.130,45.522,46.107,45.481,46.083C45.441,46.058,45.401,46.033,45.361,46.007C45.322,45.981,45.284,45.954,45.246,45.925C45.208,45.897,45.171,45.868,45.134,45.838C45.098,45.808,45.062,45.778,45.027,45.746C44.992,45.714,44.958,45.682,44.924,45.648L24.507,25.235C24.474,25.202,24.441,25.168,24.410,25.133C24.378,25.098,24.347,25.062,24.317,25.026C24.287,24.989,24.259,24.952,24.230,24.915C24.202,24.877,24.175,24.838,24.149,24.799C24.123,24.760,24.098,24.720,24.074,24.680C24.049,24.640,24.026,24.599,24.004,24.557C23.982,24.516,23.961,24.474,23.941,24.431C23.921,24.389,23.901,24.346,23.883,24.302C23.865,24.259,23.848,24.215,23.833,24.171C23.817,24.126,23.802,24.082,23.788,24.037C23.775,23.992,23.762,23.946,23.751,23.901C23.739,23.855,23.729,23.809,23.720,23.763C23.711,23.717,23.703,23.671,23.696,23.624C23.689,23.578,23.683,23.531,23.678,23.484C23.674,23.438,23.670,23.391,23.668,23.344C23.666,23.297,23.665,23.250,23.665,23.203C23.665,23.156,23.666,23.109,23.668,23.062C23.670,23.015,23.674,22.968,23.678,22.921C23.683,22.874,23.689,22.828,23.696,22.781C23.703,22.735,23.711,22.688,23.720,22.642C23.729,22.596,23.739,22.550,23.751,22.505C23.762,22.459,23.775,22.414,23.788,22.369C23.802,22.324,23.817,22.279,23.833,22.235C23.848,22.191,23.865,22.147,23.883,22.103C23.901,22.060,23.921,22.017,23.941,21.974C23.961,21.932,23.982,21.890,24.004,21.848C24.026,21.807,24.049,21.766,24.074,21.726C24.098,21.685,24.123,21.645,24.149,21.606C24.175,21.567,24.202,21.529,24.230,21.491C24.259,21.453,24.287,21.416,24.317,21.380C24.347,21.343,24.378,21.308,24.410,21.273C24.441,21.238,24.474,21.204,24.507,21.171ZZ" fill="none" style="fill: none; fill-opacity: 0;" class="fills"/><g fill-rule="evenodd" fill="none" fill-opacity="0" class="strokes"><g class="inner-stroke-shape"><defs><clipPath id="A"><use href="#z"/></clipPath><path d="M24.507,21.171L44.837,0.845C44.870,0.811,44.905,0.779,44.940,0.747C44.975,0.715,45.010,0.684,45.047,0.655C45.083,0.625,45.120,0.596,45.158,0.567C45.196,0.539,45.235,0.512,45.274,0.486C45.313,0.460,45.353,0.435,45.394,0.410C45.434,0.386,45.475,0.363,45.517,0.341C45.559,0.318,45.601,0.297,45.643,0.277C45.686,0.257,45.729,0.238,45.773,0.220C45.817,0.201,45.861,0.184,45.905,0.169C45.950,0.153,45.994,0.138,46.040,0.124C46.085,0.110,46.130,0.098,46.176,0.086C46.222,0.075,46.268,0.065,46.314,0.055C46.361,0.046,46.407,0.038,46.454,0.031C46.501,0.024,46.548,0.019,46.595,0.014C46.642,0.009,46.689,0.006,46.736,0.003C46.783,0.001,46.830,0.000,46.877,0.000C46.925,0.000,46.972,0.001,47.019,0.003C47.066,0.006,47.113,0.009,47.160,0.014C47.207,0.019,47.254,0.024,47.301,0.031C47.348,0.038,47.394,0.046,47.441,0.055C47.487,0.065,47.533,0.075,47.579,0.086C47.625,0.098,47.670,0.110,47.715,0.124C47.761,0.138,47.805,0.153,47.850,0.169C47.894,0.184,47.938,0.201,47.982,0.220C48.026,0.238,48.069,0.257,48.111,0.277C48.154,0.297,48.196,0.318,48.238,0.341C48.280,0.363,48.321,0.386,48.361,0.410C48.402,0.435,48.442,0.460,48.481,0.486C48.520,0.512,48.559,0.539,48.597,0.567C48.635,0.596,48.672,0.625,48.708,0.655C48.745,0.684,48.780,0.715,48.815,0.747C48.850,0.779,48.885,0.811,48.918,0.845L69.335,21.258C69.369,21.291,69.401,21.325,69.433,21.360C69.464,21.395,69.495,21.431,69.525,21.467C69.555,21.504,69.584,21.541,69.612,21.578C69.640,21.616,69.667,21.655,69.693,21.694C69.719,21.733,69.744,21.773,69.769,21.813C69.793,21.853,69.816,21.894,69.838,21.936C69.860,21.977,69.882,22.019,69.902,22.062C69.922,22.104,69.941,22.147,69.959,22.191C69.977,22.234,69.994,22.278,70.010,22.322C70.026,22.367,70.040,22.411,70.054,22.456C70.068,22.501,70.080,22.546,70.092,22.592C70.103,22.638,70.113,22.684,70.122,22.730C70.132,22.776,70.140,22.822,70.147,22.869C70.154,22.915,70.159,22.962,70.164,23.009C70.169,23.055,70.172,23.102,70.174,23.149C70.177,23.196,70.178,23.243,70.178,23.290C70.178,23.337,70.177,23.384,70.174,23.431C70.172,23.478,70.169,23.525,70.164,23.572C70.159,23.619,70.154,23.665,70.147,23.712C70.140,23.758,70.132,23.805,70.122,23.851C70.113,23.897,70.103,23.943,70.092,23.988C70.080,24.034,70.068,24.079,70.054,24.124C70.040,24.169,70.026,24.214,70.010,24.258C69.994,24.302,69.977,24.346,69.959,24.390C69.941,24.433,69.922,24.476,69.902,24.519C69.882,24.561,69.860,24.603,69.838,24.645C69.816,24.686,69.793,24.727,69.769,24.767C69.744,24.808,69.719,24.847,69.693,24.887C69.667,24.926,69.640,24.964,69.612,25.002C69.584,25.040,69.555,25.077,69.525,25.113C69.495,25.150,69.464,25.185,69.433,25.220C69.401,25.255,69.369,25.289,69.335,25.322L49.005,45.648C48.972,45.682,48.938,45.714,48.903,45.746C48.868,45.778,48.832,45.808,48.796,45.838C48.759,45.868,48.722,45.897,48.684,45.925C48.646,45.954,48.608,45.981,48.568,46.007C48.529,46.033,48.489,46.058,48.449,46.083C48.408,46.107,48.367,46.130,48.325,46.152C48.284,46.175,48.242,46.196,48.199,46.216C48.156,46.236,48.113,46.255,48.069,46.273C48.026,46.291,47.982,46.308,47.937,46.324C47.893,46.340,47.848,46.355,47.803,46.369C47.758,46.382,47.712,46.395,47.666,46.406C47.620,46.418,47.574,46.428,47.528,46.437C47.482,46.447,47.435,46.455,47.388,46.462C47.342,46.469,47.295,46.474,47.248,46.479C47.201,46.484,47.154,46.487,47.107,46.489C47.059,46.492,47.012,46.493,46.965,46.493C46.918,46.493,46.870,46.492,46.823,46.489C46.776,46.487,46.729,46.484,46.682,46.479C46.635,46.474,46.588,46.469,46.541,46.462C46.495,46.455,46.448,46.447,46.402,46.437C46.355,46.428,46.309,46.418,46.264,46.406C46.218,46.395,46.172,46.382,46.127,46.369C46.082,46.355,46.037,46.340,45.993,46.324C45.948,46.308,45.904,46.291,45.860,46.273C45.817,46.255,45.774,46.236,45.731,46.216C45.688,46.196,45.646,46.175,45.604,46.152C45.563,46.130,45.522,46.107,45.481,46.083C45.441,46.058,45.401,46.033,45.361,46.007C45.322,45.981,45.284,45.954,45.246,45.925C45.208,45.897,45.171,45.868,45.134,45.838C45.098,45.808,45.062,45.778,45.027,45.746C44.992,45.714,44.958,45.682,44.924,45.648L24.507,25.235C24.474,25.202,24.441,25.168,24.410,25.133C24.378,25.098,24.347,25.062,24.317,25.026C24.287,24.989,24.259,24.952,24.230,24.915C24.202,24.877,24.175,24.838,24.149,24.799C24.123,24.760,24.098,24.720,24.074,24.680C24.049,24.640,24.026,24.599,24.004,24.557C23.982,24.516,23.961,24.474,23.941,24.431C23.921,24.389,23.901,24.346,23.883,24.302C23.865,24.259,23.848,24.215,23.833,24.171C23.817,24.126,23.802,24.082,23.788,24.037C23.775,23.992,23.762,23.946,23.751,23.901C23.739,23.855,23.729,23.809,23.720,23.763C23.711,23.717,23.703,23.671,23.696,23.624C23.689,23.578,23.683,23.531,23.678,23.484C23.674,23.438,23.670,23.391,23.668,23.344C23.666,23.297,23.665,23.250,23.665,23.203C23.665,23.156,23.666,23.109,23.668,23.062C23.670,23.015,23.674,22.968,23.678,22.921C23.683,22.874,23.689,22.828,23.696,22.781C23.703,22.735,23.711,22.688,23.720,22.642C23.729,22.596,23.739,22.550,23.751,22.505C23.762,22.459,23.775,22.414,23.788,22.369C23.802,22.324,23.817,22.279,23.833,22.235C23.848,22.191,23.865,22.147,23.883,22.103C23.901,22.060,23.921,22.017,23.941,21.974C23.961,21.932,23.982,21.890,24.004,21.848C24.026,21.807,24.049,21.766,24.074,21.726C24.098,21.685,24.123,21.645,24.149,21.606C24.175,21.567,24.202,21.529,24.230,21.491C24.259,21.453,24.287,21.416,24.317,21.380C24.347,21.343,24.378,21.308,24.410,21.273C24.441,21.238,24.474,21.204,24.507,21.171ZZ" id="z" style="fill: none; stroke-width: 2; stroke: rgb(0, 0, 0); stroke-opacity: 1;"/></defs><use href="#z" clip-path="url('#A')"/></g></g><path d="M44.837,0.845L24.507,21.171C24.474,21.204,24.441,21.238,24.410,21.273C24.378,21.308,24.347,21.343,24.317,21.380C24.287,21.416,24.259,21.453,24.230,21.491C24.202,21.529,24.175,21.567,24.149,21.606C24.123,21.645,24.098,21.685,24.074,21.726C24.049,21.766,24.026,21.807,24.004,21.848C23.982,21.890,23.961,21.932,23.941,21.974C23.921,22.017,23.901,22.060,23.883,22.103C23.865,22.147,23.848,22.191,23.833,22.235C23.817,22.279,23.802,22.324,23.788,22.369C23.775,22.414,23.762,22.459,23.751,22.505C23.739,22.550,23.729,22.596,23.720,22.642C23.711,22.688,23.703,22.735,23.696,22.781C23.689,22.828,23.683,22.874,23.678,22.921C23.674,22.968,23.670,23.015,23.668,23.062C23.666,23.109,23.665,23.156,23.665,23.203C23.665,23.250,23.666,23.297,23.668,23.344C23.670,23.391,23.674,23.438,23.678,23.484C23.683,23.531,23.689,23.578,23.696,23.624C23.703,23.671,23.711,23.717,23.720,23.763C23.729,23.809,23.739,23.855,23.751,23.901C23.762,23.946,23.775,23.992,23.788,24.037C23.802,24.082,23.817,24.126,23.833,24.171C23.848,24.215,23.865,24.259,23.883,24.302C23.901,24.346,23.921,24.389,23.941,24.431C23.961,24.474,23.982,24.516,24.004,24.557C24.026,24.599,24.049,24.640,24.074,24.680C24.098,24.720,24.123,24.760,24.149,24.799C24.175,24.838,24.202,24.877,24.230,24.915C24.259,24.952,24.287,24.989,24.317,25.026C24.347,25.062,24.378,25.098,24.410,25.133C24.441,25.168,24.474,25.202,24.507,25.235L44.924,45.648C45.058,45.782,45.204,45.902,45.361,46.007C45.519,46.112,45.685,46.201,45.860,46.273C46.035,46.346,46.216,46.401,46.402,46.437C46.588,46.474,46.775,46.493,46.965,46.493C47.154,46.493,47.342,46.474,47.528,46.437C47.714,46.401,47.894,46.346,48.069,46.273C48.244,46.201,48.411,46.112,48.568,46.007C48.726,45.902,48.872,45.782,49.005,45.648L69.335,25.322C69.369,25.289,69.401,25.255,69.433,25.220C69.464,25.185,69.495,25.150,69.525,25.113C69.555,25.077,69.584,25.040,69.612,25.002C69.640,24.964,69.667,24.926,69.693,24.887C69.719,24.847,69.744,24.808,69.769,24.767C69.793,24.727,69.816,24.686,69.838,24.645C69.860,24.603,69.882,24.561,69.902,24.519C69.922,24.476,69.941,24.433,69.959,24.390C69.977,24.346,69.994,24.302,70.010,24.258C70.026,24.214,70.040,24.169,70.054,24.124C70.068,24.079,70.080,24.034,70.092,23.988C70.103,23.943,70.113,23.897,70.122,23.851C70.132,23.805,70.140,23.758,70.147,23.712C70.154,23.665,70.159,23.619,70.164,23.572C70.169,23.525,70.172,23.478,70.174,23.431C70.177,23.384,70.178,23.337,70.178,23.290C70.178,23.243,70.177,23.196,70.174,23.149C70.172,23.102,70.169,23.055,70.164,23.009C70.159,22.962,70.154,22.915,70.147,22.869C70.140,22.822,70.132,22.776,70.122,22.730C70.113,22.684,70.103,22.638,70.092,22.592C70.080,22.546,70.068,22.501,70.054,22.456C70.040,22.411,70.026,22.367,70.010,22.322C69.994,22.278,69.977,22.234,69.959,22.191C69.941,22.147,69.922,22.104,69.902,22.062C69.882,22.019,69.860,21.977,69.838,21.936C69.816,21.894,69.793,21.853,69.769,21.813C69.744,21.773,69.719,21.733,69.693,21.694C69.667,21.655,69.640,21.616,69.612,21.578C69.584,21.541,69.555,21.504,69.525,21.467C69.495,21.431,69.464,21.395,69.433,21.360C69.401,21.325,69.369,21.291,69.335,21.258L48.918,0.845C48.784,0.711,48.638,0.591,48.481,0.486C48.323,0.381,48.157,0.292,47.982,0.220C47.807,0.147,47.626,0.092,47.441,0.055C47.255,0.019,47.067,0.000,46.878,0.000C46.688,0.000,46.500,0.019,46.314,0.055C46.129,0.092,45.948,0.147,45.773,0.220C45.598,0.292,45.432,0.381,45.274,0.486C45.117,0.591,44.971,0.711,44.837,0.845ZZM25.132,24.613C24.192,23.673,24.192,22.733,25.132,21.793L45.462,1.467C45.853,1.076,46.324,0.881,46.878,0.881C47.431,0.881,47.902,1.076,48.293,1.467L68.711,21.880C69.651,22.820,69.651,23.760,68.711,24.700L48.381,45.026C47.990,45.417,47.518,45.612,46.965,45.612C46.412,45.612,45.940,45.417,45.549,45.026L25.132,24.613ZZ" fill="none" style="fill: none; fill-opacity: 0;" class="fills"/><g fill-rule="evenodd" fill="none" fill-opacity="0" class="strokes"><g class="inner-stroke-shape"><defs><clipPath id="C"><use href="#B"/></clipPath><path d="M44.837,0.845L24.507,21.171C24.474,21.204,24.441,21.238,24.410,21.273C24.378,21.308,24.347,21.343,24.317,21.380C24.287,21.416,24.259,21.453,24.230,21.491C24.202,21.529,24.175,21.567,24.149,21.606C24.123,21.645,24.098,21.685,24.074,21.726C24.049,21.766,24.026,21.807,24.004,21.848C23.982,21.890,23.961,21.932,23.941,21.974C23.921,22.017,23.901,22.060,23.883,22.103C23.865,22.147,23.848,22.191,23.833,22.235C23.817,22.279,23.802,22.324,23.788,22.369C23.775,22.414,23.762,22.459,23.751,22.505C23.739,22.550,23.729,22.596,23.720,22.642C23.711,22.688,23.703,22.735,23.696,22.781C23.689,22.828,23.683,22.874,23.678,22.921C23.674,22.968,23.670,23.015,23.668,23.062C23.666,23.109,23.665,23.156,23.665,23.203C23.665,23.250,23.666,23.297,23.668,23.344C23.670,23.391,23.674,23.438,23.678,23.484C23.683,23.531,23.689,23.578,23.696,23.624C23.703,23.671,23.711,23.717,23.720,23.763C23.729,23.809,23.739,23.855,23.751,23.901C23.762,23.946,23.775,23.992,23.788,24.037C23.802,24.082,23.817,24.126,23.833,24.171C23.848,24.215,23.865,24.259,23.883,24.302C23.901,24.346,23.921,24.389,23.941,24.431C23.961,24.474,23.982,24.516,24.004,24.557C24.026,24.599,24.049,24.640,24.074,24.680C24.098,24.720,24.123,24.760,24.149,24.799C24.175,24.838,24.202,24.877,24.230,24.915C24.259,24.952,24.287,24.989,24.317,25.026C24.347,25.062,24.378,25.098,24.410,25.133C24.441,25.168,24.474,25.202,24.507,25.235L44.924,45.648C45.058,45.782,45.204,45.902,45.361,46.007C45.519,46.112,45.685,46.201,45.860,46.273C46.035,46.346,46.216,46.401,46.402,46.437C46.588,46.474,46.775,46.493,46.965,46.493C47.154,46.493,47.342,46.474,47.528,46.437C47.714,46.401,47.894,46.346,48.069,46.273C48.244,46.201,48.411,46.112,48.568,46.007C48.726,45.902,48.872,45.782,49.005,45.648L69.335,25.322C69.369,25.289,69.401,25.255,69.433,25.220C69.464,25.185,69.495,25.150,69.525,25.113C69.555,25.077,69.584,25.040,69.612,25.002C69.640,24.964,69.667,24.926,69.693,24.887C69.719,24.847,69.744,24.808,69.769,24.767C69.793,24.727,69.816,24.686,69.838,24.645C69.860,24.603,69.882,24.561,69.902,24.519C69.922,24.476,69.941,24.433,69.959,24.390C69.977,24.346,69.994,24.302,70.010,24.258C70.026,24.214,70.040,24.169,70.054,24.124C70.068,24.079,70.080,24.034,70.092,23.988C70.103,23.943,70.113,23.897,70.122,23.851C70.132,23.805,70.140,23.758,70.147,23.712C70.154,23.665,70.159,23.619,70.164,23.572C70.169,23.525,70.172,23.478,70.174,23.431C70.177,23.384,70.178,23.337,70.178,23.290C70.178,23.243,70.177,23.196,70.174,23.149C70.172,23.102,70.169,23.055,70.164,23.009C70.159,22.962,70.154,22.915,70.147,22.869C70.140,22.822,70.132,22.776,70.122,22.730C70.113,22.684,70.103,22.638,70.092,22.592C70.080,22.546,70.068,22.501,70.054,22.456C70.040,22.411,70.026,22.367,70.010,22.322C69.994,22.278,69.977,22.234,69.959,22.191C69.941,22.147,69.922,22.104,69.902,22.062C69.882,22.019,69.860,21.977,69.838,21.936C69.816,21.894,69.793,21.853,69.769,21.813C69.744,21.773,69.719,21.733,69.693,21.694C69.667,21.655,69.640,21.616,69.612,21.578C69.584,21.541,69.555,21.504,69.525,21.467C69.495,21.431,69.464,21.395,69.433,21.360C69.401,21.325,69.369,21.291,69.335,21.258L48.918,0.845C48.784,0.711,48.638,0.591,48.481,0.486C48.323,0.381,48.157,0.292,47.982,0.220C47.807,0.147,47.626,0.092,47.441,0.055C47.255,0.019,47.067,0.000,46.878,0.000C46.688,0.000,46.500,0.019,46.314,0.055C46.129,0.092,45.948,0.147,45.773,0.220C45.598,0.292,45.432,0.381,45.274,0.486C45.117,0.591,44.971,0.711,44.837,0.845ZZM25.132,24.613C24.192,23.673,24.192,22.733,25.132,21.793L45.462,1.467C45.853,1.076,46.324,0.881,46.878,0.881C47.431,0.881,47.902,1.076,48.293,1.467L68.711,21.880C69.651,22.820,69.651,23.760,68.711,24.700L48.381,45.026C47.990,45.417,47.518,45.612,46.965,45.612C46.412,45.612,45.940,45.417,45.549,45.026L25.132,24.613ZZ" id="B" style="fill: none; stroke-width: 2; stroke: rgb(0, 0, 0); stroke-opacity: 1;"/></defs><use href="#B" clip-path="url('#C')"/></g></g></g><defs><filter id="D" x="-.569" y="-.569" width="2.39" height="2.39" filterUnits="objectBoundingBox" color-interpolation-filters="sRGB"><feFlood flood-opacity="0" result="BackgroundImageFix"/><feColorMatrix in="SourceAlpha" values="0 0 0 0 0 0 0 0 0 0 0 0 0 0 0 0 0 0 127 0"/><feOffset dx="4" dy="4"/><feGaussianBlur stdDeviation="2"/><feColorMatrix values="0 0 0 0 0 0 0 0 0 0 0 0 0 0 0 0 0 0 0.2 0"/><feBlend in2="BackgroundImageFix" result="filter_e3f8f774-1dd2-807f-8005-a3c13c8c34fb"/><feBlend in="SourceGraphic" in2="filter_e3f8f774-1dd2-807f-8005-a3c13c8c34fb" result="shape"/></filter></defs><path d="M99.269,28.588L121.261,6.601C121.300,6.562,121.342,6.524,121.385,6.489C121.428,6.453,121.473,6.420,121.519,6.389C121.566,6.358,121.614,6.329,121.663,6.303C121.713,6.276,121.763,6.253,121.815,6.231C121.867,6.210,121.919,6.191,121.973,6.175C122.026,6.158,122.081,6.145,122.135,6.134C122.190,6.123,122.246,6.115,122.301,6.109C122.357,6.104,122.413,6.101,122.469,6.101C122.525,6.101,122.581,6.104,122.636,6.109C122.692,6.115,122.747,6.123,122.802,6.134C122.857,6.145,122.911,6.158,122.965,6.175C123.019,6.191,123.071,6.210,123.123,6.231C123.175,6.253,123.225,6.276,123.275,6.303C123.324,6.329,123.372,6.358,123.418,6.389C123.465,6.420,123.510,6.453,123.553,6.489C123.596,6.524,123.638,6.562,123.677,6.601L145.756,28.676C145.795,28.715,145.833,28.757,145.868,28.800C145.904,28.843,145.937,28.888,145.968,28.934C145.999,28.980,146.027,29.028,146.054,29.077C146.080,29.126,146.104,29.177,146.125,29.228C146.146,29.280,146.165,29.332,146.181,29.385C146.197,29.439,146.211,29.493,146.222,29.547C146.233,29.602,146.241,29.657,146.246,29.712C146.252,29.768,146.255,29.823,146.255,29.879C146.255,29.935,146.252,29.990,146.246,30.046C146.241,30.101,146.233,30.156,146.222,30.211C146.211,30.266,146.198,30.320,146.181,30.373C146.165,30.426,146.146,30.479,146.125,30.530C146.104,30.582,146.080,30.632,146.054,30.681C146.027,30.730,145.999,30.778,145.968,30.824C145.937,30.871,145.904,30.915,145.868,30.958C145.833,31.002,145.795,31.043,145.756,31.082L123.765,53.069C123.725,53.109,123.684,53.146,123.640,53.182C123.597,53.217,123.552,53.251,123.506,53.282C123.459,53.313,123.411,53.341,123.362,53.368C123.312,53.394,123.262,53.418,123.210,53.439C123.159,53.461,123.106,53.480,123.052,53.496C122.999,53.512,122.945,53.526,122.890,53.537C122.835,53.548,122.779,53.556,122.724,53.561C122.668,53.567,122.612,53.569,122.556,53.569C122.500,53.569,122.444,53.567,122.389,53.561C122.333,53.556,122.278,53.548,122.223,53.537C122.168,53.526,122.114,53.512,122.060,53.496C122.007,53.480,121.954,53.461,121.902,53.439C121.851,53.418,121.800,53.394,121.751,53.368C121.701,53.341,121.653,53.313,121.607,53.282C121.560,53.251,121.515,53.217,121.472,53.182C121.429,53.146,121.388,53.109,121.348,53.069L99.269,30.995C99.230,30.955,99.192,30.914,99.157,30.871C99.122,30.828,99.088,30.783,99.057,30.737C99.026,30.690,98.998,30.643,98.972,30.594C98.945,30.544,98.921,30.494,98.900,30.443C98.879,30.391,98.860,30.339,98.844,30.285C98.828,30.232,98.814,30.178,98.803,30.124C98.792,30.069,98.784,30.014,98.779,29.958C98.773,29.903,98.771,29.847,98.771,29.792C98.771,29.736,98.773,29.680,98.779,29.625C98.784,29.569,98.792,29.514,98.803,29.460C98.814,29.405,98.828,29.351,98.844,29.298C98.860,29.245,98.879,29.192,98.900,29.141C98.921,29.089,98.945,29.039,98.972,28.990C98.998,28.941,99.026,28.893,99.057,28.846C99.088,28.800,99.122,28.755,99.157,28.712C99.192,28.669,99.230,28.628,99.269,28.588ZL99.269,28.588Z" filter="url(#D)" fill-rule="evenodd" style="fill: rgb(99, 163, 180);" class="fills"/><defs><filter id="E" x="-.382" y="-.383" width="1.935" height="1.935" filterUnits="objectBoundingBox" color-interpolation-filters="sRGB"><feFlood flood-opacity="0" result="BackgroundImageFix"/><feColorMatrix in="SourceAlpha" values="0 0 0 0 0 0 0 0 0 0 0 0 0 0 0 0 0 0 127 0"/><feOffset dx="4" dy="4"/><feGaussianBlur stdDeviation="2"/><feColorMatrix values="0 0 0 0 0 0 0 0 0 0 0 0 0 0 0 0 0 0 0.2 0"/><feBlend in2="BackgroundImageFix" result="filter_e3f8f774-1dd2-807f-8005-a3c13c8c34fb"/><feBlend in="SourceGraphic" in2="filter_e3f8f774-1dd2-807f-8005-a3c13c8c34fb" result="shape"/></filter></defs><path d="M1.358,148.581L31.654,118.291C31.707,118.237,31.763,118.185,31.819,118.134C31.875,118.083,31.933,118.033,31.992,117.985C32.051,117.936,32.111,117.890,32.172,117.844C32.233,117.799,32.295,117.755,32.358,117.713C32.422,117.671,32.486,117.630,32.551,117.591C32.617,117.552,32.683,117.514,32.750,117.478C32.817,117.442,32.885,117.408,32.954,117.376C33.023,117.343,33.092,117.312,33.163,117.283C33.233,117.254,33.304,117.227,33.376,117.201C33.448,117.175,33.520,117.152,33.593,117.129C33.666,117.107,33.739,117.087,33.813,117.069C33.887,117.050,33.961,117.033,34.036,117.019C34.111,117.004,34.186,116.991,34.261,116.980C34.336,116.968,34.412,116.959,34.488,116.952C34.563,116.944,34.639,116.939,34.715,116.935C34.792,116.931,34.868,116.929,34.944,116.929C35.020,116.929,35.096,116.931,35.172,116.935C35.248,116.939,35.324,116.944,35.400,116.952C35.476,116.959,35.551,116.968,35.627,116.980C35.702,116.991,35.777,117.004,35.852,117.019C35.927,117.033,36.001,117.050,36.075,117.069C36.149,117.087,36.222,117.107,36.295,117.129C36.368,117.152,36.440,117.175,36.512,117.201C36.583,117.227,36.654,117.254,36.725,117.283C36.795,117.312,36.865,117.343,36.934,117.376C37.002,117.408,37.071,117.442,37.138,117.478C37.205,117.514,37.271,117.552,37.336,117.591C37.402,117.630,37.466,117.671,37.529,117.713C37.593,117.755,37.655,117.799,37.716,117.844C37.777,117.890,37.837,117.936,37.896,117.985C37.955,118.033,38.012,118.083,38.069,118.134C38.125,118.185,38.180,118.237,38.234,118.291L69.234,149.285C69.288,149.339,69.340,149.394,69.391,149.450C69.442,149.506,69.492,149.564,69.540,149.623C69.588,149.681,69.635,149.741,69.680,149.802C69.725,149.863,69.769,149.925,69.811,149.988C69.853,150.051,69.894,150.115,69.933,150.180C69.972,150.245,70.009,150.311,70.045,150.378C70.081,150.445,70.115,150.513,70.148,150.581C70.180,150.650,70.210,150.719,70.239,150.789C70.269,150.859,70.296,150.930,70.322,151.001C70.347,151.073,70.371,151.145,70.393,151.217C70.415,151.290,70.435,151.363,70.454,151.436C70.472,151.510,70.489,151.584,70.504,151.658C70.519,151.733,70.531,151.807,70.542,151.882C70.553,151.957,70.563,152.032,70.570,152.108C70.578,152.183,70.583,152.259,70.587,152.335C70.591,152.410,70.592,152.486,70.592,152.562C70.592,152.638,70.591,152.714,70.587,152.789C70.583,152.865,70.578,152.941,70.570,153.016C70.563,153.091,70.553,153.167,70.542,153.242C70.531,153.317,70.519,153.391,70.504,153.466C70.489,153.540,70.472,153.614,70.454,153.688C70.435,153.761,70.415,153.834,70.393,153.907C70.371,153.979,70.347,154.051,70.322,154.123C70.296,154.194,70.269,154.265,70.239,154.335C70.210,154.405,70.180,154.474,70.148,154.543C70.115,154.611,70.081,154.679,70.045,154.746C70.009,154.813,69.972,154.879,69.933,154.944C69.894,155.009,69.853,155.073,69.811,155.136C69.769,155.199,69.725,155.261,69.680,155.322C69.635,155.383,69.588,155.443,69.540,155.501C69.492,155.560,69.442,155.617,69.391,155.674C69.340,155.730,69.288,155.785,69.234,155.839L38.939,186.128C38.885,186.182,38.830,186.234,38.774,186.285C38.717,186.336,38.660,186.386,38.601,186.435C38.542,186.483,38.482,186.530,38.421,186.575C38.360,186.620,38.297,186.664,38.234,186.706C38.171,186.748,38.107,186.789,38.041,186.828C37.976,186.867,37.910,186.905,37.843,186.941C37.775,186.977,37.707,187.011,37.639,187.044C37.570,187.076,37.500,187.107,37.430,187.136C37.359,187.165,37.288,187.192,37.217,187.218C37.145,187.243,37.073,187.267,37.000,187.290C36.927,187.312,36.853,187.332,36.780,187.351C36.706,187.369,36.631,187.386,36.557,187.401C36.482,187.416,36.407,187.428,36.332,187.439C36.256,187.451,36.181,187.460,36.105,187.468C36.029,187.475,35.953,187.481,35.877,187.484C35.801,187.488,35.725,187.490,35.649,187.490C35.573,187.490,35.496,187.488,35.420,187.484C35.344,187.481,35.268,187.475,35.193,187.468C35.117,187.460,35.041,187.451,34.966,187.439C34.891,187.428,34.815,187.416,34.741,187.401C34.666,187.386,34.592,187.369,34.518,187.351C34.444,187.332,34.371,187.312,34.298,187.290C34.225,187.267,34.153,187.243,34.081,187.218C34.009,187.192,33.938,187.165,33.868,187.136C33.797,187.107,33.728,187.076,33.659,187.044C33.590,187.011,33.522,186.977,33.455,186.941C33.388,186.905,33.322,186.867,33.256,186.828C33.191,186.789,33.127,186.748,33.063,186.706C33.000,186.664,32.938,186.620,32.877,186.575C32.816,186.530,32.756,186.483,32.697,186.435C32.638,186.386,32.580,186.336,32.524,186.285C32.467,186.234,32.412,186.182,32.359,186.128L1.358,155.134C1.305,155.080,1.252,155.025,1.201,154.969C1.150,154.913,1.101,154.855,1.053,154.797C1.004,154.738,0.958,154.678,0.913,154.617C0.867,154.556,0.824,154.494,0.781,154.431C0.739,154.368,0.699,154.304,0.660,154.239C0.621,154.174,0.583,154.108,0.548,154.041C0.512,153.974,0.478,153.907,0.445,153.838C0.413,153.769,0.382,153.700,0.353,153.630C0.324,153.560,0.297,153.489,0.271,153.418C0.245,153.346,0.222,153.274,0.200,153.202C0.178,153.129,0.157,153.056,0.139,152.983C0.121,152.909,0.104,152.835,0.089,152.761C0.074,152.687,0.061,152.612,0.050,152.537C0.039,152.462,0.030,152.387,0.022,152.311C0.015,152.236,0.009,152.160,0.006,152.084C0.002,152.009,0.000,151.933,0.000,151.857C0.000,151.781,0.002,151.706,0.006,151.630C0.009,151.554,0.015,151.479,0.022,151.403C0.030,151.328,0.039,151.252,0.050,151.177C0.061,151.102,0.074,151.028,0.089,150.953C0.104,150.879,0.121,150.805,0.139,150.732C0.157,150.658,0.178,150.585,0.200,150.512C0.222,150.440,0.245,150.368,0.271,150.296C0.297,150.225,0.324,150.154,0.353,150.084C0.382,150.014,0.413,149.945,0.445,149.876C0.478,149.808,0.512,149.740,0.548,149.673C0.583,149.606,0.621,149.540,0.660,149.475C0.699,149.410,0.739,149.346,0.781,149.283C0.824,149.220,0.867,149.158,0.913,149.097C0.958,149.036,1.004,148.976,1.053,148.918C1.101,148.859,1.150,148.802,1.201,148.745C1.252,148.689,1.305,148.634,1.358,148.581ZZ" filter="url(#E)" fill-rule="evenodd" style="fill: rgb(99, 163, 180);" class="fills"/><defs><filter id="F" x="-.236" y="-.236" width="1.577" height="1.577" filterUnits="objectBoundingBox" color-interpolation-filters="sRGB"><feFlood flood-opacity="0" result="BackgroundImageFix"/><feColorMatrix in="SourceAlpha" values="0 0 0 0 0 0 0 0 0 0 0 0 0 0 0 0 0 0 127 0"/><feOffset dx="4" dy="4"/><feGaussianBlur stdDeviation="2"/><feColorMatrix values="0 0 0 0 0 0 0 0 0 0 0 0 0 0 0 0 0 0 0.2 0"/><feBlend in2="BackgroundImageFix" result="filter_e3f8f774-1dd2-807f-8005-a3c13c8c34fb"/><feBlend in="SourceGraphic" in2="filter_e3f8f774-1dd2-807f-8005-a3c13c8c34fb" result="shape"/></filter></defs><path d="M24.066,81.277L74.871,30.482C74.938,30.414,75.007,30.349,75.078,30.285C75.149,30.221,75.221,30.158,75.295,30.098C75.368,30.037,75.443,29.979,75.520,29.922C75.597,29.865,75.675,29.810,75.754,29.757C75.833,29.704,75.914,29.653,75.996,29.604C76.078,29.555,76.161,29.508,76.245,29.463C76.329,29.418,76.414,29.375,76.500,29.335C76.587,29.294,76.674,29.255,76.762,29.219C76.850,29.182,76.939,29.148,77.029,29.116C77.119,29.084,77.210,29.054,77.301,29.026C77.392,28.998,77.484,28.973,77.577,28.950C77.669,28.927,77.763,28.906,77.856,28.887C77.950,28.869,78.044,28.852,78.138,28.838C78.233,28.824,78.327,28.813,78.422,28.803C78.517,28.794,78.613,28.787,78.708,28.782C78.803,28.778,78.899,28.775,78.994,28.775C79.090,28.775,79.185,28.778,79.280,28.782C79.376,28.787,79.471,28.794,79.566,28.803C79.661,28.813,79.756,28.824,79.850,28.838C79.944,28.852,80.038,28.869,80.132,28.887C80.226,28.906,80.319,28.927,80.411,28.950C80.504,28.973,80.596,28.998,80.687,29.026C80.779,29.054,80.869,29.084,80.959,29.116C81.049,29.148,81.138,29.182,81.226,29.219C81.314,29.255,81.402,29.294,81.488,29.335C81.574,29.375,81.659,29.418,81.743,29.463C81.828,29.508,81.911,29.555,81.992,29.604C82.074,29.653,82.155,29.704,82.234,29.757C82.313,29.810,82.391,29.865,82.468,29.922C82.545,29.979,82.620,30.037,82.694,30.098C82.767,30.158,82.840,30.221,82.910,30.285C82.981,30.349,83.050,30.414,83.117,30.482L135.051,82.406C135.118,82.473,135.184,82.542,135.248,82.612C135.312,82.683,135.374,82.755,135.434,82.828C135.494,82.902,135.553,82.977,135.610,83.053C135.666,83.129,135.721,83.207,135.774,83.286C135.827,83.365,135.877,83.445,135.926,83.527C135.976,83.608,136.022,83.691,136.067,83.775C136.112,83.859,136.155,83.944,136.195,84.029C136.236,84.115,136.275,84.202,136.311,84.290C136.347,84.378,136.382,84.466,136.414,84.556C136.446,84.645,136.475,84.736,136.503,84.827C136.531,84.917,136.556,85.009,136.579,85.101C136.602,85.193,136.623,85.286,136.642,85.379C136.660,85.472,136.677,85.566,136.690,85.660C136.705,85.754,136.716,85.848,136.725,85.943C136.735,86.037,136.742,86.132,136.746,86.227C136.751,86.322,136.753,86.417,136.753,86.512C136.753,86.607,136.751,86.702,136.746,86.797C136.742,86.892,136.735,86.986,136.725,87.081C136.716,87.175,136.705,87.270,136.690,87.364C136.677,87.458,136.660,87.551,136.642,87.644C136.623,87.737,136.602,87.830,136.579,87.923C136.556,88.015,136.531,88.106,136.503,88.197C136.475,88.288,136.446,88.378,136.414,88.468C136.382,88.557,136.347,88.646,136.311,88.734C136.275,88.821,136.236,88.908,136.195,88.994C136.155,89.080,136.112,89.165,136.067,89.249C136.022,89.332,135.976,89.415,135.926,89.497C135.878,89.578,135.827,89.659,135.774,89.738C135.721,89.817,135.666,89.895,135.610,89.971C135.553,90.047,135.494,90.122,135.434,90.195C135.374,90.269,135.312,90.341,135.248,90.411C135.184,90.482,135.118,90.551,135.051,90.618L84.246,141.413C84.179,141.481,84.110,141.546,84.039,141.610C83.968,141.674,83.896,141.736,83.823,141.797C83.749,141.857,83.674,141.916,83.597,141.973C83.521,142.030,83.443,142.084,83.363,142.137C83.284,142.191,83.203,142.242,83.122,142.291C83.040,142.340,82.957,142.387,82.873,142.432C82.788,142.477,82.703,142.519,82.617,142.560C82.530,142.601,82.443,142.639,82.355,142.676C82.267,142.713,82.178,142.747,82.088,142.779C81.998,142.811,81.908,142.841,81.816,142.868C81.725,142.896,81.633,142.922,81.540,142.945C81.448,142.968,81.355,142.989,81.261,143.008C81.168,143.026,81.073,143.043,80.979,143.056C80.885,143.070,80.790,143.082,80.695,143.092C80.600,143.101,80.505,143.108,80.409,143.113C80.314,143.117,80.219,143.120,80.123,143.120C80.028,143.120,79.932,143.117,79.837,143.113C79.742,143.108,79.646,143.101,79.551,143.092C79.456,143.082,79.362,143.070,79.267,143.056C79.173,143.043,79.079,143.026,78.985,143.008C78.892,142.989,78.799,142.968,78.706,142.945C78.613,142.922,78.521,142.896,78.430,142.868C78.339,142.841,78.248,142.811,78.158,142.779C78.068,142.747,77.979,142.713,77.891,142.676C77.803,142.639,77.716,142.601,77.630,142.560C77.543,142.519,77.458,142.477,77.374,142.432C77.290,142.387,77.207,142.340,77.125,142.291C77.043,142.242,76.962,142.191,76.883,142.137C76.804,142.084,76.726,142.030,76.649,141.973C76.573,141.916,76.497,141.857,76.424,141.797C76.350,141.736,76.278,141.674,76.207,141.610C76.136,141.546,76.067,141.481,76.000,141.413L24.066,89.489C23.999,89.422,23.933,89.353,23.869,89.283C23.806,89.212,23.743,89.140,23.683,89.067C23.623,88.993,23.564,88.918,23.508,88.842C23.451,88.765,23.396,88.688,23.343,88.609C23.290,88.530,23.240,88.450,23.191,88.368C23.142,88.286,23.095,88.204,23.050,88.120C23.005,88.036,22.963,87.951,22.922,87.866C22.881,87.780,22.843,87.693,22.806,87.605C22.770,87.517,22.736,87.428,22.704,87.339C22.672,87.249,22.642,87.159,22.614,87.068C22.587,86.977,22.561,86.886,22.538,86.794C22.515,86.702,22.494,86.609,22.476,86.516C22.457,86.422,22.441,86.329,22.427,86.235C22.413,86.141,22.401,86.047,22.392,85.952C22.383,85.858,22.376,85.763,22.371,85.668C22.366,85.573,22.364,85.478,22.364,85.383C22.364,85.288,22.366,85.193,22.371,85.098C22.376,85.003,22.383,84.909,22.392,84.814C22.401,84.719,22.413,84.625,22.427,84.531C22.441,84.437,22.457,84.344,22.476,84.250C22.494,84.157,22.515,84.065,22.538,83.972C22.561,83.880,22.587,83.789,22.614,83.698C22.642,83.607,22.672,83.517,22.704,83.427C22.736,83.338,22.770,83.249,22.806,83.161C22.843,83.073,22.881,82.987,22.922,82.901C22.963,82.815,23.005,82.730,23.050,82.646C23.095,82.562,23.142,82.480,23.191,82.398C23.240,82.317,23.290,82.236,23.343,82.157C23.396,82.078,23.451,82.000,23.508,81.924C23.564,81.848,23.623,81.773,23.683,81.699C23.743,81.626,23.806,81.554,23.869,81.483C23.933,81.413,23.999,81.344,24.066,81.277ZL24.066,81.277Z" filter="url(#F)" fill-rule="evenodd" style="fill: rgb(99, 163, 180);" class="fills"/><defs><filter id="G" x="-1.748" y="-1.748" width="5.173" height="5.173" filterUnits="objectBoundingBox" color-interpolation-filters="sRGB"><feFlood flood-opacity="0" result="BackgroundImageFix"/><feColorMatrix in="SourceAlpha" values="0 0 0 0 0 0 0 0 0 0 0 0 0 0 0 0 0 0 127 0"/><feOffset dx="4" dy="4"/><feGaussianBlur stdDeviation="2"/><feColorMatrix values="0 0 0 0 0 0 0 0 0 0 0 0 0 0 0 0 0 0 0.2 0"/><feBlend in2="BackgroundImageFix" result="filter_e3f8f774-1dd2-807f-8005-a3c13c8c34fb"/><feBlend in="SourceGraphic" in2="filter_e3f8f774-1dd2-807f-8005-a3c13c8c34fb" result="shape"/></filter></defs><path d="M221.451,12.623L229.665,4.409C229.680,4.394,229.695,4.380,229.711,4.367C229.727,4.354,229.744,4.341,229.762,4.330C229.779,4.318,229.797,4.307,229.815,4.298C229.834,4.288,229.853,4.279,229.872,4.271C229.891,4.263,229.911,4.256,229.931,4.250C229.951,4.244,229.971,4.239,229.992,4.234C230.012,4.230,230.033,4.227,230.054,4.225C230.074,4.223,230.095,4.222,230.116,4.222C230.137,4.222,230.158,4.223,230.179,4.225C230.200,4.227,230.220,4.230,230.241,4.234C230.261,4.239,230.281,4.244,230.301,4.250C230.321,4.256,230.341,4.263,230.360,4.271C230.380,4.279,230.399,4.288,230.417,4.298C230.436,4.307,230.453,4.318,230.471,4.330C230.488,4.341,230.505,4.354,230.521,4.367C230.537,4.380,230.553,4.394,230.567,4.409L238.814,12.656C238.828,12.670,238.842,12.686,238.856,12.702C238.869,12.718,238.881,12.735,238.893,12.752C238.904,12.769,238.915,12.787,238.925,12.806C238.935,12.824,238.944,12.843,238.952,12.862C238.960,12.881,238.967,12.901,238.973,12.921C238.979,12.941,238.984,12.961,238.988,12.981C238.992,13.002,238.995,13.022,238.997,13.043C238.999,13.064,239.000,13.084,239.000,13.105C239.000,13.126,238.999,13.147,238.997,13.168C238.995,13.188,238.992,13.209,238.988,13.229C238.984,13.250,238.979,13.270,238.973,13.290C238.967,13.310,238.960,13.329,238.952,13.348C238.944,13.368,238.935,13.386,238.925,13.405C238.915,13.423,238.904,13.441,238.893,13.458C238.881,13.476,238.869,13.492,238.856,13.508C238.842,13.525,238.828,13.540,238.814,13.555L230.600,21.769C230.585,21.783,230.570,21.798,230.554,21.811C230.538,21.824,230.521,21.836,230.503,21.848C230.486,21.860,230.468,21.870,230.450,21.880C230.431,21.890,230.412,21.899,230.393,21.907C230.374,21.915,230.354,21.922,230.334,21.928C230.314,21.934,230.294,21.939,230.273,21.943C230.253,21.947,230.232,21.950,230.211,21.952C230.191,21.955,230.170,21.956,230.149,21.956C230.128,21.956,230.107,21.955,230.086,21.952C230.065,21.950,230.045,21.947,230.024,21.943C230.004,21.939,229.984,21.934,229.964,21.928C229.944,21.922,229.924,21.915,229.905,21.907C229.885,21.899,229.866,21.890,229.848,21.880C229.829,21.870,229.812,21.860,229.794,21.848C229.777,21.836,229.760,21.824,229.744,21.811C229.728,21.798,229.712,21.783,229.698,21.769L221.451,13.522C221.437,13.507,221.423,13.492,221.409,13.476C221.396,13.460,221.384,13.443,221.372,13.426C221.361,13.408,221.350,13.391,221.340,13.372C221.330,13.354,221.321,13.335,221.313,13.316C221.305,13.297,221.298,13.277,221.292,13.257C221.286,13.237,221.281,13.217,221.277,13.197C221.273,13.176,221.270,13.156,221.268,13.135C221.266,13.114,221.265,13.093,221.265,13.073C221.265,13.052,221.266,13.031,221.268,13.010C221.270,12.990,221.273,12.969,221.277,12.949C221.281,12.928,221.286,12.908,221.292,12.888C221.298,12.868,221.305,12.849,221.313,12.829C221.321,12.810,221.330,12.791,221.340,12.773C221.350,12.755,221.361,12.737,221.372,12.719C221.384,12.702,221.396,12.685,221.451,12.623ZC221.423,12.653,221.437,12.638,221.451,12.623ZZ" filter="url(#G)" style="fill: rgb(99, 163, 180); fill-opacity: 0;" fill="none" class="fills"/><g fill-rule="evenodd" class="strokes"><g class="outer-stroke-shape"><defs><mask id="I" x="217.644" y=".601" width="24.978" height="24.976" maskUnits="userSpaceOnUse"><use href="#H" style="fill: none; stroke: white; stroke-width: 3;"/><use href="#H" style="fill: black; stroke: none;"/></mask><path d="M221.451,12.623L229.665,4.409C229.680,4.394,229.695,4.380,229.711,4.367C229.727,4.354,229.744,4.341,229.762,4.330C229.779,4.318,229.797,4.307,229.815,4.298C229.834,4.288,229.853,4.279,229.872,4.271C229.891,4.263,229.911,4.256,229.931,4.250C229.951,4.244,229.971,4.239,229.992,4.234C230.012,4.230,230.033,4.227,230.054,4.225C230.074,4.223,230.095,4.222,230.116,4.222C230.137,4.222,230.158,4.223,230.179,4.225C230.200,4.227,230.220,4.230,230.241,4.234C230.261,4.239,230.281,4.244,230.301,4.250C230.321,4.256,230.341,4.263,230.360,4.271C230.380,4.279,230.399,4.288,230.417,4.298C230.436,4.307,230.453,4.318,230.471,4.330C230.488,4.341,230.505,4.354,230.521,4.367C230.537,4.380,230.553,4.394,230.567,4.409L238.814,12.656C238.828,12.670,238.842,12.686,238.856,12.702C238.869,12.718,238.881,12.735,238.893,12.752C238.904,12.769,238.915,12.787,238.925,12.806C238.935,12.824,238.944,12.843,238.952,12.862C238.960,12.881,238.967,12.901,238.973,12.921C238.979,12.941,238.984,12.961,238.988,12.981C238.992,13.002,238.995,13.022,238.997,13.043C238.999,13.064,239.000,13.084,239.000,13.105C239.000,13.126,238.999,13.147,238.997,13.168C238.995,13.188,238.992,13.209,238.988,13.229C238.984,13.250,238.979,13.270,238.973,13.290C238.967,13.310,238.960,13.329,238.952,13.348C238.944,13.368,238.935,13.386,238.925,13.405C238.915,13.423,238.904,13.441,238.893,13.458C238.881,13.476,238.869,13.492,238.856,13.508C238.842,13.525,238.828,13.540,238.814,13.555L230.600,21.769C230.585,21.783,230.570,21.798,230.554,21.811C230.538,21.824,230.521,21.836,230.503,21.848C230.486,21.860,230.468,21.870,230.450,21.880C230.431,21.890,230.412,21.899,230.393,21.907C230.374,21.915,230.354,21.922,230.334,21.928C230.314,21.934,230.294,21.939,230.273,21.943C230.253,21.947,230.232,21.950,230.211,21.952C230.191,21.955,230.170,21.956,230.149,21.956C230.128,21.956,230.107,21.955,230.086,21.952C230.065,21.950,230.045,21.947,230.024,21.943C230.004,21.939,229.984,21.934,229.964,21.928C229.944,21.922,229.924,21.915,229.905,21.907C229.885,21.899,229.866,21.890,229.848,21.880C229.829,21.870,229.812,21.860,229.794,21.848C229.777,21.836,229.760,21.824,229.744,21.811C229.728,21.798,229.712,21.783,229.698,21.769L221.451,13.522C221.437,13.507,221.423,13.492,221.409,13.476C221.396,13.460,221.384,13.443,221.372,13.426C221.361,13.408,221.350,13.391,221.340,13.372C221.330,13.354,221.321,13.335,221.313,13.316C221.305,13.297,221.298,13.277,221.292,13.257C221.286,13.237,221.281,13.217,221.277,13.197C221.273,13.176,221.270,13.156,221.268,13.135C221.266,13.114,221.265,13.093,221.265,13.073C221.265,13.052,221.266,13.031,221.268,13.010C221.270,12.990,221.273,12.969,221.277,12.949C221.281,12.928,221.286,12.908,221.292,12.888C221.298,12.868,221.305,12.849,221.313,12.829C221.321,12.810,221.330,12.791,221.340,12.773C221.350,12.755,221.361,12.737,221.372,12.719C221.384,12.702,221.396,12.685,221.451,12.623ZC221.423,12.653,221.437,12.638,221.451,12.623ZZ" id="H"/></defs><use href="#H" mask="url(#I)" style="fill: none; stroke-width: 3; stroke: rgb(0, 0, 0); stroke-opacity: 1;"/><use href="#H" style="fill: none; stroke-width: 1.5; stroke: none; stroke-opacity: 1;"/></g></g></svg>