<?xml version="1.0" encoding="utf-8"?>
<svg width="37.662" height="31.747" viewBox="0 0 37.662 31.747" fill="none" xmlns="http://www.w3.org/2000/svg">
  <defs>
    <linearGradient id="gradient_1" gradientUnits="userSpaceOnUse" x1="4.125" y1="0" x2="4.125" y2="8.261">
      <stop offset="0.536" stop-color="#FFFFFF" stop-opacity="0.871" />
      <stop offset="1" stop-color="#E9F2FB" />
    </linearGradient>
    <filter color-interpolation-filters="sRGB" x="-6.25" y="-6.261" width="8.25" height="8.261" id="filter_2">
      <feFlood flood-opacity="0" result="BackgroundImageFix_1" />
      <feColorMatrix type="matrix" values="0 0 0 0 0 0 0 0 0 0 0 0 0 0 0 0 0 0 1 0" in="SourceAlpha" />
      <feOffset dx="0" dy="4" />
      <feGaussianBlur stdDeviation="2" />
      <feColorMatrix type="matrix" values="0 0 0 0 0 0 0 0 0 0 0 0 0 0 0 0 0 0 0.251 0" />
      <feBlend mode="normal" in2="BackgroundImageFix_1" result="Shadow_2" />
      <feBlend mode="normal" in="SourceGraphic" in2="Shadow_2" result="Shape_3" />
    </filter>
    <filter color-interpolation-filters="sRGB" x="-8.707" y="-3.703" width="10.707" height="5.703" id="filter_3">
      <feFlood flood-opacity="0" result="BackgroundImageFix_1" />
      <feColorMatrix type="matrix" values="0 0 0 0 0 0 0 0 0 0 0 0 0 0 0 0 0 0 1 0" in="SourceAlpha" />
      <feOffset dx="0" dy="4" />
      <feGaussianBlur stdDeviation="2" />
      <feColorMatrix type="matrix" values="0 0 0 0 0 0 0 0 0 0 0 0 0 0 0 0 0 0 0.251 0" />
      <feBlend mode="normal" in2="BackgroundImageFix_1" result="Shadow_2" />
      <feBlend mode="normal" in="SourceGraphic" in2="Shadow_2" result="Shape_3" />
    </filter>
    <filter color-interpolation-filters="sRGB" x="-6.464" y="-6.096" width="8.464" height="8.096" id="filter_4">
      <feFlood flood-opacity="0" result="BackgroundImageFix_1" />
      <feColorMatrix type="matrix" values="0 0 0 0 0 0 0 0 0 0 0 0 0 0 0 0 0 0 1 0" in="SourceAlpha" />
      <feOffset dx="0" dy="4" />
      <feGaussianBlur stdDeviation="2" />
      <feColorMatrix type="matrix" values="0 0 0 0 0 0 0 0 0 0 0 0 0 0 0 0 0 0 0.251 0" />
      <feBlend mode="normal" in2="BackgroundImageFix_1" result="Shadow_2" />
      <feBlend mode="normal" in="SourceGraphic" in2="Shadow_2" result="Shape_3" />
    </filter>
    <filter color-interpolation-filters="sRGB" x="-8.265" y="-4.602" width="10.265" height="6.602" id="filter_5">
      <feFlood flood-opacity="0" result="BackgroundImageFix_1" />
      <feColorMatrix type="matrix" values="0 0 0 0 0 0 0 0 0 0 0 0 0 0 0 0 0 0 1 0" in="SourceAlpha" />
      <feOffset dx="0" dy="4" />
      <feGaussianBlur stdDeviation="2" />
      <feColorMatrix type="matrix" values="0 0 0 0 0 0 0 0 0 0 0 0 0 0 0 0 0 0 0.251 0" />
      <feBlend mode="normal" in2="BackgroundImageFix_1" result="Shadow_2" />
      <feBlend mode="normal" in="SourceGraphic" in2="Shadow_2" result="Shape_3" />
    </filter>
  </defs>
  <g transform="translate(7.5 6.5)">
    <g fill="url(#gradient_1)" fill-rule="evenodd" filter="url(#filter_2)" mix-blend-mode="luminosity" transform="translate(2.634 6.986)">
      <path d="M0.128792 8.26C0.128792 8.26 2.85874 8.31573 4.46336 7.65133C6.06799 6.98694 7.44283 5.84535 7.44283 5.84535C7.44283 5.84535 7.92564 3.83233 8.15047 2.32478C8.37529 0.817247 8.15028 0.0135336 8.15028 0.0135336C8.15028 0.0135336 6.6266 -0.127357 5.08458 0.500029C3.54256 1.1274 2.17402 2.32471 2.17402 2.32471C2.17402 2.32471 0.414803 3.93463 0.12738 5.4792C-0.160042 7.02376 0.128792 8.26 0.128792 8.26Z" />
      <path d="M4.46336 7.65134C2.85874 8.31573 0.12879 8.26 0.12879 8.26C0.12879 8.26 -0.160044 7.02376 0.127378 5.4792C0.4148 3.93463 2.17402 2.32471 2.17402 2.32471C2.17402 2.32471 3.54256 1.1274 5.08458 0.500029C6.6266 -0.127357 8.15028 0.0135341 8.15028 0.0135341C8.15028 0.0135341 8.37529 0.817248 8.15047 2.32478C7.92564 3.83233 7.44282 5.84535 7.44282 5.84535C7.44282 5.84535 6.06798 6.98694 4.46336 7.65134ZM7.17444 5.67773Q5.86662 6.74562 4.34859 7.37416Q2.87183 7.98561 0.373357 7.96356Q0.172914 6.87432 0.422315 5.53408Q0.691181 4.08924 2.3741 2.54827Q3.70365 1.38574 5.19764 0.77791Q6.56273 0.222512 7.90774 0.296421Q8.04147 1.02173 7.85375 2.28053Q7.63632 3.73849 7.17444 5.67773Z" fill="#000000" fill-rule="evenodd" />
    </g>
    <g fill="url(#gradient_1)" fill-rule="evenodd" filter="url(#filter_3)" mix-blend-mode="luminosity">
      <path d="M0 0.592285C0 0.592285 0.505348 2.42499 1.69045 3.59229C2.87577 4.75958 4.50813 5.59239 4.50813 5.59239C4.50813 5.59239 6.23099 5.84229 7.92155 5.59229C9.61201 5.34229 10.7067 4.59229 10.7067 4.59229C10.7067 4.59229 10.7067 3.15357 9.57983 2.02857C8.45287 0.903564 6.76232 0.0923901 6.76232 0.0923901C6.76232 0.0923901 4.79276 -0.115417 3.04403 0.0922852C1.29528 0.299988 0 0.592285 0 0.592285Z" />
      <path d="M0.0913791 0.879226C0.0296342 0.699757 0 0.592285 0 0.592285C0 0.592285 0.104459 0.568713 0.294097 0.530199C0.772242 0.433093 1.79189 0.241004 3.04403 0.0922851C4.79276 -0.115418 6.76232 0.09239 6.76232 0.09239C6.76232 0.09239 8.45287 0.903564 9.57983 2.02857C10.7067 3.15357 10.7067 4.59229 10.7067 4.59229C10.7067 4.59229 9.61201 5.34229 7.92155 5.59229C6.23099 5.84229 4.50813 5.59239 4.50813 5.59239C4.50813 5.59239 2.87577 4.75958 1.69045 3.59229C0.79233 2.70766 0.284611 1.44088 0.0913791 0.879226ZM0.379497 0.816853Q0.872551 2.36558 1.90097 3.37855Q3.03729 4.49759 4.60029 5.30252Q6.25464 5.53553 7.87766 5.29551Q9.39648 5.0709 10.4029 4.43328Q10.3435 3.21484 9.36788 2.24088Q8.29256 1.16743 6.67916 0.38535Q4.77183 0.189178 3.07941 0.390191Q1.55393 0.571376 0.379497 0.816853Z" fill="#000000" fill-rule="evenodd" />
    </g>
    <g fill="url(#gradient_1)" fill-rule="evenodd" filter="url(#filter_4)" mix-blend-mode="luminosity" transform="translate(12.397 7)">
      <path d="M1.12703 0.0554199C1.12703 0.0554199 0 -0.341408 0 0.988672C0 2.31875 0.446579 5.05592 0.446579 5.05592C0.446579 5.05592 1.09772 6.80592 2.81761 7.55592C4.53734 8.30592 7.32582 8.05592 7.32582 8.05592C7.32582 8.05592 8.59363 7.18092 8.45273 5.55592C8.31186 3.93092 6.19875 2.05606 6.19875 2.05606C6.19875 2.05606 5.80533 1.56879 4.5081 0.988672C3.21094 0.408558 1.12703 0.0554199 1.12703 0.0554199Z" />
      <path d="M1.12703 0.0554199C1.12703 0.0554199 0 -0.341408 0 0.988672C0 2.31875 0.446579 5.05592 0.446579 5.05592C0.446579 5.05592 1.09772 6.80592 2.81761 7.55592C4.53734 8.30592 7.32582 8.05592 7.32582 8.05592C7.32582 8.05592 8.59363 7.18092 8.45273 5.55592C8.31186 3.93092 6.19875 2.05606 6.19875 2.05606C6.19875 2.05606 5.80533 1.56879 4.5081 0.988672C3.21094 0.408558 1.12703 0.0554199 1.12703 0.0554199ZM7.21863 7.76413Q8.27609 6.99162 8.15385 5.58183Q8.02332 4.07603 5.99964 2.28046L5.98099 2.26391L5.96533 2.24451Q5.61714 1.81326 4.38563 1.26254Q3.12325 0.697975 1.07691 0.351203L1.0516 0.346915L1.0274 0.338392Q0.828876 0.268493 0.63297 0.315115Q0.3 0.394355 0.3 0.988672Q0.300003 2.28737 0.73789 4.97831Q1.34776 6.58768 2.93753 7.28092Q4.56209 7.98942 7.21863 7.76413Z" fill="#000000" fill-rule="evenodd" />
    </g>
    <g fill="url(#gradient_1)" fill-rule="evenodd" filter="url(#filter_5)" mix-blend-mode="luminosity" transform="translate(12.397 0)">
      <path d="M10.2641 0.489258C10.2641 0.489258 10.3146 1.71021 9.58012 3.21289C8.84552 4.71558 7.32581 5.5 7.32581 5.5C7.32254 5.50058 4.50458 7.00001 2.81404 6.50001C1.1235 6.00001 0 4.5 0 4.5C0 4.5 7.62939e-05 3.00269 0.563599 2C1.12712 0.997314 3.13531 0 4.99696 0C6.85825 0 10.2641 0.489258 10.2641 0.489258Z" />
      <path d="M9.58012 3.21289C10.3146 1.71021 10.2641 0.489258 10.2641 0.489258C10.2641 0.489258 6.85825 0 4.99696 0C3.13531 0 1.12712 0.997314 0.563599 2C7.62939e-05 3.00269 0 4.5 0 4.5C0 4.5 1.1235 6.00001 2.81404 6.50001C4.45785 6.98619 7.16763 5.58194 7.31917 5.50341C7.32347 5.50118 7.32572 5.50002 7.32581 5.5C7.32581 5.5 8.84552 4.71558 9.58012 3.21289ZM7.18823 5.23346L7.18821 5.23342Q8.61963 4.49457 9.3106 3.08115Q9.93676 1.80011 9.96593 0.749888Q6.76675 0.3 4.99696 0.3Q1.86315 0.299999 0.825126 2.14698Q0.318752 3.04798 0.30067 4.39967Q1.34906 5.75387 2.89913 6.21233Q4.42709 6.66424 7.18114 5.23705Q7.18469 5.23521 7.18823 5.23346Z" fill="#000000" fill-rule="evenodd" />
    </g>
  </g>
</svg>