<?xml version="1.0" encoding="utf-8"?>
<svg width="50" height="50" viewBox="0 0 50 50" fill="none" xmlns="http://www.w3.org/2000/svg">
  <defs>
    <clipPath id="clip_path_1">
      <rect width="50" height="50" />
    </clipPath>
  </defs>
  <g>
    <g clip-path="url(#clip_path_1)">
      <path d="M49.4792 3.08803C48.9501 2.82866 48.722 3.32345 48.4115 3.57449C48.3053 3.65574 48.2157 3.76095 48.1261 3.85782C47.3522 4.68491 46.448 5.22762 45.2657 5.16303C43.5386 5.06616 42.0636 5.60887 40.7595 6.9297C40.4824 5.30053 39.5615 4.32762 38.1605 3.70366C37.4272 3.3797 36.6855 3.0547 36.172 2.34949C35.8136 1.84741 35.7157 1.28803 35.5365 0.736991C35.422 0.4047 35.3084 0.0640745 34.9251 0.00782442C34.5095 -0.0567584 34.347 0.291158 34.1834 0.583866C33.5313 1.77553 33.2792 3.08907 33.3032 4.41824C33.3605 7.40887 34.623 9.7922 37.1324 11.4859C37.4178 11.6807 37.4907 11.8745 37.4011 12.1589C37.2303 12.7422 37.0261 13.3099 36.847 13.8932C36.7324 14.2662 36.5615 14.3474 36.1626 14.1849C34.7855 13.6099 33.5959 12.7589 32.5449 11.7287C30.7605 10.0026 29.1469 8.09741 27.1345 6.60574C26.6615 6.25679 26.1897 5.93283 25.7001 5.62449C23.6469 3.63074 25.9688 1.99324 26.5063 1.79845C27.0688 1.59533 26.7022 0.898451 24.8844 0.906784C23.0678 0.915117 21.4053 1.52241 19.2865 2.33283C18.9772 2.4547 18.6511 2.54324 18.3167 2.61616C16.3938 2.25158 14.3969 2.17033 12.3115 2.40574C8.38445 2.84324 5.24695 4.69949 2.9407 7.86929C0.169861 11.6787 -0.481181 16.0068 0.316736 20.5224C1.15632 25.2807 3.58445 29.2193 7.3157 32.2995C11.1865 35.4932 15.6428 37.0578 20.7282 36.7578C23.8167 36.5797 27.2553 36.1662 31.1334 32.8839C32.1115 33.3703 33.1376 33.5651 34.8407 33.7109C36.1522 33.8328 37.4157 33.6464 38.3938 33.4432C39.9261 33.1193 39.8199 31.7005 39.2657 31.4412C35.4209 30.0943 34.8699 29.512 34.8699 29.512C37.1511 26.813 40.5897 24.0078 41.9345 14.9214C42.0407 14.2005 41.9511 13.7464 41.9345 13.162C41.9261 12.8057 42.0074 12.6672 42.4157 12.6266C43.5397 12.4964 44.6324 12.1891 45.6345 11.638C48.5438 10.0495 49.7168 7.43908 49.9938 4.31095C50.0334 3.83387 49.9845 3.33907 49.4792 3.08803C49.4792 3.08803 49.4792 3.08803 49.4792 3.08803ZM24.1303 31.2474C19.7792 27.8265 17.6688 26.7005 16.7969 26.7484C15.9824 26.7974 16.1292 27.7297 16.3084 28.337C16.4959 28.937 16.7407 29.3505 17.0824 29.8765C17.3188 30.2255 17.4813 30.7442 16.8459 31.1328C15.4448 32.0005 13.0084 30.8411 12.8938 30.7838C10.0584 29.114 7.68756 26.9088 6.01672 23.8942C4.40318 20.9922 3.46672 17.8797 3.31151 14.5568C3.27089 13.7547 3.50735 13.4703 4.30526 13.3245C5.35631 13.1297 6.43964 13.089 7.49172 13.2432C11.9324 13.8922 15.7136 15.8776 18.8834 19.0224C20.6928 20.814 22.0615 22.9536 23.4709 25.0453C24.9699 27.2661 26.5834 29.3817 28.6365 31.1161C29.3615 31.7245 29.9407 32.1859 30.4938 32.5265C28.824 32.714 26.0365 32.7547 24.1303 31.2474C24.1303 31.2474 24.1303 31.2474 24.1303 31.2474C24.1303 31.2474 24.1303 31.2474 24.1303 31.2474ZM26.2168 17.8317C26.2168 17.4754 26.5022 17.1911 26.8605 17.1911C26.9418 17.1911 27.0157 17.2067 27.0803 17.2317C27.1699 17.264 27.2511 17.3129 27.3168 17.3859C27.4314 17.4994 27.4959 17.6619 27.4959 17.8317C27.4959 18.1879 27.2105 18.4723 26.8522 18.4723C26.4938 18.4723 26.2168 18.189 26.2168 17.8317C26.2168 17.8317 26.2168 17.8317 26.2168 17.8317C26.2168 17.8317 26.2168 17.8317 26.2168 17.8317ZM32.6938 21.1559C32.2782 21.3257 31.8626 21.4716 31.4636 21.4882C30.8438 21.5205 30.1678 21.2695 29.8011 20.9611C29.2303 20.483 28.823 20.2153 28.6522 19.3809C28.5793 19.0247 28.6199 18.4726 28.6845 18.157C28.8313 17.4757 28.6678 17.0382 28.1876 16.6413C27.7959 16.3174 27.299 16.2278 26.7532 16.2278C26.549 16.2278 26.3626 16.1382 26.224 16.0653C25.9959 15.9518 25.8084 15.6684 25.9876 15.3195C26.0449 15.2059 26.322 14.9309 26.3865 14.882C27.1282 14.4601 27.9834 14.5986 28.774 14.9143C29.5074 15.2143 30.0615 15.7653 30.8605 16.5434C31.6751 17.4841 31.822 17.7434 32.2865 18.4486C32.6532 18.9997 32.9876 19.5674 33.2157 20.2153C33.3543 20.6205 33.1751 20.9528 32.6938 21.1559C32.6938 21.1559 32.6938 21.1559 32.6938 21.1559C32.6938 21.1559 32.6938 21.1559 32.6938 21.1559Z" fill="#536DFE" transform="translate(-0.004 7.406)" />
    </g>
  </g>
</svg>