<?xml version="1.0" encoding="utf-8"?>
<svg width="32.4" height="32.4" viewBox="0 0 32.4 32.4" fill="none" xmlns="http://www.w3.org/2000/svg">
  <defs>
    <linearGradient id="gradient_1" gradientUnits="userSpaceOnUse" x1="16" y1="6" x2="16" y2="32">
      <stop offset="0.562" stop-color="#BDF3FF" />
      <stop offset="0.871" stop-color="#8AB0F7" />
    </linearGradient>
  </defs>
  <g fill="url(#gradient_1)" transform="translate(0.2 0.2)">
    <path d="M16 0C24.8378 0 32 7.16223 32 16L32 16C32 24.8378 24.8378 32 16 32L16 32C7.16223 32 0 24.8378 0 16L0 16C0 7.16223 7.16223 0 16 0Z" />
    <path d="M27.4557 4.54431Q22.7109 -0.203125 16 -0.199951Q9.28906 -0.199219 4.54431 4.54431Q-0.199219 9.28906 -0.199951 16Q-0.199219 22.7109 4.54431 27.4557Q9.28906 32.2031 16 32.2Q22.7109 32.2031 27.4557 27.4557Q32.2031 22.7109 32.2 16Q32.1992 9.28516 27.4557 4.54431ZM32 16C32 7.16223 24.8378 0 16 0C7.16223 0 0 7.16223 0 16C0 24.8378 7.16223 32 16 32C24.8378 32 32 24.8378 32 16Z" fill="#294666" fill-rule="evenodd" />
  </g>
</svg>