<svg xmlns="http://www.w3.org/2000/svg" x="0px" y="0px" width="100" height="100" viewBox="0 0 48 48">
<rect width="8" height="8" x="20" y="4" fill="#3dd9eb"></rect><rect width="8" height="8" x="20" y="36" fill="#3dd9eb"></rect><rect width="8" height="8" x="36" y="20" fill="#3dd9eb"></rect><rect width="8" height="8" x="4" y="20" fill="#3dd9eb"></rect><rect width="8" height="8" x="31.3" y="31.3" fill="#3dd9eb" transform="rotate(-45.001 35.315 35.315)"></rect><rect width="8" height="8" x="8.7" y="8.7" fill="#3dd9eb" transform="rotate(-45.001 12.686 12.686)"></rect><rect width="8" height="8" x="31.3" y="8.7" fill="#3dd9eb" transform="rotate(-45.001 35.313 12.686)"></rect><rect width="8" height="8" x="8.7" y="31.3" fill="#3dd9eb" transform="rotate(-45.001 12.685 35.313)"></rect><circle cx="24" cy="24" r="17" fill="#3dd9eb"></circle><circle cx="24" cy="24" r="14" fill="#7debf5"></circle><polygon fill="#3dd9eb" points="36.6,30.5 26,23 26,10 22,10 22,22.9 22,23 11.4,30.5 13.7,33.7 24,26.5 34.3,33.7"></polygon><circle cx="24" cy="24" r="10" fill="#3dd9eb"></circle><path fill="#00b3d7" d="M26,23v-8.8C25.4,14,24.7,14,24,14s-1.4,0.1-2,0.2V23L14.9,28c0.5,1.3,1.3,2.4,2.3,3.3l6.8-4.8l6.9,4.9	c1-0.9,1.8-2,2.3-3.3L26,23z"></path><circle cx="24" cy="24" r="5" fill="#7debf5"></circle>
</svg>